{
	"patcher" : 	{
		"fileversion" : 1,
		"appversion" : 		{
			"major" : 9,
			"minor" : 1,
			"revision" : 0,
			"architecture" : "x64",
			"modernui" : 1
		}
,
		"classnamespace" : "box",
		"rect" : [ 59.0, 119.0, 1000.0, 780.0 ],
		"gridsize" : [ 15.0, 15.0 ],
		"boxes" : [ 			{
				"box" : 				{
					"id" : "obj-8",
					"maxclass" : "jit.pwindow",
					"numinlets" : 1,
					"numoutlets" : 2,
					"outlettype" : [ "jit_matrix", "" ],
					"patching_rect" : [ 186.0, 474.0, 353.0, 225.0 ],
					"sync" : 1
				}

			}
, 			{
				"box" : 				{
					"id" : "obj-7",
					"maxclass" : "newobj",
					"numinlets" : 2,
					"numoutlets" : 3,
					"outlettype" : [ "", "", "" ],
					"patching_rect" : [ 186.0, 430.0, 177.0, 22.0 ],
					"text" : "jit.gpu.totexture @source points"
				}

			}
, 			{
				"box" : 				{
					"data" : 					{
						"clips" : [ 							{
								"absolutepath" : "Macintosh HD:/Users/matteomarson/Documents/Max dev/max/jit-misc/jit-docs/media/chickens.mp4",
								"filename" : "chickens.mp4",
								"filekind" : "moviefile",
								"id" : "u629005985",
								"loop" : 0,
								"content_state" : 								{

								}

							}
 ]
					}
,
					"drawto" : "",
					"id" : "obj-6",
					"loop" : 3,
					"maxclass" : "jit.playlist",
					"numinlets" : 1,
					"numoutlets" : 3,
					"outlettype" : [ "jit_matrix", "", "dictionary" ],
					"output_texture" : 0,
					"parameter_enable" : 0,
					"patching_rect" : [ 545.0, 44.0, 150.0, 30.0 ],
					"saved_attribute_attributes" : 					{
						"candicane2" : 						{
							"expression" : ""
						}
,
						"candicane3" : 						{
							"expression" : ""
						}
,
						"candicane4" : 						{
							"expression" : ""
						}
,
						"candicane5" : 						{
							"expression" : ""
						}
,
						"candicane6" : 						{
							"expression" : ""
						}
,
						"candicane7" : 						{
							"expression" : ""
						}
,
						"candicane8" : 						{
							"expression" : ""
						}

					}

				}

			}
, 			{
				"box" : 				{
					"id" : "obj-2",
					"maxclass" : "newobj",
					"numinlets" : 1,
					"numoutlets" : 2,
					"outlettype" : [ "", "" ],
					"patching_rect" : [ 86.0, 145.0, 407.0, 22.0 ],
					"text" : "jit.gpu.image @name points @format RGBA32_FLOAT @dim 1920 1080 1"
				}

			}
, 			{
				"box" : 				{
					"id" : "obj-4",
					"maxclass" : "button",
					"numinlets" : 1,
					"numoutlets" : 1,
					"outlettype" : [ "bang" ],
					"parameter_enable" : 0,
					"patching_rect" : [ 119.0, 247.0, 24.0, 24.0 ]
				}

			}
, 			{
				"box" : 				{
					"filename" : "none",
					"id" : "obj-30",
					"maxclass" : "newobj",
					"numinlets" : 0,
					"numoutlets" : 1,
					"outlettype" : [ "" ],
					"patching_rect" : [ 576.0, 290.0, 187.0, 22.0 ],
					"text" : "jit.gpu.shader @name img2points",
					"textfile" : 					{
						"text" : "#version 460\nlayout(local_size_x = 16, local_size_y = 16, local_size_z = 1) in;\n\nlayout(binding = 1, rgba32f) writeonly uniform image2D points;\n\nuint wang_hash(inout uint seed){\n\n    seed = uint(seed ^ uint(61)) ^ uint(seed >> uint(16));\n    seed *= uint(9);\n    seed = seed ^ (seed >> 4);\n    seed *= uint(0x27d4eb2d);\n    seed = seed ^ (seed >> 15);\n    return seed;\n}\n \nfloat RandomFloat01(inout uint seed) { \n\treturn float(wang_hash(seed)) / 4294967296.0; \n}\n\nvoid main() {\n\n    ivec2 coord = ivec3(gl_GlobalInvocationID.xy);\n    ivec2 size = imageSize(points);\n\n    if(coord.x >= size.x || coord.y >= size.y) return;\n\n    uint seed = coord + ivec2(999,888);\n\n    vec4 rand = vec4(RandomFloat01(seed, RandomFloat01(seed), RandomFloat01(seed), RandomFloat01(seed)));\n\n    imageStore(points, coord, rand);\n}",
						"filename" : "none",
						"flags" : 0,
						"embed" : 1,
						"autowatch" : 1
					}

				}

			}
, 			{
				"box" : 				{
					"id" : "obj-29",
					"maxclass" : "newobj",
					"numinlets" : 2,
					"numoutlets" : 3,
					"outlettype" : [ "", "", "" ],
					"patching_rect" : [ 86.0, 290.0, 463.0, 22.0 ],
					"text" : "jit.gpu.compute @shader img2points @threads 120 68 1 @write points @automatic 0"
				}

			}
, 			{
				"box" : 				{
					"id" : "obj-3",
					"maxclass" : "toggle",
					"numinlets" : 1,
					"numoutlets" : 1,
					"outlettype" : [ "int" ],
					"parameter_enable" : 0,
					"patching_rect" : [ 86.0, 32.0, 24.0, 24.0 ]
				}

			}
, 			{
				"box" : 				{
					"id" : "obj-1",
					"maxclass" : "newobj",
					"numinlets" : 1,
					"numoutlets" : 3,
					"outlettype" : [ "jit_matrix", "bang", "" ],
					"patching_rect" : [ 86.0, 78.0, 113.0, 22.0 ],
					"text" : "jit.world @floating 1"
				}

			}
 ],
		"lines" : [ 			{
				"patchline" : 				{
					"destination" : [ "obj-1", 0 ],
					"source" : [ "obj-3", 0 ]
				}

			}
, 			{
				"patchline" : 				{
					"destination" : [ "obj-29", 0 ],
					"source" : [ "obj-4", 0 ]
				}

			}
, 			{
				"patchline" : 				{
					"destination" : [ "obj-8", 0 ],
					"source" : [ "obj-7", 0 ]
				}

			}
 ],
		"dependency_cache" : [ 			{
				"name" : "chickens.mp4",
				"bootpath" : "~/Documents/Max dev/max/jit-misc/jit-docs/media",
				"patcherrelativepath" : "../../Max dev/max/jit-misc/jit-docs/media",
				"type" : "mpg4",
				"implicit" : 1
			}
 ],
		"autosave" : 0
	}

}
