{
    "patcher": {
        "fileversion": 1,
        "appversion": {
            "major": 9,
            "minor": 1,
            "revision": 3,
            "architecture": "x64",
            "modernui": 1
        },
        "classnamespace": "box",
        "rect": [ 592.0, 181.0, 1000.0, 780.0 ],
        "boxes": [
            {
                "box": {
                    "id": "obj-15",
                    "maxclass": "message",
                    "numinlets": 2,
                    "numoutlets": 1,
                    "outlettype": [ "" ],
                    "patching_rect": [ 553.0, 123.0, 33.0, 22.0 ],
                    "text": "read"
                }
            },
            {
                "box": {
                    "id": "obj-8",
                    "maxclass": "message",
                    "numinlets": 2,
                    "numoutlets": 1,
                    "outlettype": [ "" ],
                    "patching_rect": [ 589.0, 378.0, 34.0, 22.0 ],
                    "text": "write"
                }
            },
            {
                "box": {
                    "id": "obj-27",
                    "maxclass": "comment",
                    "numinlets": 1,
                    "numoutlets": 0,
                    "patching_rect": [ 483.0, 85.0, 85.0, 20.0 ],
                    "text": "2) Recall state"
                }
            },
            {
                "box": {
                    "id": "obj-25",
                    "maxclass": "button",
                    "numinlets": 1,
                    "numoutlets": 1,
                    "outlettype": [ "bang" ],
                    "parameter_enable": 0,
                    "patching_rect": [ 454.0, 83.0, 24.0, 24.0 ]
                }
            },
            {
                "box": {
                    "id": "obj-21",
                    "maxclass": "comment",
                    "numinlets": 1,
                    "numoutlets": 0,
                    "patching_rect": [ 485.0, 188.0, 79.0, 20.0 ],
                    "text": "1) Save state"
                }
            },
            {
                "box": {
                    "id": "obj-19",
                    "maxclass": "newobj",
                    "numinlets": 1,
                    "numoutlets": 2,
                    "outlettype": [ "jit_matrix", "" ],
                    "patching_rect": [ 454.0, 123.0, 93.0, 22.0 ],
                    "text": "jit.matrix STATE"
                }
            },
            {
                "box": {
                    "fontface": 0,
                    "fontname": "Arial",
                    "fontsize": 12.0,
                    "id": "obj-24",
                    "maxclass": "jit.fpsgui",
                    "mode": 3,
                    "numinlets": 1,
                    "numoutlets": 2,
                    "outlettype": [ "", "" ],
                    "patching_rect": [ 489.0, 414.0, 53.0, 35.0 ]
                }
            },
            {
                "box": {
                    "id": "obj-23",
                    "maxclass": "newobj",
                    "numinlets": 1,
                    "numoutlets": 2,
                    "outlettype": [ "jit_matrix", "" ],
                    "patching_rect": [ 489.0, 378.0, 93.0, 22.0 ],
                    "text": "jit.matrix STATE"
                }
            },
            {
                "box": {
                    "id": "obj-22",
                    "maxclass": "newobj",
                    "numinlets": 1,
                    "numoutlets": 2,
                    "outlettype": [ "jit_matrix", "" ],
                    "patching_rect": [ 489.0, 336.0, 106.0, 22.0 ],
                    "text": "jit.coerce 4 float32"
                }
            },
            {
                "box": {
                    "id": "obj-18",
                    "maxclass": "newobj",
                    "numinlets": 1,
                    "numoutlets": 2,
                    "outlettype": [ "jit_matrix", "" ],
                    "patching_rect": [ 489.0, 301.0, 57.0, 22.0 ],
                    "text": "jit.matrix"
                }
            },
            {
                "box": {
                    "id": "obj-16",
                    "maxclass": "button",
                    "numinlets": 1,
                    "numoutlets": 1,
                    "outlettype": [ "bang" ],
                    "parameter_enable": 0,
                    "patching_rect": [ 454.0, 186.0, 24.0, 24.0 ]
                }
            },
            {
                "box": {
                    "id": "obj-14",
                    "maxclass": "newobj",
                    "numinlets": 2,
                    "numoutlets": 3,
                    "outlettype": [ "", "jit_matrix", "" ],
                    "patching_rect": [ 455.0, 262.0, 87.0, 22.0 ],
                    "text": "jit.gpu.tomatrix"
                }
            },
            {
                "box": {
                    "id": "obj-13",
                    "maxclass": "newobj",
                    "numinlets": 2,
                    "numoutlets": 1,
                    "outlettype": [ "bang" ],
                    "patching_rect": [ 37.0, 149.0, 119.0, 22.0 ],
                    "text": "qmetro 60 @active 1"
                }
            },
            {
                "box": {
                    "id": "obj-12",
                    "maxclass": "newobj",
                    "numinlets": 1,
                    "numoutlets": 3,
                    "outlettype": [ "", "", "" ],
                    "patching_rect": [ 37.0, 289.0, 79.0, 22.0 ],
                    "text": "jit.gpu.submit"
                }
            },
            {
                "box": {
                    "id": "obj-11",
                    "linecount": 2,
                    "maxclass": "newobj",
                    "numinlets": 1,
                    "numoutlets": 3,
                    "outlettype": [ "jit_matrix", "bang", "" ],
                    "patching_rect": [ 37.0, 40.0, 114.0, 35.0 ],
                    "text": "jit.world @enable 1 @visible 0"
                }
            },
            {
                "box": {
                    "id": "obj-10",
                    "maxclass": "newobj",
                    "numinlets": 2,
                    "numoutlets": 3,
                    "outlettype": [ "", "jit_gl_texture", "" ],
                    "patching_rect": [ 37.0, 256.0, 211.0, 22.0 ],
                    "text": "jit.gpu.totexture"
                }
            },
            {
                "box": {
                    "id": "obj-9",
                    "maxclass": "button",
                    "numinlets": 1,
                    "numoutlets": 1,
                    "outlettype": [ "bang" ],
                    "parameter_enable": 0,
                    "patching_rect": [ 37.0, 182.0, 24.0, 24.0 ]
                }
            },
            {
                "box": {
                    "id": "obj-7",
                    "maxclass": "jit.pwindow",
                    "numinlets": 1,
                    "numoutlets": 2,
                    "outlettype": [ "jit_matrix", "" ],
                    "patching_rect": [ 133.0, 289.0, 286.0, 177.0 ],
                    "sync": 1
                }
            },
            {
                "box": {
                    "id": "obj-6",
                    "maxclass": "newobj",
                    "numinlets": 1,
                    "numoutlets": 1,
                    "outlettype": [ "bang" ],
                    "patching_rect": [ 322.0, 87.0, 58.0, 22.0 ],
                    "text": "loadbang"
                }
            },
            {
                "box": {
                    "id": "obj-4",
                    "maxclass": "newobj",
                    "numinlets": 1,
                    "numoutlets": 2,
                    "outlettype": [ "jit_matrix", "" ],
                    "patching_rect": [ 322.0, 123.0, 115.0, 22.0 ],
                    "text": "jit.noise 4 float32 20"
                }
            },
            {
                "box": {
                    "id": "obj-3",
                    "maxclass": "newobj",
                    "numinlets": 1,
                    "numoutlets": 2,
                    "outlettype": [ "", "" ],
                    "patching_rect": [ 322.0, 162.0, 74.0, 22.0 ],
                    "text": "jit.gpu.buffer"
                }
            },
            {
                "box": {
                    "id": "obj-2",
                    "maxclass": "newobj",
                    "numinlets": 1,
                    "numoutlets": 2,
                    "outlettype": [ "", "" ],
                    "patching_rect": [ 179.5, 40.0, 244.0, 22.0 ],
                    "text": "jit.gpu.image @dim 30 20 @format r32_float"
                }
            },
            {
                "box": {
                    "filename": "none",
                    "id": "obj-1",
                    "maxclass": "newobj",
                    "numinlets": 3,
                    "numoutlets": 1,
                    "outlettype": [ "" ],
                    "patching_rect": [ 37.0, 218.0, 304.0, 22.0 ],
                    "text": "jit.gpu.compute @autoworkgroups canvasImg",
                    "textfile": {
                        "text": "//Draw some points shifting to the right\n#version 460\nlayout(local_size_x = 16, local_size_y = 16) in;\nlayout(r32f, binding = 0) uniform writeonly image2D canvasImg;\n\nlayout(std430, binding = 1) buffer posBuff {\n    float pos[];\n};\nvoid main() {\n\n    ivec2 coord = ivec2(gl_GlobalInvocationID.xy);\n    ivec2 size = imageSize(canvasImg);\n\n    if(coord.x >= size.x || coord.y >= size.y) return;\n\n    imageStore(canvasImg, coord, vec4(0.0));\n    barrier();\n\n    uint lid = gl_LocalInvocationIndex;\n\n    if(lid < 20){\n        pos[lid] = fract(pos[lid] + 0.01);\n        ivec2 uv = ivec2(floor(pos[lid]*30), lid);\n        imageStore(canvasImg, uv, vec4(1.0));\n    }\n}",
                        "filename": "none",
                        "flags": 0,
                        "embed": 1,
                        "autowatch": 1
                    }
                }
            },
            {
                "box": {
                    "attr": "active",
                    "id": "obj-28",
                    "maxclass": "attrui",
                    "numinlets": 1,
                    "numoutlets": 1,
                    "outlettype": [ "" ],
                    "parameter_enable": 0,
                    "patching_rect": [ 37.0, 119.0, 86.0, 22.0 ],
                    "text_width": 57.0
                }
            }
        ],
        "lines": [
            {
                "patchline": {
                    "destination": [ "obj-10", 0 ],
                    "source": [ "obj-1", 0 ]
                }
            },
            {
                "patchline": {
                    "destination": [ "obj-12", 0 ],
                    "source": [ "obj-10", 0 ]
                }
            },
            {
                "patchline": {
                    "destination": [ "obj-7", 0 ],
                    "source": [ "obj-10", 1 ]
                }
            },
            {
                "patchline": {
                    "destination": [ "obj-9", 0 ],
                    "source": [ "obj-13", 0 ]
                }
            },
            {
                "patchline": {
                    "destination": [ "obj-18", 0 ],
                    "source": [ "obj-14", 1 ]
                }
            },
            {
                "patchline": {
                    "destination": [ "obj-19", 0 ],
                    "source": [ "obj-15", 0 ]
                }
            },
            {
                "patchline": {
                    "destination": [ "obj-14", 0 ],
                    "source": [ "obj-16", 0 ]
                }
            },
            {
                "patchline": {
                    "destination": [ "obj-22", 0 ],
                    "source": [ "obj-18", 0 ]
                }
            },
            {
                "patchline": {
                    "destination": [ "obj-3", 0 ],
                    "source": [ "obj-19", 0 ]
                }
            },
            {
                "patchline": {
                    "destination": [ "obj-1", 1 ],
                    "order": 1,
                    "source": [ "obj-2", 0 ]
                }
            },
            {
                "patchline": {
                    "destination": [ "obj-10", 1 ],
                    "order": 0,
                    "source": [ "obj-2", 0 ]
                }
            },
            {
                "patchline": {
                    "destination": [ "obj-23", 0 ],
                    "source": [ "obj-22", 0 ]
                }
            },
            {
                "patchline": {
                    "destination": [ "obj-24", 0 ],
                    "source": [ "obj-23", 0 ]
                }
            },
            {
                "patchline": {
                    "destination": [ "obj-19", 0 ],
                    "source": [ "obj-25", 0 ]
                }
            },
            {
                "patchline": {
                    "destination": [ "obj-13", 0 ],
                    "source": [ "obj-28", 0 ]
                }
            },
            {
                "patchline": {
                    "destination": [ "obj-1", 2 ],
                    "order": 1,
                    "source": [ "obj-3", 0 ]
                }
            },
            {
                "patchline": {
                    "destination": [ "obj-14", 1 ],
                    "order": 0,
                    "source": [ "obj-3", 0 ]
                }
            },
            {
                "patchline": {
                    "destination": [ "obj-3", 0 ],
                    "source": [ "obj-4", 0 ]
                }
            },
            {
                "patchline": {
                    "destination": [ "obj-4", 0 ],
                    "source": [ "obj-6", 0 ]
                }
            },
            {
                "patchline": {
                    "destination": [ "obj-23", 0 ],
                    "source": [ "obj-8", 0 ]
                }
            },
            {
                "patchline": {
                    "destination": [ "obj-1", 0 ],
                    "source": [ "obj-9", 0 ]
                }
            }
        ],
        "autosave": 0
    }
}