{
    "patcher": {
        "fileversion": 1,
        "appversion": {
            "major": 9,
            "minor": 2,
            "revision": 0,
            "architecture": "x64",
            "modernui": 1
        },
        "classnamespace": "box",
        "rect": [ 34.0, 100.0, 1348.0, 893.0 ],
        "boxes": [
            {
                "box": {
                    "id": "obj-107",
                    "maxclass": "newobj",
                    "numinlets": 2,
                    "numoutlets": 1,
                    "outlettype": [ "float" ],
                    "patching_rect": [ 794.0, 747.0, 33.0, 22.0 ],
                    "text": "* 4.6"
                }
            },
            {
                "box": {
                    "format": 6,
                    "id": "obj-106",
                    "maxclass": "flonum",
                    "numinlets": 1,
                    "numoutlets": 2,
                    "outlettype": [ "", "bang" ],
                    "parameter_enable": 0,
                    "patching_rect": [ 433.0, 706.0, 140.0, 22.0 ]
                }
            },
            {
                "box": {
                    "id": "obj-105",
                    "maxclass": "newobj",
                    "numinlets": 1,
                    "numoutlets": 1,
                    "outlettype": [ "float" ],
                    "patching_rect": [ 794.0, 716.0, 29.0, 22.0 ],
                    "text": "sqrt"
                }
            },
            {
                "box": {
                    "format": 6,
                    "id": "obj-104",
                    "maxclass": "flonum",
                    "numinlets": 1,
                    "numoutlets": 2,
                    "outlettype": [ "", "bang" ],
                    "parameter_enable": 0,
                    "patching_rect": [ 608.0, 761.0, 140.0, 22.0 ]
                }
            },
            {
                "box": {
                    "id": "obj-103",
                    "maxclass": "newobj",
                    "numinlets": 1,
                    "numoutlets": 1,
                    "outlettype": [ "" ],
                    "patching_rect": [ 608.0, 727.0, 137.0, 22.0 ],
                    "text": "expr log10($f1)/log10(2)"
                }
            },
            {
                "box": {
                    "bgcolor": [ 0.5176470588235295, 0.29411764705882354, 0.29411764705882354, 0.99 ],
                    "id": "obj-93",
                    "maxclass": "comment",
                    "numinlets": 1,
                    "numoutlets": 0,
                    "patching_rect": [ 180.0, 1254.0, 28.0, 20.0 ],
                    "text": "15k",
                    "textjustification": 1
                }
            },
            {
                "box": {
                    "bgcolor": [ 0.5176470588235295, 0.29411764705882354, 0.29411764705882354, 0.99 ],
                    "id": "obj-92",
                    "maxclass": "comment",
                    "numinlets": 1,
                    "numoutlets": 0,
                    "patching_rect": [ 180.0, 1518.0, 28.0, 20.0 ],
                    "text": "5k",
                    "textjustification": 1
                }
            },
            {
                "box": {
                    "bgcolor": [ 0.5176470588235295, 0.29411764705882354, 0.29411764705882354, 0.99 ],
                    "id": "obj-88",
                    "maxclass": "comment",
                    "numinlets": 1,
                    "numoutlets": 0,
                    "patching_rect": [ 180.0, 1374.0, 28.0, 20.0 ],
                    "text": "10k",
                    "textjustification": 1
                }
            },
            {
                "box": {
                    "bgcolor": [ 0.5176470588235295, 0.29411764705882354, 0.29411764705882354, 0.99 ],
                    "id": "obj-87",
                    "maxclass": "comment",
                    "numinlets": 1,
                    "numoutlets": 0,
                    "patching_rect": [ 180.0, 1134.0, 28.0, 20.0 ],
                    "presentation_linecount": 3,
                    "text": "20k",
                    "textjustification": 1
                }
            },
            {
                "box": {
                    "bgcolor": [ 0.5176470588235295, 0.29411764705882354, 0.29411764705882354, 0.99 ],
                    "id": "obj-82",
                    "maxclass": "comment",
                    "numinlets": 1,
                    "numoutlets": 0,
                    "patching_rect": [ 184.5, 1645.0, 19.0, 20.0 ],
                    "text": "0",
                    "textjustification": 1
                }
            },
            {
                "box": {
                    "angle": 270.0,
                    "arrow_orientation": 3,
                    "bgcolor": [ 1.0, 1.0, 1.0, 1.0 ],
                    "id": "obj-101",
                    "maxclass": "panel",
                    "mode": 0,
                    "numinlets": 1,
                    "numoutlets": 0,
                    "patching_rect": [ 192.0, 1127.0, 4.0, 529.5 ],
                    "proportion": 0.5,
                    "rounded": 0
                }
            },
            {
                "box": {
                    "angle": 270.0,
                    "arrow_orientation": 3,
                    "bgcolor": [ 1.0, 1.0, 1.0, 1.0 ],
                    "id": "obj-100",
                    "maxclass": "panel",
                    "mode": 0,
                    "numinlets": 1,
                    "numoutlets": 0,
                    "patching_rect": [ 188.5, 1108.5, 11.0, 21.0 ],
                    "proportion": 0.5,
                    "shape": 3
                }
            },
            {
                "box": {
                    "bgcolor": [ 0.518, 0.294, 0.294, 0.988 ],
                    "id": "obj-95",
                    "maxclass": "comment",
                    "numinlets": 1,
                    "numoutlets": 0,
                    "patching_rect": [ 576.0, 1645.0, 29.0, 20.0 ],
                    "text": "187",
                    "textjustification": 1
                }
            },
            {
                "box": {
                    "bgcolor": [ 0.518, 0.294, 0.294, 0.988 ],
                    "id": "obj-94",
                    "maxclass": "comment",
                    "numinlets": 1,
                    "numoutlets": 0,
                    "patching_rect": [ 312.0, 1645.0, 29.0, 20.0 ],
                    "text": "62",
                    "textjustification": 1
                }
            },
            {
                "box": {
                    "id": "obj-89",
                    "maxclass": "comment",
                    "numinlets": 1,
                    "numoutlets": 0,
                    "patching_rect": [ 106.0, 1083.0, 107.0, 20.0 ],
                    "presentation_linecount": 4,
                    "text": "number of atomics"
                }
            },
            {
                "box": {
                    "bgcolor": [ 0.518, 0.294, 0.294, 0.988 ],
                    "id": "obj-84",
                    "maxclass": "comment",
                    "numinlets": 1,
                    "numoutlets": 0,
                    "patching_rect": [ 445.5, 1645.0, 29.0, 20.0 ],
                    "text": "125",
                    "textjustification": 1
                }
            },
            {
                "box": {
                    "bgcolor": [ 0.518, 0.294, 0.294, 0.988 ],
                    "id": "obj-83",
                    "maxclass": "comment",
                    "numinlets": 1,
                    "numoutlets": 0,
                    "patching_rect": [ 697.0, 1645.0, 29.0, 20.0 ],
                    "presentation_linecount": 3,
                    "text": "250",
                    "textjustification": 1
                }
            },
            {
                "box": {
                    "id": "obj-81",
                    "maxclass": "comment",
                    "numinlets": 1,
                    "numoutlets": 0,
                    "patching_rect": [ 748.0, 1645.0, 41.0, 20.0 ],
                    "text": "radius"
                }
            },
            {
                "box": {
                    "id": "obj-79",
                    "maxclass": "newobj",
                    "numinlets": 1,
                    "numoutlets": 2,
                    "outlettype": [ "jit_matrix", "" ],
                    "patching_rect": [ 417.0, 999.0, 151.0, 22.0 ],
                    "text": "cv.jit.resize @size 500 500"
                }
            },
            {
                "box": {
                    "attr": "frgb",
                    "id": "obj-76",
                    "maxclass": "attrui",
                    "numinlets": 1,
                    "numoutlets": 1,
                    "outlettype": [ "" ],
                    "parameter_enable": 0,
                    "patching_rect": [ 712.0, 1022.0, 252.0, 22.0 ]
                }
            },
            {
                "box": {
                    "id": "obj-75",
                    "maxclass": "newobj",
                    "numinlets": 2,
                    "numoutlets": 2,
                    "outlettype": [ "jit_matrix", "" ],
                    "patcher": {
                        "fileversion": 1,
                        "appversion": {
                            "major": 9,
                            "minor": 2,
                            "revision": 0,
                            "architecture": "x64",
                            "modernui": 1
                        },
                        "classnamespace": "jit.gen",
                        "rect": [ 59.0, 119.0, 600.0, 450.0 ],
                        "boxes": [
                            {
                                "box": {
                                    "id": "obj-7",
                                    "maxclass": "newobj",
                                    "numinlets": 1,
                                    "numoutlets": 1,
                                    "outlettype": [ "" ],
                                    "patching_rect": [ 239.0, 220.0, 26.0, 22.0 ],
                                    "text": "!- 1"
                                }
                            },
                            {
                                "box": {
                                    "id": "obj-6",
                                    "maxclass": "newobj",
                                    "numinlets": 1,
                                    "numoutlets": 1,
                                    "outlettype": [ "" ],
                                    "patching_rect": [ 250.0, 86.0, 53.0, 22.0 ],
                                    "text": "* 1 0 1 1"
                                }
                            },
                            {
                                "box": {
                                    "id": "obj-5",
                                    "maxclass": "newobj",
                                    "numinlets": 1,
                                    "numoutlets": 1,
                                    "outlettype": [ "" ],
                                    "patching_rect": [ 102.0, 86.0, 53.0, 22.0 ],
                                    "text": "* 1 1 0 1"
                                }
                            },
                            {
                                "box": {
                                    "id": "obj-1",
                                    "maxclass": "newobj",
                                    "numinlets": 0,
                                    "numoutlets": 1,
                                    "outlettype": [ "" ],
                                    "patching_rect": [ 50.0, 14.0, 28.0, 22.0 ],
                                    "text": "in 1"
                                }
                            },
                            {
                                "box": {
                                    "id": "obj-2",
                                    "maxclass": "newobj",
                                    "numinlets": 0,
                                    "numoutlets": 1,
                                    "outlettype": [ "" ],
                                    "patching_rect": [ 305.0, 14.0, 28.0, 22.0 ],
                                    "text": "in 2"
                                }
                            },
                            {
                                "box": {
                                    "id": "obj-3",
                                    "maxclass": "newobj",
                                    "numinlets": 2,
                                    "numoutlets": 1,
                                    "outlettype": [ "" ],
                                    "patching_rect": [ 176.0, 149.0, 29.5, 22.0 ],
                                    "text": "+"
                                }
                            },
                            {
                                "box": {
                                    "id": "obj-4",
                                    "maxclass": "newobj",
                                    "numinlets": 1,
                                    "numoutlets": 0,
                                    "patching_rect": [ 176.0, 418.0, 35.0, 22.0 ],
                                    "text": "out 1"
                                }
                            }
                        ],
                        "lines": [
                            {
                                "patchline": {
                                    "destination": [ "obj-5", 0 ],
                                    "source": [ "obj-1", 0 ]
                                }
                            },
                            {
                                "patchline": {
                                    "destination": [ "obj-6", 0 ],
                                    "source": [ "obj-2", 0 ]
                                }
                            },
                            {
                                "patchline": {
                                    "destination": [ "obj-4", 0 ],
                                    "source": [ "obj-3", 0 ]
                                }
                            },
                            {
                                "patchline": {
                                    "destination": [ "obj-3", 0 ],
                                    "source": [ "obj-5", 0 ]
                                }
                            },
                            {
                                "patchline": {
                                    "destination": [ "obj-3", 1 ],
                                    "source": [ "obj-6", 0 ]
                                }
                            }
                        ]
                    },
                    "patching_rect": [ 323.0, 971.0, 41.0, 22.0 ],
                    "text": "jit.gen"
                }
            },
            {
                "box": {
                    "depthbuffer": 1,
                    "doublebuffer": 1,
                    "fsaa": 0,
                    "id": "obj-74",
                    "maxclass": "jit.pwindow",
                    "numinlets": 1,
                    "numoutlets": 2,
                    "outlettype": [ "jit_matrix", "" ],
                    "patching_rect": [ 210.0, 1134.0, 500.0, 500.0 ],
                    "stereo": 0,
                    "sync": 1
                }
            },
            {
                "box": {
                    "id": "obj-73",
                    "maxclass": "newobj",
                    "numinlets": 1,
                    "numoutlets": 2,
                    "outlettype": [ "jit_matrix", "" ],
                    "patching_rect": [ 331.0, 937.0, 129.0, 22.0 ],
                    "text": "jit.graph @height 1000"
                }
            },
            {
                "box": {
                    "id": "obj-72",
                    "maxclass": "newobj",
                    "numinlets": 1,
                    "numoutlets": 3,
                    "outlettype": [ "jit_matrix", "jit_matrix", "" ],
                    "patching_rect": [ 348.0, 866.0, 69.0, 22.0 ],
                    "text": "jit.unpack 2"
                }
            },
            {
                "box": {
                    "id": "obj-67",
                    "maxclass": "newobj",
                    "numinlets": 2,
                    "numoutlets": 2,
                    "outlettype": [ "jit_matrix", "" ],
                    "patching_rect": [ 1080.0, 928.0, 41.0, 22.0 ],
                    "text": "jit.sqrt"
                }
            },
            {
                "box": {
                    "id": "obj-66",
                    "maxclass": "newobj",
                    "numinlets": 2,
                    "numoutlets": 1,
                    "outlettype": [ "float" ],
                    "patching_rect": [ 676.0, 194.0, 40.0, 22.0 ],
                    "text": "* 0.25"
                }
            },
            {
                "box": {
                    "attr": "rangelo",
                    "id": "obj-65",
                    "maxclass": "attrui",
                    "numinlets": 1,
                    "numoutlets": 1,
                    "outlettype": [ "" ],
                    "parameter_enable": 0,
                    "patching_rect": [ 646.0, 838.0, 150.0, 22.0 ]
                }
            },
            {
                "box": {
                    "id": "obj-63",
                    "maxclass": "newobj",
                    "numinlets": 1,
                    "numoutlets": 2,
                    "outlettype": [ "jit_matrix", "" ],
                    "patching_rect": [ 546.0, 937.0, 129.0, 22.0 ],
                    "text": "jit.graph @height 1000"
                }
            },
            {
                "box": {
                    "id": "obj-62",
                    "maxclass": "newobj",
                    "numinlets": 2,
                    "numoutlets": 2,
                    "outlettype": [ "jit_matrix", "" ],
                    "patching_rect": [ 772.0, 833.0, 95.0, 22.0 ],
                    "text": "jit./ @val 25000."
                }
            },
            {
                "box": {
                    "depthbuffer": 1,
                    "doublebuffer": 1,
                    "fsaa": 0,
                    "id": "obj-61",
                    "maxclass": "jit.pwindow",
                    "numinlets": 1,
                    "numoutlets": 2,
                    "outlettype": [ "jit_matrix", "" ],
                    "patching_rect": [ 1082.0, 927.0, 530.0, 490.0 ],
                    "stereo": 0,
                    "sync": 1
                }
            },
            {
                "box": {
                    "id": "obj-60",
                    "maxclass": "button",
                    "numinlets": 1,
                    "numoutlets": 1,
                    "outlettype": [ "bang" ],
                    "parameter_enable": 0,
                    "patching_rect": [ 412.0, 817.0, 24.0, 24.0 ]
                }
            },
            {
                "box": {
                    "depthbuffer": 1,
                    "doublebuffer": 1,
                    "fsaa": 0,
                    "id": "obj-58",
                    "maxclass": "jit.pwindow",
                    "numinlets": 1,
                    "numoutlets": 2,
                    "outlettype": [ "jit_matrix", "" ],
                    "patching_rect": [ 464.0, 847.0, 80.0, 60.0 ],
                    "stereo": 0,
                    "sync": 1
                }
            },
            {
                "box": {
                    "id": "obj-57",
                    "maxclass": "message",
                    "numinlets": 2,
                    "numoutlets": 1,
                    "outlettype": [ "" ],
                    "patching_rect": [ 474.0, 800.0, 111.0, 22.0 ],
                    "text": "setcell $3 val $1 $2"
                }
            },
            {
                "box": {
                    "id": "obj-55",
                    "maxclass": "newobj",
                    "numinlets": 1,
                    "numoutlets": 2,
                    "outlettype": [ "int", "int" ],
                    "patching_rect": [ 782.5, 152.0, 29.5, 22.0 ],
                    "text": "t i i"
                }
            },
            {
                "box": {
                    "id": "obj-54",
                    "maxclass": "newobj",
                    "numinlets": 3,
                    "numoutlets": 1,
                    "outlettype": [ "" ],
                    "patching_rect": [ 474.0, 767.0, 53.0, 22.0 ],
                    "text": "pack f f i"
                }
            },
            {
                "box": {
                    "id": "obj-53",
                    "maxclass": "toggle",
                    "numinlets": 1,
                    "numoutlets": 1,
                    "outlettype": [ "int" ],
                    "parameter_enable": 0,
                    "patching_rect": [ 671.0, 62.0, 24.0, 24.0 ]
                }
            },
            {
                "box": {
                    "id": "obj-51",
                    "maxclass": "newobj",
                    "numinlets": 2,
                    "numoutlets": 1,
                    "outlettype": [ "bang" ],
                    "patching_rect": [ 669.0, 96.0, 69.0, 22.0 ],
                    "text": "qmetro 100"
                }
            },
            {
                "box": {
                    "id": "obj-50",
                    "maxclass": "newobj",
                    "numinlets": 1,
                    "numoutlets": 2,
                    "outlettype": [ "jit_matrix", "" ],
                    "patching_rect": [ 474.0, 866.0, 133.0, 22.0 ],
                    "text": "jit.matrix 2 float32 1000"
                }
            },
            {
                "box": {
                    "id": "obj-49",
                    "maxclass": "newobj",
                    "numinlets": 5,
                    "numoutlets": 4,
                    "outlettype": [ "int", "", "", "int" ],
                    "patching_rect": [ 669.0, 128.0, 89.0, 22.0 ],
                    "text": "counter 0 1000"
                }
            },
            {
                "box": {
                    "format": 6,
                    "id": "obj-48",
                    "maxclass": "flonum",
                    "numinlets": 1,
                    "numoutlets": 2,
                    "outlettype": [ "", "bang" ],
                    "parameter_enable": 0,
                    "patching_rect": [ 433.0, 682.0, 140.0, 22.0 ]
                }
            },
            {
                "box": {
                    "id": "obj-47",
                    "maxclass": "newobj",
                    "numinlets": 1,
                    "numoutlets": 2,
                    "outlettype": [ "", "" ],
                    "patching_rect": [ 416.0, 610.0, 96.0, 22.0 ],
                    "text": "jit.spill @plane 0"
                }
            },
            {
                "box": {
                    "id": "obj-46",
                    "maxclass": "comment",
                    "numinlets": 1,
                    "numoutlets": 0,
                    "patching_rect": [ 437.0, 658.0, 133.0, 20.0 ],
                    "text": "Number of atomicAdd()"
                }
            },
            {
                "box": {
                    "id": "obj-45",
                    "maxclass": "comment",
                    "numinlets": 1,
                    "numoutlets": 0,
                    "patching_rect": [ 628.0, 658.0, 184.0, 20.0 ],
                    "text": "Approx number of coveder pixels"
                }
            },
            {
                "box": {
                    "format": 6,
                    "id": "obj-43",
                    "maxclass": "flonum",
                    "numinlets": 1,
                    "numoutlets": 2,
                    "outlettype": [ "", "bang" ],
                    "parameter_enable": 0,
                    "patching_rect": [ 605.0, 682.0, 140.0, 22.0 ]
                }
            },
            {
                "box": {
                    "code": "out1 = ceil(PI * in1*in1);",
                    "fontface": 0,
                    "fontname": "<Monospaced>",
                    "fontsize": 12.0,
                    "id": "obj-40",
                    "maxclass": "gen.codebox",
                    "numinlets": 1,
                    "numoutlets": 1,
                    "outlettype": [ "float" ],
                    "patching_rect": [ 605.0, 443.0, 248.0, 59.0 ]
                }
            },
            {
                "box": {
                    "id": "obj-38",
                    "maxclass": "newobj",
                    "numinlets": 2,
                    "numoutlets": 3,
                    "outlettype": [ "", "jit_matrix", "" ],
                    "patching_rect": [ 403.0, 487.0, 87.0, 22.0 ],
                    "text": "jit.gpu.tomatrix"
                }
            },
            {
                "box": {
                    "id": "obj-32",
                    "maxclass": "newobj",
                    "numinlets": 1,
                    "numoutlets": 2,
                    "outlettype": [ "", "" ],
                    "patching_rect": [ 304.0, 106.0, 320.0, 22.0 ],
                    "text": "jit.gpu.image @dim 1 1 @format r32_uint @name heatImg"
                }
            },
            {
                "box": {
                    "id": "obj-31",
                    "maxclass": "newobj",
                    "numinlets": 1,
                    "numoutlets": 3,
                    "outlettype": [ "bang", "bang", "bang" ],
                    "patching_rect": [ 70.0, 356.0, 40.0, 22.0 ],
                    "text": "b 3"
                }
            },
            {
                "box": {
                    "id": "obj-19",
                    "maxclass": "newobj",
                    "numinlets": 2,
                    "numoutlets": 2,
                    "outlettype": [ "", "" ],
                    "patching_rect": [ 671.0, 340.0, 38.0, 22.0 ],
                    "text": "zl.reg"
                }
            },
            {
                "box": {
                    "id": "obj-7",
                    "maxclass": "newobj",
                    "numinlets": 2,
                    "numoutlets": 2,
                    "outlettype": [ "", "" ],
                    "patching_rect": [ 503.0, 336.0, 38.0, 22.0 ],
                    "text": "zl.reg"
                }
            },
            {
                "box": {
                    "id": "obj-2",
                    "maxclass": "newobj",
                    "numinlets": 1,
                    "numoutlets": 3,
                    "outlettype": [ "", "", "" ],
                    "patching_rect": [ 67.0, 692.0, 79.0, 22.0 ],
                    "text": "jit.gpu.submit"
                }
            },
            {
                "box": {
                    "id": "obj-42",
                    "maxclass": "newobj",
                    "numinlets": 1,
                    "numoutlets": 1,
                    "outlettype": [ "" ],
                    "patching_rect": [ 981.0, 505.0, 147.0, 22.0 ],
                    "text": "prepend param bufferSize"
                }
            },
            {
                "box": {
                    "id": "obj-37",
                    "maxclass": "message",
                    "numinlets": 2,
                    "numoutlets": 1,
                    "outlettype": [ "" ],
                    "patching_rect": [ 896.0, 580.0, 107.0, 22.0 ],
                    "text": "workgroups $1 1 1"
                }
            },
            {
                "box": {
                    "id": "obj-36",
                    "maxclass": "newobj",
                    "numinlets": 1,
                    "numoutlets": 1,
                    "outlettype": [ "" ],
                    "patching_rect": [ 896.0, 544.0, 139.0, 22.0 ],
                    "text": "expr int(ceil($f1 / 1024.))"
                }
            },
            {
                "box": {
                    "id": "obj-35",
                    "maxclass": "newobj",
                    "numinlets": 1,
                    "numoutlets": 2,
                    "outlettype": [ "", "" ],
                    "patching_rect": [ 1148.0, 547.0, 143.0, 22.0 ],
                    "text": "jit.gpu.buffer @name grid"
                }
            },
            {
                "box": {
                    "id": "obj-34",
                    "maxclass": "newobj",
                    "numinlets": 1,
                    "numoutlets": 1,
                    "outlettype": [ "" ],
                    "patching_rect": [ 1148.0, 505.0, 109.0, 22.0 ],
                    "text": "prepend allocitems"
                }
            },
            {
                "box": {
                    "id": "obj-30",
                    "maxclass": "newobj",
                    "numinlets": 1,
                    "numoutlets": 1,
                    "outlettype": [ "bang" ],
                    "patching_rect": [ 1046.0, 61.0, 58.0, 22.0 ],
                    "text": "loadbang"
                }
            },
            {
                "box": {
                    "id": "obj-29",
                    "maxclass": "message",
                    "numinlets": 2,
                    "numoutlets": 1,
                    "outlettype": [ "" ],
                    "patching_rect": [ 1273.0, 99.0, 35.0, 22.0 ],
                    "text": "1080"
                }
            },
            {
                "box": {
                    "id": "obj-21",
                    "maxclass": "message",
                    "numinlets": 2,
                    "numoutlets": 1,
                    "outlettype": [ "" ],
                    "patching_rect": [ 925.0, 139.0, 35.0, 22.0 ],
                    "text": "1920"
                }
            },
            {
                "box": {
                    "code": "w = in1; h = in2;\r\nnumIterations = ceil(log2(max(w,h)));\r\n\r\ndivisor = 1;\r\nlen = 0;\r\nfor(i = 0; i < numIterations; i+=1){\r\n   len += ceil(w*divisor) * ceil(h*divisor);\r\n   divisor /= 2; \r\n}\r\nout1 = len;\r\nout2 = numIterations;",
                    "fontface": 0,
                    "fontname": "<Monospaced>",
                    "fontsize": 12.0,
                    "id": "obj-6",
                    "maxclass": "gen.codebox",
                    "numinlets": 2,
                    "numoutlets": 2,
                    "outlettype": [ "float", "float" ],
                    "patching_rect": [ 925.0, 186.0, 479.0, 252.0 ]
                }
            },
            {
                "box": {
                    "id": "obj-18",
                    "maxclass": "button",
                    "numinlets": 1,
                    "numoutlets": 1,
                    "outlettype": [ "bang" ],
                    "parameter_enable": 0,
                    "patching_rect": [ 190.0, 313.0, 24.0, 24.0 ]
                }
            },
            {
                "box": {
                    "attr": "enable",
                    "id": "obj-5",
                    "maxclass": "attrui",
                    "numinlets": 1,
                    "numoutlets": 1,
                    "outlettype": [ "" ],
                    "parameter_enable": 0,
                    "patching_rect": [ 69.0, 284.0, 150.0, 22.0 ]
                }
            },
            {
                "box": {
                    "id": "obj-3",
                    "maxclass": "newobj",
                    "numinlets": 1,
                    "numoutlets": 2,
                    "outlettype": [ "", "" ],
                    "patching_rect": [ 69.0, 314.0, 109.0, 22.0 ],
                    "text": "jit.bang @enable 0"
                }
            },
            {
                "box": {
                    "id": "obj-28",
                    "maxclass": "newobj",
                    "numinlets": 1,
                    "numoutlets": 1,
                    "outlettype": [ "" ],
                    "patching_rect": [ 743.0, 194.0, 77.0, 22.0 ],
                    "text": "loadmess 25"
                }
            },
            {
                "box": {
                    "id": "obj-27",
                    "maxclass": "newobj",
                    "numinlets": 1,
                    "numoutlets": 1,
                    "outlettype": [ "" ],
                    "patching_rect": [ 550.0, 194.0, 83.0, 22.0 ],
                    "text": "loadmess 256"
                }
            },
            {
                "box": {
                    "format": 6,
                    "id": "obj-26",
                    "maxclass": "flonum",
                    "numinlets": 1,
                    "numoutlets": 2,
                    "outlettype": [ "", "bang" ],
                    "parameter_enable": 0,
                    "patching_rect": [ 676.0, 234.0, 50.0, 22.0 ]
                }
            },
            {
                "box": {
                    "id": "obj-25",
                    "maxclass": "newobj",
                    "numinlets": 1,
                    "numoutlets": 1,
                    "outlettype": [ "" ],
                    "patching_rect": [ 676.0, 300.0, 117.0, 22.0 ],
                    "text": "prepend particleRad"
                }
            },
            {
                "box": {
                    "id": "obj-24",
                    "maxclass": "newobj",
                    "numinlets": 1,
                    "numoutlets": 1,
                    "outlettype": [ "" ],
                    "patching_rect": [ 550.0, 300.0, 115.0, 22.0 ],
                    "text": "prepend particlePos"
                }
            },
            {
                "box": {
                    "format": 6,
                    "id": "obj-23",
                    "maxclass": "flonum",
                    "numinlets": 1,
                    "numoutlets": 2,
                    "outlettype": [ "", "bang" ],
                    "parameter_enable": 0,
                    "patching_rect": [ 605.0, 234.0, 50.0, 22.0 ]
                }
            },
            {
                "box": {
                    "format": 6,
                    "id": "obj-22",
                    "maxclass": "flonum",
                    "numinlets": 1,
                    "numoutlets": 2,
                    "outlettype": [ "", "bang" ],
                    "parameter_enable": 0,
                    "patching_rect": [ 550.0, 234.0, 50.0, 22.0 ]
                }
            },
            {
                "box": {
                    "id": "obj-20",
                    "maxclass": "newobj",
                    "numinlets": 2,
                    "numoutlets": 1,
                    "outlettype": [ "" ],
                    "patching_rect": [ 550.0, 268.0, 74.0, 22.0 ],
                    "text": "pak 0. 0."
                }
            },
            {
                "box": {
                    "id": "obj-17",
                    "maxclass": "newobj",
                    "numinlets": 1,
                    "numoutlets": 1,
                    "outlettype": [ "" ],
                    "patching_rect": [ 550.0, 375.0, 90.0, 22.0 ],
                    "text": "prepend param"
                }
            },
            {
                "box": {
                    "filename": "clearGridAtomics.jxs",
                    "id": "obj-16",
                    "maxclass": "newobj",
                    "numinlets": 3,
                    "numoutlets": 1,
                    "outlettype": [ "" ],
                    "patching_rect": [ 69.0, 443.0, 341.0, 22.0 ],
                    "text": "jit.gpu.compute @file clearGridAtomics.jxs @workgroups 1 1 1",
                    "textfile": {
                        "filename": "clearGridAtomics.jxs",
                        "flags": 0,
                        "embed": 0,
                        "autowatch": 1
                    }
                }
            },
            {
                "box": {
                    "filename": "clearCanvas.jxs",
                    "id": "obj-15",
                    "maxclass": "newobj",
                    "numinlets": 2,
                    "numoutlets": 1,
                    "outlettype": [ "" ],
                    "patching_rect": [ 69.0, 415.0, 330.0, 22.0 ],
                    "text": "jit.gpu.compute @file clearCanvas.jxs @workgroups 60 34 1",
                    "textfile": {
                        "filename": "clearCanvas.jxs",
                        "flags": 0,
                        "embed": 0,
                        "autowatch": 1
                    }
                }
            },
            {
                "box": {
                    "id": "obj-14",
                    "maxclass": "newobj",
                    "numinlets": 1,
                    "numoutlets": 2,
                    "outlettype": [ "", "" ],
                    "patching_rect": [ 103.0, 653.0, 201.0, 22.0 ],
                    "text": "jit.gl.videoplane @transform_reset 2"
                }
            },
            {
                "box": {
                    "filename": "combineLevelsAtomics.jxs",
                    "id": "obj-13",
                    "maxclass": "newobj",
                    "numinlets": 4,
                    "numoutlets": 1,
                    "outlettype": [ "" ],
                    "patching_rect": [ 67.0, 567.0, 386.0, 22.0 ],
                    "text": "jit.gpu.compute @file combineLevelsAtomics.jxs @workgroups 60 34 1",
                    "textfile": {
                        "filename": "combineLevelsAtomics.jxs",
                        "flags": 0,
                        "embed": 0,
                        "autowatch": 1
                    }
                }
            },
            {
                "box": {
                    "id": "obj-12",
                    "maxclass": "newobj",
                    "numinlets": 1,
                    "numoutlets": 2,
                    "outlettype": [ "jit_matrix", "" ],
                    "patching_rect": [ 69.0, 163.0, 163.0, 22.0 ],
                    "text": "jit.matrix 4 float32 1920 1080"
                }
            },
            {
                "box": {
                    "id": "obj-11",
                    "maxclass": "newobj",
                    "numinlets": 1,
                    "numoutlets": 2,
                    "outlettype": [ "", "" ],
                    "patching_rect": [ 69.0, 199.0, 395.0, 22.0 ],
                    "text": "jit.gpu.image @dim 1920 1080 @format rgba32_float @name renderImg"
                }
            },
            {
                "box": {
                    "id": "obj-10",
                    "maxclass": "newobj",
                    "numinlets": 2,
                    "numoutlets": 3,
                    "outlettype": [ "", "jit_gl_texture", "" ],
                    "patching_rect": [ 67.0, 618.0, 91.0, 22.0 ],
                    "text": "jit.gpu.totexture"
                }
            },
            {
                "box": {
                    "filename": "renderParticleAtomics.jxs",
                    "id": "obj-9",
                    "maxclass": "newobj",
                    "numinlets": 4,
                    "numoutlets": 1,
                    "outlettype": [ "" ],
                    "patching_rect": [ 69.0, 536.0, 367.0, 22.0 ],
                    "text": "jit.gpu.compute @file renderParticleAtomics.jxs @workgroups 1 1 1",
                    "textfile": {
                        "filename": "renderParticleAtomics.jxs",
                        "flags": 0,
                        "embed": 0,
                        "autowatch": 1
                    }
                }
            },
            {
                "box": {
                    "id": "obj-8",
                    "maxclass": "newobj",
                    "numinlets": 1,
                    "numoutlets": 1,
                    "outlettype": [ "bang" ],
                    "patching_rect": [ 69.0, 123.0, 58.0, 22.0 ],
                    "text": "loadbang"
                }
            },
            {
                "box": {
                    "id": "obj-1",
                    "maxclass": "newobj",
                    "numinlets": 1,
                    "numoutlets": 3,
                    "outlettype": [ "jit_matrix", "bang", "" ],
                    "patching_rect": [ 69.0, 71.0, 197.0, 22.0 ],
                    "text": "jit.world @floating 1 @size 960 540"
                }
            },
            {
                "box": {
                    "attr": "enable",
                    "id": "obj-4",
                    "maxclass": "attrui",
                    "numinlets": 1,
                    "numoutlets": 1,
                    "outlettype": [ "" ],
                    "parameter_enable": 0,
                    "patching_rect": [ 69.0, 41.0, 150.0, 22.0 ]
                }
            },
            {
                "box": {
                    "attr": "rangehi",
                    "id": "obj-64",
                    "maxclass": "attrui",
                    "numinlets": 1,
                    "numoutlets": 1,
                    "outlettype": [ "" ],
                    "parameter_enable": 0,
                    "patching_rect": [ 639.0, 904.0, 150.0, 22.0 ]
                }
            },
            {
                "box": {
                    "attr": "mode",
                    "id": "obj-68",
                    "maxclass": "attrui",
                    "numinlets": 1,
                    "numoutlets": 1,
                    "outlettype": [ "" ],
                    "parameter_enable": 0,
                    "patching_rect": [ 806.0, 931.0, 150.0, 22.0 ]
                }
            },
            {
                "box": {
                    "attr": "brgb",
                    "id": "obj-69",
                    "maxclass": "attrui",
                    "numinlets": 1,
                    "numoutlets": 1,
                    "outlettype": [ "" ],
                    "parameter_enable": 0,
                    "patching_rect": [ 717.0, 994.0, 252.0, 22.0 ]
                }
            },
            {
                "box": {
                    "attr": "dim",
                    "id": "obj-71",
                    "maxclass": "attrui",
                    "numinlets": 1,
                    "numoutlets": 1,
                    "outlettype": [ "" ],
                    "parameter_enable": 0,
                    "patching_rect": [ 664.0, 963.0, 252.0, 22.0 ]
                }
            },
            {
                "box": {
                    "angle": 270.0,
                    "arrow_orientation": 3,
                    "bgcolor": [ 1.0, 1.0, 1.0, 1.0 ],
                    "id": "obj-102",
                    "maxclass": "panel",
                    "mode": 0,
                    "numinlets": 1,
                    "numoutlets": 0,
                    "patching_rect": [ 198.285702586174, 1651.5714655220509, 523.428594827652, 6.857068955898285 ],
                    "proportion": 0.5,
                    "rounded": 0
                }
            },
            {
                "box": {
                    "angle": 270.0,
                    "bgcolor": [ 1.0, 1.0, 1.0, 1.0 ],
                    "id": "obj-96",
                    "maxclass": "panel",
                    "mode": 0,
                    "numinlets": 1,
                    "numoutlets": 0,
                    "patching_rect": [ 712.0, 1650.0, 32.0, 10.0 ],
                    "proportion": 0.5,
                    "shape": 3
                }
            }
        ],
        "lines": [
            {
                "patchline": {
                    "destination": [ "obj-14", 0 ],
                    "source": [ "obj-10", 1 ]
                }
            },
            {
                "patchline": {
                    "destination": [ "obj-2", 0 ],
                    "source": [ "obj-10", 0 ]
                }
            },
            {
                "patchline": {
                    "destination": [ "obj-104", 0 ],
                    "source": [ "obj-103", 0 ]
                }
            },
            {
                "patchline": {
                    "destination": [ "obj-107", 0 ],
                    "source": [ "obj-105", 0 ]
                }
            },
            {
                "patchline": {
                    "destination": [ "obj-106", 0 ],
                    "source": [ "obj-107", 0 ]
                }
            },
            {
                "patchline": {
                    "destination": [ "obj-10", 1 ],
                    "order": 2,
                    "source": [ "obj-11", 0 ]
                }
            },
            {
                "patchline": {
                    "destination": [ "obj-13", 2 ],
                    "order": 1,
                    "source": [ "obj-11", 0 ]
                }
            },
            {
                "patchline": {
                    "destination": [ "obj-15", 1 ],
                    "order": 0,
                    "source": [ "obj-11", 0 ]
                }
            },
            {
                "patchline": {
                    "destination": [ "obj-11", 0 ],
                    "source": [ "obj-12", 0 ]
                }
            },
            {
                "patchline": {
                    "destination": [ "obj-10", 0 ],
                    "source": [ "obj-13", 0 ]
                }
            },
            {
                "patchline": {
                    "destination": [ "obj-16", 0 ],
                    "source": [ "obj-15", 0 ]
                }
            },
            {
                "patchline": {
                    "destination": [ "obj-38", 0 ],
                    "source": [ "obj-16", 0 ]
                }
            },
            {
                "patchline": {
                    "destination": [ "obj-9", 0 ],
                    "source": [ "obj-17", 0 ]
                }
            },
            {
                "patchline": {
                    "destination": [ "obj-31", 0 ],
                    "source": [ "obj-18", 0 ]
                }
            },
            {
                "patchline": {
                    "destination": [ "obj-17", 0 ],
                    "source": [ "obj-19", 0 ]
                }
            },
            {
                "patchline": {
                    "destination": [ "obj-24", 0 ],
                    "source": [ "obj-20", 0 ]
                }
            },
            {
                "patchline": {
                    "destination": [ "obj-6", 0 ],
                    "source": [ "obj-21", 0 ]
                }
            },
            {
                "patchline": {
                    "destination": [ "obj-20", 0 ],
                    "source": [ "obj-22", 0 ]
                }
            },
            {
                "patchline": {
                    "destination": [ "obj-20", 1 ],
                    "source": [ "obj-23", 0 ]
                }
            },
            {
                "patchline": {
                    "destination": [ "obj-7", 1 ],
                    "source": [ "obj-24", 0 ]
                }
            },
            {
                "patchline": {
                    "destination": [ "obj-19", 1 ],
                    "source": [ "obj-25", 0 ]
                }
            },
            {
                "patchline": {
                    "destination": [ "obj-25", 0 ],
                    "order": 0,
                    "source": [ "obj-26", 0 ]
                }
            },
            {
                "patchline": {
                    "destination": [ "obj-40", 0 ],
                    "order": 1,
                    "source": [ "obj-26", 0 ]
                }
            },
            {
                "patchline": {
                    "destination": [ "obj-22", 0 ],
                    "order": 1,
                    "source": [ "obj-27", 0 ]
                }
            },
            {
                "patchline": {
                    "destination": [ "obj-23", 0 ],
                    "order": 0,
                    "source": [ "obj-27", 0 ]
                }
            },
            {
                "patchline": {
                    "destination": [ "obj-26", 0 ],
                    "source": [ "obj-28", 0 ]
                }
            },
            {
                "patchline": {
                    "destination": [ "obj-6", 1 ],
                    "source": [ "obj-29", 0 ]
                }
            },
            {
                "patchline": {
                    "destination": [ "obj-31", 0 ],
                    "source": [ "obj-3", 0 ]
                }
            },
            {
                "patchline": {
                    "destination": [ "obj-21", 0 ],
                    "order": 1,
                    "source": [ "obj-30", 0 ]
                }
            },
            {
                "patchline": {
                    "destination": [ "obj-29", 0 ],
                    "order": 0,
                    "source": [ "obj-30", 0 ]
                }
            },
            {
                "patchline": {
                    "destination": [ "obj-15", 0 ],
                    "source": [ "obj-31", 0 ]
                }
            },
            {
                "patchline": {
                    "destination": [ "obj-19", 0 ],
                    "order": 0,
                    "source": [ "obj-31", 1 ]
                }
            },
            {
                "patchline": {
                    "destination": [ "obj-60", 0 ],
                    "source": [ "obj-31", 2 ]
                }
            },
            {
                "patchline": {
                    "destination": [ "obj-7", 0 ],
                    "order": 1,
                    "source": [ "obj-31", 1 ]
                }
            },
            {
                "patchline": {
                    "destination": [ "obj-38", 1 ],
                    "order": 0,
                    "source": [ "obj-32", 0 ]
                }
            },
            {
                "patchline": {
                    "destination": [ "obj-9", 2 ],
                    "order": 1,
                    "source": [ "obj-32", 0 ]
                }
            },
            {
                "patchline": {
                    "destination": [ "obj-35", 0 ],
                    "source": [ "obj-34", 0 ]
                }
            },
            {
                "patchline": {
                    "destination": [ "obj-13", 1 ],
                    "order": 1,
                    "source": [ "obj-35", 0 ]
                }
            },
            {
                "patchline": {
                    "destination": [ "obj-16", 1 ],
                    "order": 0,
                    "source": [ "obj-35", 0 ]
                }
            },
            {
                "patchline": {
                    "destination": [ "obj-9", 1 ],
                    "order": 2,
                    "source": [ "obj-35", 0 ]
                }
            },
            {
                "patchline": {
                    "destination": [ "obj-37", 0 ],
                    "source": [ "obj-36", 0 ]
                }
            },
            {
                "patchline": {
                    "destination": [ "obj-16", 0 ],
                    "source": [ "obj-37", 0 ]
                }
            },
            {
                "patchline": {
                    "destination": [ "obj-47", 0 ],
                    "source": [ "obj-38", 1 ]
                }
            },
            {
                "patchline": {
                    "destination": [ "obj-9", 0 ],
                    "source": [ "obj-38", 0 ]
                }
            },
            {
                "patchline": {
                    "destination": [ "obj-1", 0 ],
                    "source": [ "obj-4", 0 ]
                }
            },
            {
                "patchline": {
                    "destination": [ "obj-43", 0 ],
                    "source": [ "obj-40", 0 ]
                }
            },
            {
                "patchline": {
                    "destination": [ "obj-13", 0 ],
                    "order": 1,
                    "source": [ "obj-42", 0 ]
                }
            },
            {
                "patchline": {
                    "destination": [ "obj-16", 0 ],
                    "order": 0,
                    "source": [ "obj-42", 0 ]
                }
            },
            {
                "patchline": {
                    "destination": [ "obj-103", 0 ],
                    "order": 1,
                    "source": [ "obj-43", 0 ]
                }
            },
            {
                "patchline": {
                    "destination": [ "obj-105", 0 ],
                    "order": 0,
                    "source": [ "obj-43", 0 ]
                }
            },
            {
                "patchline": {
                    "destination": [ "obj-54", 1 ],
                    "order": 2,
                    "source": [ "obj-43", 0 ]
                }
            },
            {
                "patchline": {
                    "destination": [ "obj-48", 0 ],
                    "source": [ "obj-47", 0 ]
                }
            },
            {
                "patchline": {
                    "destination": [ "obj-54", 0 ],
                    "source": [ "obj-48", 0 ]
                }
            },
            {
                "patchline": {
                    "destination": [ "obj-55", 0 ],
                    "source": [ "obj-49", 0 ]
                }
            },
            {
                "patchline": {
                    "destination": [ "obj-3", 0 ],
                    "source": [ "obj-5", 0 ]
                }
            },
            {
                "patchline": {
                    "destination": [ "obj-58", 0 ],
                    "order": 1,
                    "source": [ "obj-50", 0 ]
                }
            },
            {
                "patchline": {
                    "destination": [ "obj-63", 0 ],
                    "order": 0,
                    "source": [ "obj-50", 0 ]
                }
            },
            {
                "patchline": {
                    "destination": [ "obj-72", 0 ],
                    "order": 2,
                    "source": [ "obj-50", 0 ]
                }
            },
            {
                "patchline": {
                    "destination": [ "obj-49", 0 ],
                    "source": [ "obj-51", 0 ]
                }
            },
            {
                "patchline": {
                    "destination": [ "obj-51", 0 ],
                    "source": [ "obj-53", 0 ]
                }
            },
            {
                "patchline": {
                    "destination": [ "obj-57", 0 ],
                    "source": [ "obj-54", 0 ]
                }
            },
            {
                "patchline": {
                    "destination": [ "obj-54", 2 ],
                    "source": [ "obj-55", 1 ]
                }
            },
            {
                "patchline": {
                    "destination": [ "obj-66", 0 ],
                    "source": [ "obj-55", 0 ]
                }
            },
            {
                "patchline": {
                    "destination": [ "obj-50", 0 ],
                    "source": [ "obj-57", 0 ]
                }
            },
            {
                "patchline": {
                    "destination": [ "obj-34", 0 ],
                    "order": 0,
                    "source": [ "obj-6", 0 ]
                }
            },
            {
                "patchline": {
                    "destination": [ "obj-36", 0 ],
                    "order": 2,
                    "source": [ "obj-6", 0 ]
                }
            },
            {
                "patchline": {
                    "destination": [ "obj-42", 0 ],
                    "order": 1,
                    "source": [ "obj-6", 0 ]
                }
            },
            {
                "patchline": {
                    "destination": [ "obj-50", 0 ],
                    "source": [ "obj-60", 0 ]
                }
            },
            {
                "patchline": {
                    "destination": [ "obj-61", 0 ],
                    "order": 0,
                    "source": [ "obj-63", 0 ]
                }
            },
            {
                "patchline": {
                    "destination": [ "obj-75", 1 ],
                    "order": 1,
                    "source": [ "obj-63", 0 ]
                }
            },
            {
                "patchline": {
                    "destination": [ "obj-63", 0 ],
                    "order": 0,
                    "source": [ "obj-64", 0 ]
                }
            },
            {
                "patchline": {
                    "destination": [ "obj-73", 0 ],
                    "order": 1,
                    "source": [ "obj-64", 0 ]
                }
            },
            {
                "patchline": {
                    "destination": [ "obj-63", 0 ],
                    "order": 0,
                    "source": [ "obj-65", 0 ]
                }
            },
            {
                "patchline": {
                    "destination": [ "obj-73", 0 ],
                    "order": 1,
                    "source": [ "obj-65", 0 ]
                }
            },
            {
                "patchline": {
                    "destination": [ "obj-26", 0 ],
                    "source": [ "obj-66", 0 ]
                }
            },
            {
                "patchline": {
                    "destination": [ "obj-63", 0 ],
                    "order": 0,
                    "source": [ "obj-68", 0 ]
                }
            },
            {
                "patchline": {
                    "destination": [ "obj-73", 0 ],
                    "order": 1,
                    "source": [ "obj-68", 0 ]
                }
            },
            {
                "patchline": {
                    "destination": [ "obj-63", 0 ],
                    "order": 0,
                    "source": [ "obj-69", 0 ]
                }
            },
            {
                "patchline": {
                    "destination": [ "obj-73", 0 ],
                    "order": 1,
                    "source": [ "obj-69", 0 ]
                }
            },
            {
                "patchline": {
                    "destination": [ "obj-17", 0 ],
                    "source": [ "obj-7", 0 ]
                }
            },
            {
                "patchline": {
                    "destination": [ "obj-63", 0 ],
                    "source": [ "obj-71", 0 ]
                }
            },
            {
                "patchline": {
                    "destination": [ "obj-63", 0 ],
                    "source": [ "obj-72", 1 ]
                }
            },
            {
                "patchline": {
                    "destination": [ "obj-73", 0 ],
                    "source": [ "obj-72", 0 ]
                }
            },
            {
                "patchline": {
                    "destination": [ "obj-75", 0 ],
                    "source": [ "obj-73", 0 ]
                }
            },
            {
                "patchline": {
                    "destination": [ "obj-63", 0 ],
                    "order": 0,
                    "source": [ "obj-76", 0 ]
                }
            },
            {
                "patchline": {
                    "destination": [ "obj-73", 0 ],
                    "order": 1,
                    "source": [ "obj-76", 0 ]
                }
            },
            {
                "patchline": {
                    "destination": [ "obj-12", 0 ],
                    "source": [ "obj-8", 0 ]
                }
            },
            {
                "patchline": {
                    "destination": [ "obj-13", 0 ],
                    "source": [ "obj-9", 0 ]
                }
            }
        ],
        "parameters": {
            "parameterbanks": {
                "0": {
                    "index": 0,
                    "name": "",
                    "parameters": [ "-", "-", "-", "-", "-", "-", "-", "-" ],
                    "buttons": [ "-", "-", "-", "-", "-", "-", "-", "-" ]
                }
            },
            "inherited_shortname": 1
        },
        "autosave": 0
    }
}