{
    "patcher": {
        "fileversion": 1,
        "appversion": {
            "major": 9,
            "minor": 2,
            "revision": 0,
            "architecture": "x64",
            "modernui": 1
        },
        "classnamespace": "box",
        "rect": [ 34.0, 100.0, 1351.0, 893.0 ],
        "boxes": [
            {
                "box": {
                    "id": "obj-8",
                    "maxclass": "comment",
                    "numinlets": 1,
                    "numoutlets": 0,
                    "patching_rect": [ 76.0, 37.0, 85.0, 20.0 ],
                    "text": "1) run the FFT"
                }
            },
            {
                "box": {
                    "cols": 338648,
                    "fontface": 0,
                    "fontname": "Arial",
                    "fontsize": 12.0,
                    "id": "obj-4",
                    "maxclass": "jit.cellblock",
                    "numinlets": 2,
                    "numoutlets": 4,
                    "outlettype": [ "list", "", "", "" ],
                    "patching_rect": [ 189.0, 399.0, 879.25, 51.0 ],
                    "rows": 1
                }
            },
            {
                "box": {
                    "bgcolor": [ 0.115, 0.115, 0.115, 0.0 ],
                    "buffername": "test",
                    "id": "obj-6",
                    "maxclass": "waveform~",
                    "numinlets": 5,
                    "numoutlets": 6,
                    "outlettype": [ "float", "float", "float", "float", "list", "" ],
                    "patching_rect": [ 139.0, 555.0, 928.5, 514.0 ],
                    "vzoom": 4.401000022888184,
                    "waveformcolor": [ 0.12156862745098039, 0.27450980392156865, 0.5568627450980392, 0.63 ]
                }
            },
            {
                "box": {
                    "id": "obj-5",
                    "maxclass": "newobj",
                    "numinlets": 1,
                    "numoutlets": 1,
                    "outlettype": [ "bang" ],
                    "patching_rect": [ 392.0, 16.0, 58.0, 22.0 ],
                    "text": "loadbang"
                }
            },
            {
                "box": {
                    "id": "obj-3",
                    "maxclass": "newobj",
                    "numinlets": 2,
                    "numoutlets": 1,
                    "outlettype": [ "float" ],
                    "patching_rect": [ 442.0, 233.0, 39.0, 22.0 ],
                    "text": "* 1."
                }
            },
            {
                "box": {
                    "id": "obj-2",
                    "maxclass": "newobj",
                    "numinlets": 2,
                    "numoutlets": 1,
                    "outlettype": [ "float" ],
                    "patching_rect": [ 462.0, 169.0, 47.0, 22.0 ],
                    "text": "* 0.001"
                }
            },
            {
                "box": {
                    "fontface": 0,
                    "fontname": "Arial",
                    "fontsize": 12.0,
                    "id": "obj-91",
                    "maxclass": "jit.fpsgui",
                    "mode": 3,
                    "numinlets": 1,
                    "numoutlets": 2,
                    "outlettype": [ "", "" ],
                    "patching_rect": [ 187.0, 287.0, 80.0, 35.0 ]
                }
            },
            {
                "box": {
                    "id": "obj-114",
                    "maxclass": "message",
                    "numinlets": 2,
                    "numoutlets": 1,
                    "outlettype": [ "" ],
                    "patching_rect": [ 238.0, 250.0, 95.0, 22.0 ],
                    "text": "matrix_name $2"
                }
            },
            {
                "box": {
                    "id": "obj-116",
                    "maxclass": "newobj",
                    "numinlets": 2,
                    "numoutlets": 1,
                    "outlettype": [ "signal" ],
                    "patching_rect": [ 377.0, 262.0, 84.0, 22.0 ],
                    "text": "*~ 44100"
                }
            },
            {
                "box": {
                    "id": "obj-117",
                    "maxclass": "newobj",
                    "numinlets": 2,
                    "numoutlets": 1,
                    "outlettype": [ "signal" ],
                    "patching_rect": [ 377.0, 233.0, 62.0, 22.0 ],
                    "text": "phasor~ 1"
                }
            },
            {
                "box": {
                    "id": "obj-118",
                    "maxclass": "newobj",
                    "numinlets": 2,
                    "numoutlets": 0,
                    "patching_rect": [ 377.0, 366.0, 35.0, 22.0 ],
                    "text": "dac~"
                }
            },
            {
                "box": {
                    "id": "obj-119",
                    "maxclass": "newobj",
                    "numinlets": 1,
                    "numoutlets": 2,
                    "outlettype": [ "signal", "" ],
                    "patching_rect": [ 377.0, 319.0, 149.0, 22.0 ],
                    "text": "jit.peek~ foo 1 0 @interp 1"
                }
            },
            {
                "box": {
                    "id": "obj-120",
                    "maxclass": "newobj",
                    "numinlets": 1,
                    "numoutlets": 2,
                    "outlettype": [ "jit_matrix", "" ],
                    "patching_rect": [ 158.0, 243.0, 53.0, 22.0 ],
                    "text": "jit.matrix"
                }
            },
            {
                "box": {
                    "id": "obj-121",
                    "maxclass": "newobj",
                    "numinlets": 1,
                    "numoutlets": 2,
                    "outlettype": [ "jit_matrix", "" ],
                    "patching_rect": [ 158.0, 214.0, 114.0, 22.0 ],
                    "text": "jit.coerce 1 float32"
                }
            },
            {
                "box": {
                    "id": "obj-124",
                    "maxclass": "newobj",
                    "numinlets": 1,
                    "numoutlets": 2,
                    "outlettype": [ "jit_matrix", "" ],
                    "patching_rect": [ 158.0, 185.0, 57.0, 22.0 ],
                    "text": "jit.matrix"
                }
            },
            {
                "box": {
                    "depthbuffer": 1,
                    "doublebuffer": 1,
                    "fsaa": 0,
                    "id": "obj-89",
                    "maxclass": "jit.pwindow",
                    "numinlets": 1,
                    "numoutlets": 2,
                    "outlettype": [ "jit_matrix", "" ],
                    "patching_rect": [ 138.75, 452.0, 929.5, 101.0 ],
                    "stereo": 0,
                    "sync": 1
                }
            },
            {
                "box": {
                    "id": "obj-78",
                    "maxclass": "newobj",
                    "numinlets": 2,
                    "numoutlets": 3,
                    "outlettype": [ "", "jit_matrix", "" ],
                    "patching_rect": [ 50.0, 150.0, 87.0, 22.0 ],
                    "text": "jit.gpu.tomatrix"
                }
            },
            {
                "box": {
                    "id": "obj-76",
                    "maxclass": "newobj",
                    "numinlets": 1,
                    "numoutlets": 3,
                    "outlettype": [ "", "", "" ],
                    "patching_rect": [ 50.0, 195.0, 79.0, 22.0 ],
                    "text": "jit.gpu.submit"
                }
            },
            {
                "box": {
                    "depthbuffer": 1,
                    "doublebuffer": 1,
                    "fsaa": 0,
                    "id": "obj-60",
                    "maxclass": "jit.pwindow",
                    "numinlets": 1,
                    "numoutlets": 2,
                    "outlettype": [ "jit_matrix", "" ],
                    "patching_rect": [ 139.0, 555.0, 929.0, 514.0 ],
                    "stereo": 0,
                    "sync": 1
                }
            },
            {
                "box": {
                    "id": "obj-52",
                    "maxclass": "newobj",
                    "numinlets": 2,
                    "numoutlets": 3,
                    "outlettype": [ "", "jit_matrix", "" ],
                    "patching_rect": [ 50.0, 110.0, 196.0, 22.0 ],
                    "text": "jit.gpu.tomatrix"
                }
            },
            {
                "box": {
                    "id": "obj-90",
                    "maxclass": "button",
                    "numinlets": 1,
                    "numoutlets": 1,
                    "outlettype": [ "bang" ],
                    "parameter_enable": 0,
                    "patching_rect": [ 50.0, 35.0, 24.0, 24.0 ]
                }
            },
            {
                "box": {
                    "filename": "compute-FFT.js",
                    "id": "obj-81",
                    "maxclass": "newobj",
                    "numinlets": 1,
                    "numoutlets": 3,
                    "outlettype": [ "", "", "" ],
                    "patching_rect": [ 50.0, 71.0, 155.0, 22.0 ],
                    "saved_object_attributes": {
                        "parameter_enable": 0
                    },
                    "text": "v8 compute-FFT.js",
                    "textfile": {
                        "filename": "compute-FFT.js",
                        "flags": 0,
                        "embed": 0,
                        "autowatch": 1
                    }
                }
            },
            {
                "box": {
                    "id": "obj-93",
                    "maxclass": "newobj",
                    "numinlets": 2,
                    "numoutlets": 1,
                    "outlettype": [ "float" ],
                    "patching_rect": [ 377.0, 169.0, 49.0, 22.0 ],
                    "text": "!/ 1000."
                }
            },
            {
                "box": {
                    "id": "obj-94",
                    "maxclass": "newobj",
                    "numinlets": 1,
                    "numoutlets": 10,
                    "outlettype": [ "float", "list", "float", "float", "float", "float", "float", "", "int", "" ],
                    "patching_rect": [ 442.0, 110.0, 113.5, 22.0 ],
                    "text": "info~ test"
                }
            },
            {
                "box": {
                    "id": "obj-14",
                    "maxclass": "message",
                    "numinlets": 2,
                    "numoutlets": 1,
                    "outlettype": [ "" ],
                    "patching_rect": [ 392.0, 44.0, 117.0, 22.0 ],
                    "text": "replace prim.loop.aif"
                }
            },
            {
                "box": {
                    "id": "obj-1",
                    "maxclass": "newobj",
                    "numinlets": 1,
                    "numoutlets": 2,
                    "outlettype": [ "float", "bang" ],
                    "patching_rect": [ 392.0, 76.0, 69.0, 22.0 ],
                    "text": "buffer~ test"
                }
            }
        ],
        "lines": [
            {
                "patchline": {
                    "destination": [ "obj-94", 0 ],
                    "source": [ "obj-1", 1 ]
                }
            },
            {
                "patchline": {
                    "destination": [ "obj-119", 0 ],
                    "source": [ "obj-114", 0 ]
                }
            },
            {
                "patchline": {
                    "destination": [ "obj-119", 0 ],
                    "source": [ "obj-116", 0 ]
                }
            },
            {
                "patchline": {
                    "destination": [ "obj-116", 0 ],
                    "source": [ "obj-117", 0 ]
                }
            },
            {
                "patchline": {
                    "destination": [ "obj-118", 1 ],
                    "order": 0,
                    "source": [ "obj-119", 0 ]
                }
            },
            {
                "patchline": {
                    "destination": [ "obj-118", 0 ],
                    "order": 1,
                    "source": [ "obj-119", 0 ]
                }
            },
            {
                "patchline": {
                    "destination": [ "obj-114", 0 ],
                    "order": 0,
                    "source": [ "obj-120", 0 ]
                }
            },
            {
                "patchline": {
                    "destination": [ "obj-4", 0 ],
                    "order": 1,
                    "source": [ "obj-120", 0 ]
                }
            },
            {
                "patchline": {
                    "destination": [ "obj-89", 0 ],
                    "order": 3,
                    "source": [ "obj-120", 0 ]
                }
            },
            {
                "patchline": {
                    "destination": [ "obj-91", 0 ],
                    "order": 2,
                    "source": [ "obj-120", 0 ]
                }
            },
            {
                "patchline": {
                    "destination": [ "obj-120", 0 ],
                    "source": [ "obj-121", 0 ]
                }
            },
            {
                "patchline": {
                    "destination": [ "obj-121", 0 ],
                    "source": [ "obj-124", 0 ]
                }
            },
            {
                "patchline": {
                    "destination": [ "obj-1", 0 ],
                    "source": [ "obj-14", 0 ]
                }
            },
            {
                "patchline": {
                    "destination": [ "obj-3", 1 ],
                    "source": [ "obj-2", 0 ]
                }
            },
            {
                "patchline": {
                    "destination": [ "obj-116", 1 ],
                    "source": [ "obj-3", 0 ]
                }
            },
            {
                "patchline": {
                    "destination": [ "obj-14", 0 ],
                    "source": [ "obj-5", 0 ]
                }
            },
            {
                "patchline": {
                    "destination": [ "obj-60", 0 ],
                    "source": [ "obj-52", 1 ]
                }
            },
            {
                "patchline": {
                    "destination": [ "obj-78", 0 ],
                    "source": [ "obj-52", 0 ]
                }
            },
            {
                "patchline": {
                    "destination": [ "obj-124", 0 ],
                    "source": [ "obj-78", 1 ]
                }
            },
            {
                "patchline": {
                    "destination": [ "obj-76", 0 ],
                    "source": [ "obj-78", 0 ]
                }
            },
            {
                "patchline": {
                    "destination": [ "obj-52", 1 ],
                    "source": [ "obj-81", 2 ]
                }
            },
            {
                "patchline": {
                    "destination": [ "obj-52", 0 ],
                    "source": [ "obj-81", 0 ]
                }
            },
            {
                "patchline": {
                    "destination": [ "obj-78", 1 ],
                    "source": [ "obj-81", 1 ]
                }
            },
            {
                "patchline": {
                    "destination": [ "obj-81", 0 ],
                    "source": [ "obj-90", 0 ]
                }
            },
            {
                "patchline": {
                    "destination": [ "obj-117", 0 ],
                    "source": [ "obj-93", 0 ]
                }
            },
            {
                "patchline": {
                    "destination": [ "obj-2", 0 ],
                    "order": 0,
                    "source": [ "obj-94", 6 ]
                }
            },
            {
                "patchline": {
                    "destination": [ "obj-3", 0 ],
                    "source": [ "obj-94", 0 ]
                }
            },
            {
                "patchline": {
                    "destination": [ "obj-93", 0 ],
                    "order": 1,
                    "source": [ "obj-94", 6 ]
                }
            }
        ],
        "autosave": 0
    }
}