{
    "patcher": {
        "fileversion": 1,
        "appversion": {
            "major": 9,
            "minor": 1,
            "revision": 1,
            "architecture": "x64",
            "modernui": 1
        },
        "classnamespace": "box",
        "rect": [ 168.0, 117.0, 1000.0, 780.0 ],
        "boxes": [
            {
                "box": {
                    "attr": "radius",
                    "id": "obj-2",
                    "maxclass": "attrui",
                    "numinlets": 1,
                    "numoutlets": 1,
                    "outlettype": [ "" ],
                    "parameter_enable": 0,
                    "patching_rect": [ 281.0, 722.0, 158.0, 22.0 ]
                }
            },
            {
                "box": {
                    "id": "obj-3",
                    "maxclass": "message",
                    "numinlets": 2,
                    "numoutlets": 1,
                    "outlettype": [ "" ],
                    "patching_rect": [ 693.0, 240.0, 68.0, 22.0 ],
                    "text": "anim_reset"
                }
            },
            {
                "box": {
                    "id": "obj-29",
                    "maxclass": "newobj",
                    "numinlets": 1,
                    "numoutlets": 2,
                    "outlettype": [ "", "" ],
                    "patching_rect": [ 877.5, 729.0, 47.0, 22.0 ],
                    "text": "jit.bang"
                }
            },
            {
                "box": {
                    "id": "obj-24",
                    "maxclass": "button",
                    "numinlets": 1,
                    "numoutlets": 1,
                    "outlettype": [ "bang" ],
                    "parameter_enable": 0,
                    "patching_rect": [ 283.0, 67.0, 24.0, 24.0 ]
                }
            },
            {
                "box": {
                    "filename": "transformPositions.jxs",
                    "id": "obj-27",
                    "maxclass": "newobj",
                    "numinlets": 5,
                    "numoutlets": 5,
                    "outlettype": [ "", "", "", "", "" ],
                    "patching_rect": [ 600.0, 801.0, 389.0, 22.0 ],
                    "text": "jit.gpu.compute @file transformPositions.jxs @threads 8 8 1 @radius 1.",
                    "textfile": {
                        "filename": "transformPositions.jxs",
                        "flags": 0,
                        "embed": 0,
                        "autowatch": 1
                    }
                }
            },
            {
                "box": {
                    "filename": "initCanvas.jxs",
                    "id": "obj-25",
                    "maxclass": "newobj",
                    "numinlets": 2,
                    "numoutlets": 2,
                    "outlettype": [ "", "" ],
                    "patching_rect": [ 877.5, 762.0, 297.0, 22.0 ],
                    "text": "jit.gpu.compute @file initCanvas.jxs @threads 60 34 1",
                    "textfile": {
                        "filename": "initCanvas.jxs",
                        "flags": 0,
                        "embed": 0,
                        "autowatch": 1
                    }
                }
            },
            {
                "box": {
                    "id": "obj-23",
                    "maxclass": "newobj",
                    "numinlets": 1,
                    "numoutlets": 1,
                    "outlettype": [ "" ],
                    "patching_rect": [ 603.0, 665.0, 90.0, 22.0 ],
                    "text": "prepend param"
                }
            },
            {
                "box": {
                    "id": "obj-78",
                    "maxclass": "comment",
                    "numinlets": 1,
                    "numoutlets": 0,
                    "patching_rect": [ 78.0, 631.0, 46.0, 20.0 ],
                    "text": "color"
                }
            },
            {
                "box": {
                    "id": "obj-79",
                    "maxclass": "newobj",
                    "numinlets": 1,
                    "numoutlets": 1,
                    "outlettype": [ "" ],
                    "patching_rect": [ 19.0, 591.0, 80.0, 22.0 ],
                    "text": "loadmess 0.2"
                }
            },
            {
                "box": {
                    "format": 6,
                    "id": "obj-80",
                    "maxclass": "flonum",
                    "numinlets": 1,
                    "numoutlets": 2,
                    "outlettype": [ "", "bang" ],
                    "parameter_enable": 0,
                    "patching_rect": [ 19.0, 630.0, 57.0, 22.0 ]
                }
            },
            {
                "box": {
                    "id": "obj-81",
                    "maxclass": "message",
                    "numinlets": 2,
                    "numoutlets": 1,
                    "outlettype": [ "" ],
                    "patching_rect": [ 19.0, 675.0, 71.0, 22.0 ],
                    "text": "set color $1"
                }
            },
            {
                "box": {
                    "id": "obj-42",
                    "maxclass": "newobj",
                    "numinlets": 1,
                    "numoutlets": 3,
                    "outlettype": [ "", "", "" ],
                    "patching_rect": [ 1346.0, 525.0, 212.0, 22.0 ],
                    "text": "t l l l"
                }
            },
            {
                "box": {
                    "id": "obj-76",
                    "maxclass": "message",
                    "numinlets": 2,
                    "numoutlets": 1,
                    "outlettype": [ "" ],
                    "patching_rect": [ 128.0, 446.0, 133.0, 22.0 ],
                    "text": "set focalAperture $1 $2"
                }
            },
            {
                "box": {
                    "id": "obj-41",
                    "maxclass": "newobj",
                    "numinlets": 2,
                    "numoutlets": 1,
                    "outlettype": [ "" ],
                    "patching_rect": [ 128.0, 412.0, 41.0, 22.0 ],
                    "text": "pak f f"
                }
            },
            {
                "box": {
                    "id": "obj-73",
                    "maxclass": "comment",
                    "numinlets": 1,
                    "numoutlets": 0,
                    "patching_rect": [ 297.0, 364.0, 53.0, 20.0 ],
                    "text": "aperture"
                }
            },
            {
                "box": {
                    "id": "obj-74",
                    "maxclass": "newobj",
                    "numinlets": 1,
                    "numoutlets": 1,
                    "outlettype": [ "" ],
                    "patching_rect": [ 243.0, 324.0, 77.0, 22.0 ],
                    "text": "loadmess 10"
                }
            },
            {
                "box": {
                    "format": 6,
                    "id": "obj-75",
                    "maxclass": "flonum",
                    "numinlets": 1,
                    "numoutlets": 2,
                    "outlettype": [ "", "bang" ],
                    "parameter_enable": 0,
                    "patching_rect": [ 243.0, 363.0, 50.0, 22.0 ]
                }
            },
            {
                "box": {
                    "id": "obj-68",
                    "linecount": 2,
                    "maxclass": "comment",
                    "numinlets": 1,
                    "numoutlets": 0,
                    "patching_rect": [ 184.0, 357.0, 57.0, 33.0 ],
                    "text": "focal distance"
                }
            },
            {
                "box": {
                    "id": "obj-70",
                    "maxclass": "newobj",
                    "numinlets": 1,
                    "numoutlets": 1,
                    "outlettype": [ "" ],
                    "patching_rect": [ 128.0, 324.0, 70.0, 22.0 ],
                    "text": "loadmess 2"
                }
            },
            {
                "box": {
                    "format": 6,
                    "id": "obj-71",
                    "maxclass": "flonum",
                    "numinlets": 1,
                    "numoutlets": 2,
                    "outlettype": [ "", "bang" ],
                    "parameter_enable": 0,
                    "patching_rect": [ 128.0, 363.0, 50.0, 22.0 ]
                }
            },
            {
                "box": {
                    "id": "obj-51",
                    "maxclass": "newobj",
                    "numinlets": 1,
                    "numoutlets": 1,
                    "outlettype": [ "" ],
                    "patching_rect": [ 969.0, 573.0, 75.0, 22.0 ],
                    "text": "prepend eye"
                }
            },
            {
                "box": {
                    "id": "obj-39",
                    "maxclass": "newobj",
                    "numinlets": 1,
                    "numoutlets": 2,
                    "outlettype": [ "", "" ],
                    "patching_rect": [ 1346.0, 646.0, 426.0, 22.0 ],
                    "text": "jit.gpu.image @format RGBA32_FLOAT @dim 256 256 1 @name prevPosImg"
                }
            },
            {
                "box": {
                    "id": "obj-48",
                    "maxclass": "comment",
                    "numinlets": 1,
                    "numoutlets": 0,
                    "patching_rect": [ 1288.0, 337.0, 113.0, 20.0 ],
                    "text": "Number of particles"
                }
            },
            {
                "box": {
                    "id": "obj-46",
                    "maxclass": "newobj",
                    "numinlets": 1,
                    "numoutlets": 1,
                    "outlettype": [ "" ],
                    "patching_rect": [ 1234.0, 295.0, 83.0, 22.0 ],
                    "text": "loadmess 256"
                }
            },
            {
                "box": {
                    "id": "obj-45",
                    "maxclass": "newobj",
                    "numinlets": 1,
                    "numoutlets": 1,
                    "outlettype": [ "" ],
                    "patching_rect": [ 1234.0, 487.0, 96.0, 22.0 ],
                    "text": "prepend threads"
                }
            },
            {
                "box": {
                    "id": "obj-44",
                    "maxclass": "newobj",
                    "numinlets": 3,
                    "numoutlets": 1,
                    "outlettype": [ "" ],
                    "patching_rect": [ 1234.0, 448.0, 56.0, 22.0 ],
                    "text": "pack i i 1"
                }
            },
            {
                "box": {
                    "id": "obj-36",
                    "maxclass": "newobj",
                    "numinlets": 1,
                    "numoutlets": 1,
                    "outlettype": [ "" ],
                    "patching_rect": [ 1234.0, 401.0, 95.0, 22.0 ],
                    "text": "expr ceil($f1/16)"
                }
            },
            {
                "box": {
                    "id": "obj-32",
                    "maxclass": "newobj",
                    "numinlets": 1,
                    "numoutlets": 1,
                    "outlettype": [ "" ],
                    "patching_rect": [ 1346.0, 487.0, 75.0, 22.0 ],
                    "text": "prepend dim"
                }
            },
            {
                "box": {
                    "id": "obj-31",
                    "maxclass": "newobj",
                    "numinlets": 3,
                    "numoutlets": 1,
                    "outlettype": [ "" ],
                    "patching_rect": [ 1345.0, 401.0, 56.0, 22.0 ],
                    "text": "pack i i 1"
                }
            },
            {
                "box": {
                    "id": "obj-22",
                    "maxclass": "number",
                    "numinlets": 1,
                    "numoutlets": 2,
                    "outlettype": [ "", "bang" ],
                    "parameter_enable": 0,
                    "patching_rect": [ 1234.0, 336.0, 50.0, 22.0 ]
                }
            },
            {
                "box": {
                    "id": "obj-40",
                    "maxclass": "comment",
                    "numinlets": 1,
                    "numoutlets": 0,
                    "patching_rect": [ 74.0, 364.0, 46.0, 20.0 ],
                    "text": "Radius"
                }
            },
            {
                "box": {
                    "id": "obj-35",
                    "maxclass": "newobj",
                    "numinlets": 1,
                    "numoutlets": 2,
                    "outlettype": [ "", "" ],
                    "patching_rect": [ 603.0, 921.0, 201.0, 22.0 ],
                    "text": "jit.gl.videoplane @transform_reset 2"
                }
            },
            {
                "box": {
                    "id": "obj-33",
                    "maxclass": "newobj",
                    "numinlets": 1,
                    "numoutlets": 1,
                    "outlettype": [ "jit_gl_texture" ],
                    "patcher": {
                        "fileversion": 1,
                        "appversion": {
                            "major": 9,
                            "minor": 1,
                            "revision": 1,
                            "architecture": "x64",
                            "modernui": 1
                        },
                        "classnamespace": "box",
                        "rect": [ 59.0, 119.0, 1000.0, 780.0 ],
                        "boxes": [
                            {
                                "box": {
                                    "id": "obj-3",
                                    "maxclass": "newobj",
                                    "numinlets": 1,
                                    "numoutlets": 2,
                                    "outlettype": [ "", "" ],
                                    "patching_rect": [ 143.0, 143.0, 111.0, 22.0 ],
                                    "text": "jit.time @speed 0.1"
                                }
                            },
                            {
                                "box": {
                                    "comment": "",
                                    "id": "obj-2",
                                    "index": 1,
                                    "maxclass": "inlet",
                                    "numinlets": 0,
                                    "numoutlets": 1,
                                    "outlettype": [ "" ],
                                    "patching_rect": [ 40.0, 74.0, 30.0, 30.0 ]
                                }
                            },
                            {
                                "box": {
                                    "id": "obj-1",
                                    "maxclass": "newobj",
                                    "numinlets": 1,
                                    "numoutlets": 1,
                                    "outlettype": [ "" ],
                                    "patching_rect": [ 426.0, 521.0, 192.0, 22.0 ],
                                    "text": "loadmess basis fractal.multi.hybrid"
                                }
                            },
                            {
                                "box": {
                                    "id": "obj-51",
                                    "maxclass": "newobj",
                                    "numinlets": 3,
                                    "numoutlets": 2,
                                    "outlettype": [ "jit_gl_texture", "" ],
                                    "patcher": {
                                        "fileversion": 1,
                                        "appversion": {
                                            "major": 9,
                                            "minor": 1,
                                            "revision": 1,
                                            "architecture": "x64",
                                            "modernui": 1
                                        },
                                        "classnamespace": "jit.gen",
                                        "rect": [ 84.0, 144.0, 600.0, 450.0 ],
                                        "boxes": [
                                            {
                                                "box": {
                                                    "id": "obj-9",
                                                    "maxclass": "newobj",
                                                    "numinlets": 1,
                                                    "numoutlets": 1,
                                                    "outlettype": [ "" ],
                                                    "patching_rect": [ 176.0, 180.0, 51.0, 22.0 ],
                                                    "text": "mix -1 1"
                                                }
                                            },
                                            {
                                                "box": {
                                                    "id": "obj-7",
                                                    "maxclass": "newobj",
                                                    "numinlets": 1,
                                                    "numoutlets": 1,
                                                    "outlettype": [ "" ],
                                                    "patching_rect": [ 300.0, 104.0, 41.0, 22.0 ],
                                                    "text": "swiz x"
                                                }
                                            },
                                            {
                                                "box": {
                                                    "id": "obj-8",
                                                    "maxclass": "newobj",
                                                    "numinlets": 0,
                                                    "numoutlets": 1,
                                                    "outlettype": [ "" ],
                                                    "patching_rect": [ 300.0, 50.0, 28.0, 22.0 ],
                                                    "text": "in 3"
                                                }
                                            },
                                            {
                                                "box": {
                                                    "id": "obj-6",
                                                    "maxclass": "newobj",
                                                    "numinlets": 1,
                                                    "numoutlets": 1,
                                                    "outlettype": [ "" ],
                                                    "patching_rect": [ 238.0, 104.0, 41.0, 22.0 ],
                                                    "text": "swiz x"
                                                }
                                            },
                                            {
                                                "box": {
                                                    "id": "obj-5",
                                                    "maxclass": "newobj",
                                                    "numinlets": 1,
                                                    "numoutlets": 1,
                                                    "outlettype": [ "" ],
                                                    "patching_rect": [ 176.0, 104.0, 41.0, 22.0 ],
                                                    "text": "swiz x"
                                                }
                                            },
                                            {
                                                "box": {
                                                    "id": "obj-1",
                                                    "maxclass": "newobj",
                                                    "numinlets": 0,
                                                    "numoutlets": 1,
                                                    "outlettype": [ "" ],
                                                    "patching_rect": [ 176.0, 50.0, 28.0, 22.0 ],
                                                    "text": "in 1"
                                                }
                                            },
                                            {
                                                "box": {
                                                    "id": "obj-2",
                                                    "maxclass": "newobj",
                                                    "numinlets": 0,
                                                    "numoutlets": 1,
                                                    "outlettype": [ "" ],
                                                    "patching_rect": [ 238.0, 50.0, 28.0, 22.0 ],
                                                    "text": "in 2"
                                                }
                                            },
                                            {
                                                "box": {
                                                    "id": "obj-3",
                                                    "maxclass": "newobj",
                                                    "numinlets": 4,
                                                    "numoutlets": 1,
                                                    "outlettype": [ "" ],
                                                    "patching_rect": [ 176.0, 149.0, 205.0, 22.0 ],
                                                    "text": "vec 0. 0. 0. 0."
                                                }
                                            },
                                            {
                                                "box": {
                                                    "id": "obj-4",
                                                    "maxclass": "newobj",
                                                    "numinlets": 1,
                                                    "numoutlets": 0,
                                                    "patching_rect": [ 176.0, 217.0, 35.0, 22.0 ],
                                                    "text": "out 1"
                                                }
                                            }
                                        ],
                                        "lines": [
                                            {
                                                "patchline": {
                                                    "destination": [ "obj-5", 0 ],
                                                    "source": [ "obj-1", 0 ]
                                                }
                                            },
                                            {
                                                "patchline": {
                                                    "destination": [ "obj-6", 0 ],
                                                    "source": [ "obj-2", 0 ]
                                                }
                                            },
                                            {
                                                "patchline": {
                                                    "destination": [ "obj-9", 0 ],
                                                    "source": [ "obj-3", 0 ]
                                                }
                                            },
                                            {
                                                "patchline": {
                                                    "destination": [ "obj-3", 0 ],
                                                    "source": [ "obj-5", 0 ]
                                                }
                                            },
                                            {
                                                "patchline": {
                                                    "destination": [ "obj-3", 1 ],
                                                    "source": [ "obj-6", 0 ]
                                                }
                                            },
                                            {
                                                "patchline": {
                                                    "destination": [ "obj-3", 2 ],
                                                    "source": [ "obj-7", 0 ]
                                                }
                                            },
                                            {
                                                "patchline": {
                                                    "destination": [ "obj-7", 0 ],
                                                    "source": [ "obj-8", 0 ]
                                                }
                                            },
                                            {
                                                "patchline": {
                                                    "destination": [ "obj-4", 0 ],
                                                    "source": [ "obj-9", 0 ]
                                                }
                                            }
                                        ]
                                    },
                                    "patching_rect": [ 69.0, 582.0, 49.0, 22.0 ],
                                    "text": "jit.gl.pix"
                                }
                            },
                            {
                                "box": {
                                    "id": "obj-49",
                                    "maxclass": "newobj",
                                    "numinlets": 1,
                                    "numoutlets": 1,
                                    "outlettype": [ "" ],
                                    "patching_rect": [ 210.0, 305.0, 79.0, 22.0 ],
                                    "text": "prepend time"
                                }
                            },
                            {
                                "box": {
                                    "id": "obj-48",
                                    "maxclass": "newobj",
                                    "numinlets": 1,
                                    "numoutlets": 1,
                                    "outlettype": [ "" ],
                                    "patching_rect": [ 143.0, 271.0, 79.0, 22.0 ],
                                    "text": "prepend time"
                                }
                            },
                            {
                                "box": {
                                    "id": "obj-47",
                                    "maxclass": "newobj",
                                    "numinlets": 2,
                                    "numoutlets": 1,
                                    "outlettype": [ "float" ],
                                    "patching_rect": [ 210.0, 238.0, 36.0, 22.0 ],
                                    "text": "+ 20."
                                }
                            },
                            {
                                "box": {
                                    "id": "obj-46",
                                    "maxclass": "newobj",
                                    "numinlets": 2,
                                    "numoutlets": 1,
                                    "outlettype": [ "float" ],
                                    "patching_rect": [ 143.0, 238.0, 36.0, 22.0 ],
                                    "text": "+ 10."
                                }
                            },
                            {
                                "box": {
                                    "id": "obj-45",
                                    "maxclass": "newobj",
                                    "numinlets": 1,
                                    "numoutlets": 2,
                                    "outlettype": [ "jit_gl_texture", "" ],
                                    "patching_rect": [ 188.0, 533.0, 50.0, 22.0 ],
                                    "style": "default",
                                    "text": "jit.gl.bfg"
                                }
                            },
                            {
                                "box": {
                                    "id": "obj-44",
                                    "maxclass": "newobj",
                                    "numinlets": 1,
                                    "numoutlets": 2,
                                    "outlettype": [ "jit_gl_texture", "" ],
                                    "patching_rect": [ 119.0, 533.0, 50.0, 22.0 ],
                                    "style": "default",
                                    "text": "jit.gl.bfg"
                                }
                            },
                            {
                                "box": {
                                    "id": "obj-43",
                                    "maxclass": "newobj",
                                    "numinlets": 1,
                                    "numoutlets": 1,
                                    "outlettype": [ "" ],
                                    "patching_rect": [ 115.0, 305.0, 79.0, 22.0 ],
                                    "text": "prepend time"
                                }
                            },
                            {
                                "box": {
                                    "id": "obj-41",
                                    "maxclass": "newobj",
                                    "numinlets": 1,
                                    "numoutlets": 2,
                                    "outlettype": [ "", "" ],
                                    "patching_rect": [ 143.0, 6.0, 47.0, 22.0 ],
                                    "text": "jit.bang"
                                }
                            },
                            {
                                "box": {
                                    "attr": "zoom",
                                    "id": "obj-31",
                                    "maxclass": "attrui",
                                    "numinlets": 1,
                                    "numoutlets": 1,
                                    "outlettype": [ "" ],
                                    "parameter_enable": 0,
                                    "patching_rect": [ 438.0, 288.0, 115.0, 22.0 ],
                                    "style": "default",
                                    "text_width": 60.0
                                }
                            },
                            {
                                "box": {
                                    "attr": "basis",
                                    "id": "obj-33",
                                    "maxclass": "attrui",
                                    "numinlets": 1,
                                    "numoutlets": 1,
                                    "outlettype": [ "" ],
                                    "parameter_enable": 0,
                                    "patching_rect": [ 398.0, 100.0, 204.0, 22.0 ],
                                    "style": "default",
                                    "text_width": 55.333343505859375
                                }
                            },
                            {
                                "box": {
                                    "id": "obj-35",
                                    "maxclass": "newobj",
                                    "numinlets": 1,
                                    "numoutlets": 2,
                                    "outlettype": [ "jit_gl_texture", "" ],
                                    "patching_rect": [ 50.0, 387.0, 362.0, 22.0 ],
                                    "style": "default",
                                    "text": "jit.gl.texture @adapt 0 @type float32 @dim 256 256 @automatic 0"
                                }
                            },
                            {
                                "box": {
                                    "id": "obj-36",
                                    "maxclass": "newobj",
                                    "numinlets": 1,
                                    "numoutlets": 2,
                                    "outlettype": [ "jit_gl_texture", "" ],
                                    "patching_rect": [ 50.0, 533.0, 50.0, 22.0 ],
                                    "style": "default",
                                    "text": "jit.gl.bfg"
                                }
                            },
                            {
                                "box": {
                                    "background": 1,
                                    "bgcolor": [ 0.9, 0.65, 0.05, 1.0 ],
                                    "fontname": "Arial Bold",
                                    "hint": "",
                                    "id": "obj-39",
                                    "ignoreclick": 1,
                                    "legacytextcolor": 1,
                                    "maxclass": "textbutton",
                                    "numinlets": 1,
                                    "numoutlets": 3,
                                    "outlettype": [ "", "", "int" ],
                                    "parameter_enable": 0,
                                    "patching_rect": [ 517.0, 318.0, 20.0, 20.0 ],
                                    "rounded": 60.0,
                                    "saved_attribute_attributes": {
                                        "bgcolor": {
                                            "expression": "themecolor.lesson_step_circle"
                                        }
                                    },
                                    "text": "3",
                                    "textcolor": [ 0.34902, 0.34902, 0.34902, 1.0 ]
                                }
                            },
                            {
                                "box": {
                                    "comment": "",
                                    "id": "obj-32",
                                    "index": 1,
                                    "maxclass": "outlet",
                                    "numinlets": 1,
                                    "numoutlets": 0,
                                    "patching_rect": [ 69.0, 664.0, 30.0, 30.0 ]
                                }
                            },
                            {
                                "box": {
                                    "attr": "speed",
                                    "id": "obj-4",
                                    "maxclass": "attrui",
                                    "numinlets": 1,
                                    "numoutlets": 1,
                                    "outlettype": [ "" ],
                                    "parameter_enable": 0,
                                    "patching_rect": [ 188.0, 78.0, 150.0, 22.0 ]
                                }
                            },
                            {
                                "box": {
                                    "attr": "enable",
                                    "id": "obj-5",
                                    "maxclass": "attrui",
                                    "numinlets": 1,
                                    "numoutlets": 1,
                                    "outlettype": [ "" ],
                                    "parameter_enable": 0,
                                    "patching_rect": [ 143.0, 113.0, 150.0, 22.0 ]
                                }
                            }
                        ],
                        "lines": [
                            {
                                "patchline": {
                                    "destination": [ "obj-36", 0 ],
                                    "order": 2,
                                    "source": [ "obj-1", 0 ]
                                }
                            },
                            {
                                "patchline": {
                                    "destination": [ "obj-44", 0 ],
                                    "order": 1,
                                    "source": [ "obj-1", 0 ]
                                }
                            },
                            {
                                "patchline": {
                                    "destination": [ "obj-45", 0 ],
                                    "order": 0,
                                    "source": [ "obj-1", 0 ]
                                }
                            },
                            {
                                "patchline": {
                                    "destination": [ "obj-35", 0 ],
                                    "source": [ "obj-2", 0 ]
                                }
                            },
                            {
                                "patchline": {
                                    "destination": [ "obj-43", 0 ],
                                    "order": 2,
                                    "source": [ "obj-3", 0 ]
                                }
                            },
                            {
                                "patchline": {
                                    "destination": [ "obj-46", 0 ],
                                    "order": 1,
                                    "source": [ "obj-3", 0 ]
                                }
                            },
                            {
                                "patchline": {
                                    "destination": [ "obj-47", 0 ],
                                    "order": 0,
                                    "source": [ "obj-3", 0 ]
                                }
                            },
                            {
                                "patchline": {
                                    "destination": [ "obj-36", 0 ],
                                    "midpoints": [ 447.5, 462.46875, 59.5, 462.46875 ],
                                    "order": 2,
                                    "source": [ "obj-31", 0 ]
                                }
                            },
                            {
                                "patchline": {
                                    "destination": [ "obj-44", 0 ],
                                    "order": 1,
                                    "source": [ "obj-31", 0 ]
                                }
                            },
                            {
                                "patchline": {
                                    "destination": [ "obj-45", 0 ],
                                    "order": 0,
                                    "source": [ "obj-31", 0 ]
                                }
                            },
                            {
                                "patchline": {
                                    "destination": [ "obj-36", 0 ],
                                    "midpoints": [ 407.5, 461.65234375, 59.5, 461.65234375 ],
                                    "order": 2,
                                    "source": [ "obj-33", 0 ]
                                }
                            },
                            {
                                "patchline": {
                                    "destination": [ "obj-44", 0 ],
                                    "order": 1,
                                    "source": [ "obj-33", 0 ]
                                }
                            },
                            {
                                "patchline": {
                                    "destination": [ "obj-45", 0 ],
                                    "order": 0,
                                    "source": [ "obj-33", 0 ]
                                }
                            },
                            {
                                "patchline": {
                                    "destination": [ "obj-36", 0 ],
                                    "order": 2,
                                    "source": [ "obj-35", 0 ]
                                }
                            },
                            {
                                "patchline": {
                                    "destination": [ "obj-44", 0 ],
                                    "order": 1,
                                    "source": [ "obj-35", 0 ]
                                }
                            },
                            {
                                "patchline": {
                                    "destination": [ "obj-45", 0 ],
                                    "order": 0,
                                    "source": [ "obj-35", 0 ]
                                }
                            },
                            {
                                "patchline": {
                                    "destination": [ "obj-51", 0 ],
                                    "source": [ "obj-36", 0 ]
                                }
                            },
                            {
                                "patchline": {
                                    "destination": [ "obj-3", 0 ],
                                    "source": [ "obj-4", 0 ]
                                }
                            },
                            {
                                "patchline": {
                                    "destination": [ "obj-35", 0 ],
                                    "source": [ "obj-41", 0 ]
                                }
                            },
                            {
                                "patchline": {
                                    "destination": [ "obj-36", 0 ],
                                    "source": [ "obj-43", 0 ]
                                }
                            },
                            {
                                "patchline": {
                                    "destination": [ "obj-51", 1 ],
                                    "source": [ "obj-44", 0 ]
                                }
                            },
                            {
                                "patchline": {
                                    "destination": [ "obj-51", 2 ],
                                    "source": [ "obj-45", 0 ]
                                }
                            },
                            {
                                "patchline": {
                                    "destination": [ "obj-48", 0 ],
                                    "source": [ "obj-46", 0 ]
                                }
                            },
                            {
                                "patchline": {
                                    "destination": [ "obj-49", 0 ],
                                    "source": [ "obj-47", 0 ]
                                }
                            },
                            {
                                "patchline": {
                                    "destination": [ "obj-44", 0 ],
                                    "source": [ "obj-48", 0 ]
                                }
                            },
                            {
                                "patchline": {
                                    "destination": [ "obj-45", 0 ],
                                    "source": [ "obj-49", 0 ]
                                }
                            },
                            {
                                "patchline": {
                                    "destination": [ "obj-3", 0 ],
                                    "source": [ "obj-5", 0 ]
                                }
                            },
                            {
                                "patchline": {
                                    "destination": [ "obj-32", 0 ],
                                    "source": [ "obj-51", 0 ]
                                }
                            }
                        ]
                    },
                    "patching_rect": [ 1346.0, 562.0, 133.0, 22.0 ],
                    "text": "p random point position"
                }
            },
            {
                "box": {
                    "id": "obj-69",
                    "maxclass": "newobj",
                    "numinlets": 1,
                    "numoutlets": 1,
                    "outlettype": [ "" ],
                    "patching_rect": [ 15.0, 324.0, 93.0, 22.0 ],
                    "text": "loadmess 0.002"
                }
            },
            {
                "box": {
                    "id": "obj-53",
                    "maxclass": "newobj",
                    "numinlets": 1,
                    "numoutlets": 1,
                    "outlettype": [ "" ],
                    "patching_rect": [ 898.0, 609.0, 69.0, 22.0 ],
                    "text": "prepend v3"
                }
            },
            {
                "box": {
                    "id": "obj-58",
                    "maxclass": "newobj",
                    "numinlets": 1,
                    "numoutlets": 1,
                    "outlettype": [ "" ],
                    "patching_rect": [ 862.0, 573.0, 69.0, 22.0 ],
                    "text": "prepend v2"
                }
            },
            {
                "box": {
                    "id": "obj-60",
                    "maxclass": "newobj",
                    "numinlets": 1,
                    "numoutlets": 1,
                    "outlettype": [ "" ],
                    "patching_rect": [ 822.0, 536.0, 69.0, 22.0 ],
                    "text": "prepend v1"
                }
            },
            {
                "box": {
                    "id": "obj-62",
                    "maxclass": "newobj",
                    "numinlets": 1,
                    "numoutlets": 1,
                    "outlettype": [ "" ],
                    "patching_rect": [ 786.0, 503.0, 69.0, 22.0 ],
                    "text": "prepend v0"
                }
            },
            {
                "box": {
                    "id": "obj-65",
                    "maxclass": "newobj",
                    "numinlets": 2,
                    "numoutlets": 2,
                    "outlettype": [ "", "" ],
                    "patching_rect": [ 862.0, 474.0, 55.0, 22.0 ],
                    "text": "zl.slice 4"
                }
            },
            {
                "box": {
                    "id": "obj-66",
                    "maxclass": "newobj",
                    "numinlets": 2,
                    "numoutlets": 2,
                    "outlettype": [ "", "" ],
                    "patching_rect": [ 822.0, 441.0, 55.0, 22.0 ],
                    "text": "zl.slice 4"
                }
            },
            {
                "box": {
                    "id": "obj-67",
                    "maxclass": "newobj",
                    "numinlets": 2,
                    "numoutlets": 2,
                    "outlettype": [ "", "" ],
                    "patching_rect": [ 786.0, 405.0, 55.0, 22.0 ],
                    "text": "zl.slice 4"
                }
            },
            {
                "box": {
                    "format": 6,
                    "id": "obj-50",
                    "maxclass": "flonum",
                    "numinlets": 1,
                    "numoutlets": 2,
                    "outlettype": [ "", "bang" ],
                    "parameter_enable": 0,
                    "patching_rect": [ 15.0, 363.0, 57.0, 22.0 ]
                }
            },
            {
                "box": {
                    "id": "obj-34",
                    "maxclass": "message",
                    "numinlets": 2,
                    "numoutlets": 1,
                    "outlettype": [ "" ],
                    "patching_rect": [ 15.0, 446.0, 77.0, 22.0 ],
                    "text": "set radius $1"
                }
            },
            {
                "box": {
                    "filename": "jit.fx.lin2srgb.jxs",
                    "id": "obj-7",
                    "maxclass": "newobj",
                    "numinlets": 1,
                    "numoutlets": 2,
                    "outlettype": [ "jit_gl_texture", "" ],
                    "patching_rect": [ 603.0, 881.0, 75.0, 22.0 ],
                    "text": "jit.fx.lin2srgb",
                    "textfile": {
                        "filename": "jit.fx.lin2srgb.jxs",
                        "flags": 0,
                        "embed": 0,
                        "autowatch": 1
                    }
                }
            },
            {
                "box": {
                    "id": "obj-57",
                    "maxclass": "newobj",
                    "numinlets": 1,
                    "numoutlets": 1,
                    "outlettype": [ "" ],
                    "patching_rect": [ 461.0, 209.0, 139.0, 22.0 ],
                    "text": "prepend set windowSize"
                }
            },
            {
                "box": {
                    "id": "obj-55",
                    "maxclass": "newobj",
                    "numinlets": 1,
                    "numoutlets": 1,
                    "outlettype": [ "" ],
                    "patching_rect": [ 461.0, 179.0, 163.0, 22.0 ],
                    "text": "vexpr $i1 * 2 @scalarmode 1"
                }
            },
            {
                "box": {
                    "id": "obj-52",
                    "maxclass": "newobj",
                    "numinlets": 2,
                    "numoutlets": 2,
                    "outlettype": [ "", "" ],
                    "patching_rect": [ 461.0, 149.0, 61.0, 22.0 ],
                    "text": "route size"
                }
            },
            {
                "box": {
                    "id": "obj-37",
                    "maxclass": "message",
                    "numinlets": 2,
                    "numoutlets": 1,
                    "outlettype": [ "" ],
                    "patching_rect": [ 375.0, 251.0, 47.0, 22.0 ],
                    "text": "getsize"
                }
            },
            {
                "box": {
                    "id": "obj-30",
                    "maxclass": "newobj",
                    "numinlets": 1,
                    "numoutlets": 2,
                    "outlettype": [ "", "" ],
                    "patching_rect": [ 1346.0, 713.0, 360.0, 22.0 ],
                    "text": "jit.gpu.image @format R32_UINT @dim 120 68 2048 @name grid"
                }
            },
            {
                "box": {
                    "id": "obj-5",
                    "maxclass": "newobj",
                    "numinlets": 1,
                    "numoutlets": 2,
                    "outlettype": [ "", "" ],
                    "patching_rect": [ 1346.0, 680.0, 369.0, 22.0 ],
                    "text": "jit.gpu.image @format R32_UINT @dim 120 68 1 @name countImg"
                }
            },
            {
                "box": {
                    "id": "obj-18",
                    "maxclass": "newobj",
                    "numinlets": 1,
                    "numoutlets": 2,
                    "outlettype": [ "", "" ],
                    "patching_rect": [ 1346.0, 747.0, 436.0, 22.0 ],
                    "text": "jit.gpu.image @format RGBA32_FLOAT @dim 1920 1080 1 @name finalRender"
                }
            },
            {
                "box": {
                    "id": "obj-61",
                    "maxclass": "newobj",
                    "numinlets": 1,
                    "numoutlets": 2,
                    "outlettype": [ "", "" ],
                    "patching_rect": [ 603.0, 845.0, 207.0, 22.0 ],
                    "text": "jit.gpu.totexture @source finalRender"
                }
            },
            {
                "box": {
                    "id": "obj-54",
                    "maxclass": "newobj",
                    "numinlets": 1,
                    "numoutlets": 2,
                    "outlettype": [ "", "" ],
                    "patching_rect": [ 1346.0, 612.0, 401.0, 22.0 ],
                    "text": "jit.gpu.image @format RGBA32_FLOAT @dim 256 256 1 @name posImg"
                }
            },
            {
                "box": {
                    "id": "obj-19",
                    "maxclass": "newobj",
                    "numinlets": 1,
                    "numoutlets": 4,
                    "outlettype": [ "bang", "bang", "bang", "bang" ],
                    "patching_rect": [ 345.6666666666667, 209.0, 63.0, 22.0 ],
                    "text": "b 4"
                }
            },
            {
                "box": {
                    "id": "obj-17",
                    "maxclass": "newobj",
                    "numinlets": 1,
                    "numoutlets": 2,
                    "outlettype": [ "", "" ],
                    "patching_rect": [ 345.6666666666667, 175.0, 47.0, 22.0 ],
                    "text": "jit.bang"
                }
            },
            {
                "box": {
                    "id": "obj-16",
                    "maxclass": "newobj",
                    "numinlets": 1,
                    "numoutlets": 1,
                    "outlettype": [ "" ],
                    "patching_rect": [ 715.0, 609.0, 69.0, 22.0 ],
                    "text": "prepend p3"
                }
            },
            {
                "box": {
                    "id": "obj-15",
                    "maxclass": "newobj",
                    "numinlets": 1,
                    "numoutlets": 1,
                    "outlettype": [ "" ],
                    "patching_rect": [ 679.0, 573.0, 69.0, 22.0 ],
                    "text": "prepend p2"
                }
            },
            {
                "box": {
                    "id": "obj-14",
                    "maxclass": "newobj",
                    "numinlets": 1,
                    "numoutlets": 1,
                    "outlettype": [ "" ],
                    "patching_rect": [ 639.0, 536.0, 69.0, 22.0 ],
                    "text": "prepend p1"
                }
            },
            {
                "box": {
                    "id": "obj-13",
                    "maxclass": "newobj",
                    "numinlets": 1,
                    "numoutlets": 1,
                    "outlettype": [ "" ],
                    "patching_rect": [ 603.0, 503.0, 69.0, 22.0 ],
                    "text": "prepend p0"
                }
            },
            {
                "box": {
                    "id": "obj-12",
                    "maxclass": "newobj",
                    "numinlets": 2,
                    "numoutlets": 2,
                    "outlettype": [ "", "" ],
                    "patching_rect": [ 679.0, 474.0, 55.0, 22.0 ],
                    "text": "zl.slice 4"
                }
            },
            {
                "box": {
                    "id": "obj-11",
                    "maxclass": "newobj",
                    "numinlets": 2,
                    "numoutlets": 2,
                    "outlettype": [ "", "" ],
                    "patching_rect": [ 639.0, 441.0, 55.0, 22.0 ],
                    "text": "zl.slice 4"
                }
            },
            {
                "box": {
                    "id": "obj-10",
                    "maxclass": "newobj",
                    "numinlets": 2,
                    "numoutlets": 2,
                    "outlettype": [ "", "" ],
                    "patching_rect": [ 603.0, 405.0, 55.0, 22.0 ],
                    "text": "zl.slice 4"
                }
            },
            {
                "box": {
                    "id": "obj-9",
                    "maxclass": "newobj",
                    "numinlets": 4,
                    "numoutlets": 4,
                    "outlettype": [ "", "", "", "" ],
                    "patching_rect": [ 603.0, 365.0, 568.0, 22.0 ],
                    "text": "route proj_matrix view_matrix position"
                }
            },
            {
                "box": {
                    "id": "obj-8",
                    "maxclass": "message",
                    "numinlets": 2,
                    "numoutlets": 1,
                    "outlettype": [ "" ],
                    "patching_rect": [ 424.0, 251.0, 236.0, 22.0 ],
                    "text": "getproj_matrix, getview_matrix, getposition"
                }
            },
            {
                "box": {
                    "id": "obj-6",
                    "maxclass": "newobj",
                    "numinlets": 1,
                    "numoutlets": 2,
                    "outlettype": [ "", "" ],
                    "patching_rect": [ 450.5, 290.0, 145.0, 22.0 ],
                    "text": "jit.anim.drive @ui_listen 1"
                }
            },
            {
                "box": {
                    "id": "obj-20",
                    "maxclass": "newobj",
                    "numinlets": 1,
                    "numoutlets": 2,
                    "outlettype": [ "jit_gl_texture", "" ],
                    "patching_rect": [ 424.0, 330.0, 198.0, 22.0 ],
                    "text": "jit.gl.camera @locklook 1 @tripod 1"
                }
            },
            {
                "box": {
                    "id": "obj-1",
                    "maxclass": "newobj",
                    "numinlets": 1,
                    "numoutlets": 3,
                    "outlettype": [ "jit_matrix", "bang", "" ],
                    "patching_rect": [ 283.0, 115.0, 197.0, 22.0 ],
                    "text": "jit.world @floating 1 @size 960 540"
                }
            },
            {
                "box": {
                    "attr": "enable",
                    "id": "obj-4",
                    "maxclass": "attrui",
                    "numinlets": 1,
                    "numoutlets": 1,
                    "outlettype": [ "" ],
                    "parameter_enable": 0,
                    "patching_rect": [ 315.0, 68.0, 150.0, 22.0 ]
                }
            }
        ],
        "lines": [
            {
                "patchline": {
                    "destination": [ "obj-52", 0 ],
                    "source": [ "obj-1", 2 ]
                }
            },
            {
                "patchline": {
                    "destination": [ "obj-11", 0 ],
                    "source": [ "obj-10", 1 ]
                }
            },
            {
                "patchline": {
                    "destination": [ "obj-13", 0 ],
                    "source": [ "obj-10", 0 ]
                }
            },
            {
                "patchline": {
                    "destination": [ "obj-12", 0 ],
                    "source": [ "obj-11", 1 ]
                }
            },
            {
                "patchline": {
                    "destination": [ "obj-14", 0 ],
                    "source": [ "obj-11", 0 ]
                }
            },
            {
                "patchline": {
                    "destination": [ "obj-15", 0 ],
                    "source": [ "obj-12", 0 ]
                }
            },
            {
                "patchline": {
                    "destination": [ "obj-16", 0 ],
                    "source": [ "obj-12", 1 ]
                }
            },
            {
                "patchline": {
                    "destination": [ "obj-23", 0 ],
                    "source": [ "obj-13", 0 ]
                }
            },
            {
                "patchline": {
                    "destination": [ "obj-23", 0 ],
                    "source": [ "obj-14", 0 ]
                }
            },
            {
                "patchline": {
                    "destination": [ "obj-23", 0 ],
                    "source": [ "obj-15", 0 ]
                }
            },
            {
                "patchline": {
                    "destination": [ "obj-23", 0 ],
                    "source": [ "obj-16", 0 ]
                }
            },
            {
                "patchline": {
                    "destination": [ "obj-19", 0 ],
                    "source": [ "obj-17", 0 ]
                }
            },
            {
                "patchline": {
                    "destination": [ "obj-25", 1 ],
                    "source": [ "obj-18", 0 ]
                }
            },
            {
                "patchline": {
                    "destination": [ "obj-37", 0 ],
                    "source": [ "obj-19", 2 ]
                }
            },
            {
                "patchline": {
                    "destination": [ "obj-8", 0 ],
                    "source": [ "obj-19", 3 ]
                }
            },
            {
                "patchline": {
                    "destination": [ "obj-27", 0 ],
                    "source": [ "obj-2", 0 ]
                }
            },
            {
                "patchline": {
                    "destination": [ "obj-9", 0 ],
                    "source": [ "obj-20", 1 ]
                }
            },
            {
                "patchline": {
                    "destination": [ "obj-31", 1 ],
                    "order": 0,
                    "source": [ "obj-22", 0 ]
                }
            },
            {
                "patchline": {
                    "destination": [ "obj-31", 0 ],
                    "order": 1,
                    "source": [ "obj-22", 0 ]
                }
            },
            {
                "patchline": {
                    "destination": [ "obj-36", 0 ],
                    "order": 2,
                    "source": [ "obj-22", 0 ]
                }
            },
            {
                "patchline": {
                    "destination": [ "obj-27", 0 ],
                    "source": [ "obj-23", 0 ]
                }
            },
            {
                "patchline": {
                    "destination": [ "obj-1", 0 ],
                    "source": [ "obj-24", 0 ]
                }
            },
            {
                "patchline": {
                    "destination": [ "obj-27", 3 ],
                    "source": [ "obj-25", 0 ]
                }
            },
            {
                "patchline": {
                    "destination": [ "obj-25", 0 ],
                    "source": [ "obj-29", 0 ]
                }
            },
            {
                "patchline": {
                    "destination": [ "obj-20", 0 ],
                    "order": 1,
                    "source": [ "obj-3", 0 ]
                }
            },
            {
                "patchline": {
                    "destination": [ "obj-6", 0 ],
                    "order": 0,
                    "source": [ "obj-3", 0 ]
                }
            },
            {
                "patchline": {
                    "destination": [ "obj-32", 0 ],
                    "source": [ "obj-31", 0 ]
                }
            },
            {
                "patchline": {
                    "destination": [ "obj-42", 0 ],
                    "source": [ "obj-32", 0 ]
                }
            },
            {
                "patchline": {
                    "destination": [ "obj-54", 0 ],
                    "source": [ "obj-33", 0 ]
                }
            },
            {
                "patchline": {
                    "destination": [ "obj-44", 1 ],
                    "order": 0,
                    "source": [ "obj-36", 0 ]
                }
            },
            {
                "patchline": {
                    "destination": [ "obj-44", 0 ],
                    "order": 1,
                    "source": [ "obj-36", 0 ]
                }
            },
            {
                "patchline": {
                    "destination": [ "obj-1", 0 ],
                    "midpoints": [ 384.5, 283.0, 268.1953125, 283.0, 268.1953125, 104.33203125, 292.5, 104.33203125 ],
                    "source": [ "obj-37", 0 ]
                }
            },
            {
                "patchline": {
                    "destination": [ "obj-27", 2 ],
                    "source": [ "obj-39", 0 ]
                }
            },
            {
                "patchline": {
                    "destination": [ "obj-1", 0 ],
                    "source": [ "obj-4", 0 ]
                }
            },
            {
                "patchline": {
                    "destination": [ "obj-76", 0 ],
                    "source": [ "obj-41", 0 ]
                }
            },
            {
                "patchline": {
                    "destination": [ "obj-33", 0 ],
                    "source": [ "obj-42", 0 ]
                }
            },
            {
                "patchline": {
                    "destination": [ "obj-39", 0 ],
                    "source": [ "obj-42", 2 ]
                }
            },
            {
                "patchline": {
                    "destination": [ "obj-54", 0 ],
                    "source": [ "obj-42", 1 ]
                }
            },
            {
                "patchline": {
                    "destination": [ "obj-45", 0 ],
                    "source": [ "obj-44", 0 ]
                }
            },
            {
                "patchline": {
                    "destination": [ "obj-22", 0 ],
                    "source": [ "obj-46", 0 ]
                }
            },
            {
                "patchline": {
                    "destination": [ "obj-34", 0 ],
                    "source": [ "obj-50", 0 ]
                }
            },
            {
                "patchline": {
                    "destination": [ "obj-55", 0 ],
                    "source": [ "obj-52", 0 ]
                }
            },
            {
                "patchline": {
                    "destination": [ "obj-23", 0 ],
                    "source": [ "obj-53", 0 ]
                }
            },
            {
                "patchline": {
                    "destination": [ "obj-27", 1 ],
                    "source": [ "obj-54", 0 ]
                }
            },
            {
                "patchline": {
                    "destination": [ "obj-57", 0 ],
                    "source": [ "obj-55", 0 ]
                }
            },
            {
                "patchline": {
                    "destination": [ "obj-23", 0 ],
                    "source": [ "obj-58", 0 ]
                }
            },
            {
                "patchline": {
                    "destination": [ "obj-20", 0 ],
                    "source": [ "obj-6", 0 ]
                }
            },
            {
                "patchline": {
                    "destination": [ "obj-23", 0 ],
                    "source": [ "obj-60", 0 ]
                }
            },
            {
                "patchline": {
                    "destination": [ "obj-7", 0 ],
                    "source": [ "obj-61", 0 ]
                }
            },
            {
                "patchline": {
                    "destination": [ "obj-23", 0 ],
                    "source": [ "obj-62", 0 ]
                }
            },
            {
                "patchline": {
                    "destination": [ "obj-53", 0 ],
                    "source": [ "obj-65", 1 ]
                }
            },
            {
                "patchline": {
                    "destination": [ "obj-58", 0 ],
                    "source": [ "obj-65", 0 ]
                }
            },
            {
                "patchline": {
                    "destination": [ "obj-60", 0 ],
                    "source": [ "obj-66", 0 ]
                }
            },
            {
                "patchline": {
                    "destination": [ "obj-65", 0 ],
                    "source": [ "obj-66", 1 ]
                }
            },
            {
                "patchline": {
                    "destination": [ "obj-62", 0 ],
                    "source": [ "obj-67", 0 ]
                }
            },
            {
                "patchline": {
                    "destination": [ "obj-66", 0 ],
                    "source": [ "obj-67", 1 ]
                }
            },
            {
                "patchline": {
                    "destination": [ "obj-50", 0 ],
                    "source": [ "obj-69", 0 ]
                }
            },
            {
                "patchline": {
                    "destination": [ "obj-35", 0 ],
                    "source": [ "obj-7", 0 ]
                }
            },
            {
                "patchline": {
                    "destination": [ "obj-71", 0 ],
                    "source": [ "obj-70", 0 ]
                }
            },
            {
                "patchline": {
                    "destination": [ "obj-41", 0 ],
                    "source": [ "obj-71", 0 ]
                }
            },
            {
                "patchline": {
                    "destination": [ "obj-75", 0 ],
                    "source": [ "obj-74", 0 ]
                }
            },
            {
                "patchline": {
                    "destination": [ "obj-41", 1 ],
                    "source": [ "obj-75", 0 ]
                }
            },
            {
                "patchline": {
                    "destination": [ "obj-80", 0 ],
                    "source": [ "obj-79", 0 ]
                }
            },
            {
                "patchline": {
                    "destination": [ "obj-20", 0 ],
                    "source": [ "obj-8", 0 ]
                }
            },
            {
                "patchline": {
                    "destination": [ "obj-81", 0 ],
                    "source": [ "obj-80", 0 ]
                }
            },
            {
                "patchline": {
                    "destination": [ "obj-10", 0 ],
                    "source": [ "obj-9", 0 ]
                }
            },
            {
                "patchline": {
                    "destination": [ "obj-51", 0 ],
                    "source": [ "obj-9", 2 ]
                }
            },
            {
                "patchline": {
                    "destination": [ "obj-67", 0 ],
                    "source": [ "obj-9", 1 ]
                }
            }
        ],
        "autosave": 0
    }
}