{
    "patcher": {
        "fileversion": 1,
        "appversion": {
            "major": 9,
            "minor": 2,
            "revision": 0,
            "architecture": "x64",
            "modernui": 1
        },
        "classnamespace": "box",
        "rect": [ 34.0, 100.0, 1365.0, 893.0 ],
        "boxes": [
            {
                "box": {
                    "id": "obj-22",
                    "maxclass": "toggle",
                    "numinlets": 1,
                    "numoutlets": 1,
                    "outlettype": [ "int" ],
                    "parameter_enable": 0,
                    "patching_rect": [ 1210.0, 15.0, 24.0, 24.0 ]
                }
            },
            {
                "box": {
                    "id": "obj-20",
                    "maxclass": "comment",
                    "numinlets": 1,
                    "numoutlets": 0,
                    "patching_rect": [ 995.0, 268.0, 259.0, 34.0 ],
                    "text": "- use shared memory to speed up spatial reuse\n"
                }
            },
            {
                "box": {
                    "id": "obj-1",
                    "maxclass": "newobj",
                    "numinlets": 1,
                    "numoutlets": 1,
                    "outlettype": [ "" ],
                    "patching_rect": [ 736.0, 40.0, 77.0, 22.0 ],
                    "text": "loadmess 10"
                }
            },
            {
                "box": {
                    "id": "obj-12",
                    "maxclass": "message",
                    "numinlets": 2,
                    "numoutlets": 1,
                    "outlettype": [ "" ],
                    "patching_rect": [ 1037.0, 129.0, 39.0, 22.0 ],
                    "text": "$1 $1"
                }
            },
            {
                "box": {
                    "id": "obj-32",
                    "maxclass": "toggle",
                    "numinlets": 1,
                    "numoutlets": 1,
                    "outlettype": [ "int" ],
                    "parameter_enable": 0,
                    "patching_rect": [ 1280.0, 99.0, 24.0, 24.0 ]
                }
            },
            {
                "box": {
                    "id": "obj-30",
                    "maxclass": "newobj",
                    "numinlets": 1,
                    "numoutlets": 2,
                    "outlettype": [ "", "" ],
                    "patching_rect": [ 1232.0, 51.0, 111.0, 22.0 ],
                    "text": "jit.time @speed 0.2"
                }
            },
            {
                "box": {
                    "id": "obj-29",
                    "maxclass": "newobj",
                    "numinlets": 1,
                    "numoutlets": 2,
                    "outlettype": [ "", "" ],
                    "patching_rect": [ 1256.0, 129.0, 118.0, 22.0 ],
                    "text": "jit.time @speed 0.05"
                }
            },
            {
                "box": {
                    "id": "obj-28",
                    "maxclass": "newobj",
                    "numinlets": 1,
                    "numoutlets": 1,
                    "outlettype": [ "" ],
                    "patching_rect": [ 1256.0, 173.0, 79.0, 22.0 ],
                    "text": "prepend time"
                }
            },
            {
                "box": {
                    "id": "obj-27",
                    "maxclass": "newobj",
                    "numinlets": 1,
                    "numoutlets": 1,
                    "outlettype": [ "" ],
                    "patching_rect": [ 924.0, 74.0, 83.0, 22.0 ],
                    "text": "loadmess 300"
                }
            },
            {
                "box": {
                    "id": "obj-25",
                    "maxclass": "newobj",
                    "numinlets": 1,
                    "numoutlets": 1,
                    "outlettype": [ "" ],
                    "patching_rect": [ 1014.0, 30.0, 70.0, 22.0 ],
                    "text": "loadmess 3"
                }
            },
            {
                "box": {
                    "id": "obj-24",
                    "maxclass": "newobj",
                    "numinlets": 1,
                    "numoutlets": 1,
                    "outlettype": [ "" ],
                    "patching_rect": [ 884.0, 173.0, 123.0, 22.0 ],
                    "text": "prepend height_scale"
                }
            },
            {
                "box": {
                    "format": 6,
                    "id": "obj-23",
                    "maxclass": "flonum",
                    "numinlets": 1,
                    "numoutlets": 2,
                    "outlettype": [ "", "bang" ],
                    "parameter_enable": 0,
                    "patching_rect": [ 928.0, 111.0, 50.0, 22.0 ]
                }
            },
            {
                "box": {
                    "format": 6,
                    "id": "obj-19",
                    "maxclass": "flonum",
                    "numinlets": 1,
                    "numoutlets": 2,
                    "outlettype": [ "", "bang" ],
                    "parameter_enable": 0,
                    "patching_rect": [ 1008.0, 74.0, 50.0, 22.0 ]
                }
            },
            {
                "box": {
                    "format": 6,
                    "id": "obj-17",
                    "maxclass": "flonum",
                    "numinlets": 1,
                    "numoutlets": 2,
                    "outlettype": [ "", "bang" ],
                    "parameter_enable": 0,
                    "patching_rect": [ 1213.0, 74.0, 50.0, 22.0 ]
                }
            },
            {
                "box": {
                    "format": 6,
                    "id": "obj-16",
                    "maxclass": "flonum",
                    "numinlets": 1,
                    "numoutlets": 2,
                    "outlettype": [ "", "bang" ],
                    "parameter_enable": 0,
                    "patching_rect": [ 1151.0, 74.0, 50.0, 22.0 ]
                }
            },
            {
                "box": {
                    "id": "obj-10",
                    "maxclass": "newobj",
                    "numinlets": 2,
                    "numoutlets": 1,
                    "outlettype": [ "" ],
                    "patching_rect": [ 1157.0, 122.0, 41.0, 22.0 ],
                    "text": "pak f f"
                }
            },
            {
                "box": {
                    "id": "obj-6",
                    "maxclass": "newobj",
                    "numinlets": 1,
                    "numoutlets": 1,
                    "outlettype": [ "" ],
                    "patching_rect": [ 1155.0, 173.0, 85.0, 22.0 ],
                    "text": "prepend offset"
                }
            },
            {
                "box": {
                    "id": "obj-3",
                    "maxclass": "newobj",
                    "numinlets": 1,
                    "numoutlets": 1,
                    "outlettype": [ "" ],
                    "patching_rect": [ 1019.0, 173.0, 84.0, 22.0 ],
                    "text": "prepend scale"
                }
            },
            {
                "box": {
                    "id": "obj-11",
                    "maxclass": "button",
                    "numinlets": 1,
                    "numoutlets": 1,
                    "outlettype": [ "bang" ],
                    "parameter_enable": 0,
                    "patching_rect": [ 860.0, 55.0, 24.0, 24.0 ]
                }
            },
            {
                "box": {
                    "id": "obj-9",
                    "maxclass": "number",
                    "numinlets": 1,
                    "numoutlets": 2,
                    "outlettype": [ "", "bang" ],
                    "parameter_enable": 0,
                    "patching_rect": [ 736.0, 82.0, 50.0, 22.0 ]
                }
            },
            {
                "box": {
                    "id": "obj-2",
                    "maxclass": "message",
                    "numinlets": 2,
                    "numoutlets": 1,
                    "outlettype": [ "" ],
                    "patching_rect": [ 740.0, 111.0, 83.0, 22.0 ],
                    "text": "num_lights $1"
                }
            },
            {
                "box": {
                    "id": "obj-120",
                    "maxclass": "newobj",
                    "numinlets": 1,
                    "numoutlets": 2,
                    "outlettype": [ "", "" ],
                    "patching_rect": [ 461.0, 102.0, 47.0, 22.0 ],
                    "text": "jit.bang"
                }
            },
            {
                "box": {
                    "filename": "terrainShading.js",
                    "id": "obj-117",
                    "maxclass": "newobj",
                    "numinlets": 1,
                    "numoutlets": 1,
                    "outlettype": [ "" ],
                    "patching_rect": [ 461.0, 152.0, 115.0, 22.0 ],
                    "saved_object_attributes": {
                        "parameter_enable": 0
                    },
                    "text": "v8 terrainShading.js",
                    "textfile": {
                        "filename": "terrainShading.js",
                        "flags": 0,
                        "embed": 0,
                        "autowatch": 1
                    }
                }
            },
            {
                "box": {
                    "id": "obj-115",
                    "maxclass": "newobj",
                    "numinlets": 1,
                    "numoutlets": 2,
                    "outlettype": [ "jit_gl_texture", "" ],
                    "patcher": {
                        "fileversion": 1,
                        "appversion": {
                            "major": 9,
                            "minor": 2,
                            "revision": 0,
                            "architecture": "x64",
                            "modernui": 1
                        },
                        "classnamespace": "jit.gen",
                        "rect": [ 84.0, 144.0, 600.0, 450.0 ],
                        "boxes": [
                            {
                                "box": {
                                    "id": "obj-1",
                                    "maxclass": "newobj",
                                    "numinlets": 0,
                                    "numoutlets": 1,
                                    "outlettype": [ "" ],
                                    "patching_rect": [ 50.0, 14.0, 28.0, 22.0 ],
                                    "text": "in 1"
                                }
                            },
                            {
                                "box": {
                                    "id": "obj-2",
                                    "maxclass": "newobj",
                                    "numinlets": 1,
                                    "numoutlets": 1,
                                    "outlettype": [ "" ],
                                    "patching_rect": [ 229.0, 61.0, 26.0, 22.0 ],
                                    "text": "+ 1"
                                }
                            },
                            {
                                "box": {
                                    "id": "obj-3",
                                    "maxclass": "newobj",
                                    "numinlets": 2,
                                    "numoutlets": 1,
                                    "outlettype": [ "" ],
                                    "patching_rect": [ 176.0, 149.0, 29.5, 22.0 ],
                                    "text": "/"
                                }
                            },
                            {
                                "box": {
                                    "id": "obj-4",
                                    "maxclass": "newobj",
                                    "numinlets": 1,
                                    "numoutlets": 0,
                                    "patching_rect": [ 176.0, 418.0, 35.0, 22.0 ],
                                    "text": "out 1"
                                }
                            }
                        ],
                        "lines": [
                            {
                                "patchline": {
                                    "destination": [ "obj-2", 0 ],
                                    "order": 0,
                                    "source": [ "obj-1", 0 ]
                                }
                            },
                            {
                                "patchline": {
                                    "destination": [ "obj-3", 0 ],
                                    "order": 1,
                                    "source": [ "obj-1", 0 ]
                                }
                            },
                            {
                                "patchline": {
                                    "destination": [ "obj-3", 1 ],
                                    "source": [ "obj-2", 0 ]
                                }
                            },
                            {
                                "patchline": {
                                    "destination": [ "obj-4", 0 ],
                                    "source": [ "obj-3", 0 ]
                                }
                            }
                        ]
                    },
                    "patching_rect": [ 621.0, 240.0, 49.0, 22.0 ],
                    "text": "jit.gl.pix"
                }
            },
            {
                "box": {
                    "embedstate": [
                        [ "adapt", 1 ],
                        [ "bypass", 0 ],
                        [ "enable", 1 ]
                    ],
                    "filename": "jit.fx.slide.js",
                    "id": "obj-94",
                    "maxclass": "newobj",
                    "numinlets": 1,
                    "numoutlets": 1,
                    "outlettype": [ "jit_gl_texture" ],
                    "patching_rect": [ 653.0, 272.0, 234.0, 22.0 ],
                    "saved_object_attributes": {
                        "parameter_enable": 0
                    },
                    "text": "jit.fx.slide @slide_up 1.6 @slide_down 1.6",
                    "textfile": {
                        "filename": "jit.fx.slide.js",
                        "flags": 0,
                        "embed": 0,
                        "autowatch": 1
                    },
                    "varname": "v8_AC"
                }
            },
            {
                "box": {
                    "id": "obj-15",
                    "maxclass": "newobj",
                    "numinlets": 1,
                    "numoutlets": 2,
                    "outlettype": [ "", "" ],
                    "patching_rect": [ 621.0, 385.0, 201.0, 22.0 ],
                    "text": "jit.gl.videoplane @transform_reset 2"
                }
            },
            {
                "box": {
                    "filename": "jit.fx.lin2srgb.jxs",
                    "id": "obj-13",
                    "maxclass": "newobj",
                    "numinlets": 1,
                    "numoutlets": 2,
                    "outlettype": [ "jit_gl_texture", "" ],
                    "patching_rect": [ 621.0, 306.0, 75.0, 22.0 ],
                    "text": "jit.fx.lin2srgb",
                    "textfile": {
                        "filename": "jit.fx.lin2srgb.jxs",
                        "flags": 0,
                        "embed": 0,
                        "autowatch": 1
                    },
                    "varname": "jit.gl.slab_AA"
                }
            },
            {
                "box": {
                    "id": "obj-5",
                    "maxclass": "newobj",
                    "numinlets": 2,
                    "numoutlets": 3,
                    "outlettype": [ "", "jit_gl_texture", "" ],
                    "patching_rect": [ 461.0, 199.0, 339.0, 22.0 ],
                    "text": "jit.gpu.totexture",
                    "varname": "jit.gpu.totexture_AA"
                }
            },
            {
                "box": {
                    "id": "obj-8",
                    "maxclass": "newobj",
                    "numinlets": 1,
                    "numoutlets": 1,
                    "outlettype": [ "" ],
                    "patching_rect": [ 491.0, 266.0, 54.0, 22.0 ],
                    "text": "deferlow"
                }
            },
            {
                "box": {
                    "id": "obj-7",
                    "maxclass": "newobj",
                    "numinlets": 1,
                    "numoutlets": 3,
                    "outlettype": [ "", "", "" ],
                    "patching_rect": [ 461.0, 239.0, 79.0, 22.0 ],
                    "text": "jit.gpu.submit",
                    "varname": "jit.gpu.submit_AA"
                }
            },
            {
                "box": {
                    "fontface": 0,
                    "fontname": "Arial",
                    "fontsize": 12.0,
                    "id": "obj-14",
                    "maxclass": "jit.fpsgui",
                    "numinlets": 1,
                    "numoutlets": 2,
                    "outlettype": [ "", "" ],
                    "patching_rect": [ 210.0, 227.0, 80.0, 35.0 ]
                }
            },
            {
                "box": {
                    "id": "obj-35",
                    "maxclass": "comment",
                    "numinlets": 1,
                    "numoutlets": 0,
                    "patching_rect": [ 223.0, 54.0, 60.0, 20.0 ],
                    "text": "1) Enable"
                }
            },
            {
                "box": {
                    "id": "obj-38",
                    "maxclass": "newobj",
                    "numinlets": 1,
                    "numoutlets": 2,
                    "outlettype": [ "bang", "int" ],
                    "patching_rect": [ 196.0, 91.0, 29.5, 22.0 ],
                    "text": "t b i"
                }
            },
            {
                "box": {
                    "id": "obj-39",
                    "maxclass": "toggle",
                    "numinlets": 1,
                    "numoutlets": 1,
                    "outlettype": [ "int" ],
                    "parameter_enable": 0,
                    "patching_rect": [ 196.0, 50.0, 24.0, 24.0 ]
                }
            },
            {
                "box": {
                    "id": "obj-91",
                    "maxclass": "newobj",
                    "numinlets": 2,
                    "numoutlets": 1,
                    "outlettype": [ "" ],
                    "patching_rect": [ 163.0, 152.0, 52.0, 22.0 ],
                    "text": "gate 1 0"
                }
            },
            {
                "box": {
                    "id": "obj-4",
                    "maxclass": "newobj",
                    "numinlets": 1,
                    "numoutlets": 3,
                    "outlettype": [ "jit_matrix", "bang", "" ],
                    "patching_rect": [ 163.0, 189.0, 197.0, 22.0 ],
                    "text": "jit.world @floating 1 @size 960 540"
                }
            },
            {
                "box": {
                    "attr": "floating",
                    "id": "obj-116",
                    "maxclass": "attrui",
                    "numinlets": 1,
                    "numoutlets": 1,
                    "outlettype": [ "" ],
                    "parameter_enable": 0,
                    "patching_rect": [ 218.0, 159.0, 150.0, 22.0 ]
                }
            }
        ],
        "lines": [
            {
                "patchline": {
                    "destination": [ "obj-9", 0 ],
                    "source": [ "obj-1", 0 ]
                }
            },
            {
                "patchline": {
                    "destination": [ "obj-6", 0 ],
                    "source": [ "obj-10", 0 ]
                }
            },
            {
                "patchline": {
                    "destination": [ "obj-9", 0 ],
                    "source": [ "obj-11", 0 ]
                }
            },
            {
                "patchline": {
                    "destination": [ "obj-13", 0 ],
                    "source": [ "obj-115", 0 ]
                }
            },
            {
                "patchline": {
                    "destination": [ "obj-4", 0 ],
                    "source": [ "obj-116", 0 ]
                }
            },
            {
                "patchline": {
                    "destination": [ "obj-5", 0 ],
                    "source": [ "obj-117", 0 ]
                }
            },
            {
                "patchline": {
                    "destination": [ "obj-3", 0 ],
                    "source": [ "obj-12", 0 ]
                }
            },
            {
                "patchline": {
                    "destination": [ "obj-117", 0 ],
                    "source": [ "obj-120", 0 ]
                }
            },
            {
                "patchline": {
                    "destination": [ "obj-15", 0 ],
                    "source": [ "obj-13", 0 ]
                }
            },
            {
                "patchline": {
                    "destination": [ "obj-10", 0 ],
                    "source": [ "obj-16", 0 ]
                }
            },
            {
                "patchline": {
                    "destination": [ "obj-10", 1 ],
                    "source": [ "obj-17", 0 ]
                }
            },
            {
                "patchline": {
                    "destination": [ "obj-12", 0 ],
                    "source": [ "obj-19", 0 ]
                }
            },
            {
                "patchline": {
                    "destination": [ "obj-117", 0 ],
                    "source": [ "obj-2", 0 ]
                }
            },
            {
                "patchline": {
                    "destination": [ "obj-30", 0 ],
                    "source": [ "obj-22", 0 ]
                }
            },
            {
                "patchline": {
                    "destination": [ "obj-24", 0 ],
                    "source": [ "obj-23", 0 ]
                }
            },
            {
                "patchline": {
                    "destination": [ "obj-117", 0 ],
                    "source": [ "obj-24", 0 ]
                }
            },
            {
                "patchline": {
                    "destination": [ "obj-19", 0 ],
                    "source": [ "obj-25", 0 ]
                }
            },
            {
                "patchline": {
                    "destination": [ "obj-23", 0 ],
                    "source": [ "obj-27", 0 ]
                }
            },
            {
                "patchline": {
                    "destination": [ "obj-117", 0 ],
                    "source": [ "obj-28", 0 ]
                }
            },
            {
                "patchline": {
                    "destination": [ "obj-28", 0 ],
                    "source": [ "obj-29", 0 ]
                }
            },
            {
                "patchline": {
                    "destination": [ "obj-117", 0 ],
                    "source": [ "obj-3", 0 ]
                }
            },
            {
                "patchline": {
                    "destination": [ "obj-17", 0 ],
                    "source": [ "obj-30", 0 ]
                }
            },
            {
                "patchline": {
                    "destination": [ "obj-29", 0 ],
                    "source": [ "obj-32", 0 ]
                }
            },
            {
                "patchline": {
                    "destination": [ "obj-91", 0 ],
                    "source": [ "obj-38", 1 ]
                }
            },
            {
                "patchline": {
                    "destination": [ "obj-91", 1 ],
                    "source": [ "obj-38", 0 ]
                }
            },
            {
                "patchline": {
                    "destination": [ "obj-38", 0 ],
                    "source": [ "obj-39", 0 ]
                }
            },
            {
                "patchline": {
                    "destination": [ "obj-14", 0 ],
                    "source": [ "obj-4", 1 ]
                }
            },
            {
                "patchline": {
                    "destination": [ "obj-115", 0 ],
                    "source": [ "obj-5", 1 ]
                }
            },
            {
                "patchline": {
                    "destination": [ "obj-7", 0 ],
                    "source": [ "obj-5", 0 ]
                }
            },
            {
                "patchline": {
                    "destination": [ "obj-117", 0 ],
                    "source": [ "obj-6", 0 ]
                }
            },
            {
                "patchline": {
                    "destination": [ "obj-8", 0 ],
                    "source": [ "obj-7", 1 ]
                }
            },
            {
                "patchline": {
                    "destination": [ "obj-91", 1 ],
                    "midpoints": [ 500.5, 328.3359375, 135.87890625, 328.3359375, 135.87890625, 142.0, 205.5, 142.0 ],
                    "source": [ "obj-8", 0 ]
                }
            },
            {
                "patchline": {
                    "destination": [ "obj-2", 0 ],
                    "source": [ "obj-9", 0 ]
                }
            },
            {
                "patchline": {
                    "destination": [ "obj-4", 0 ],
                    "source": [ "obj-91", 0 ]
                }
            }
        ],
        "autosave": 0
    }
}