{
    "patcher": {
        "fileversion": 1,
        "appversion": {
            "major": 9,
            "minor": 2,
            "revision": 0,
            "architecture": "x64",
            "modernui": 1
        },
        "classnamespace": "box",
        "rect": [ 34.0, 100.0, 1351.0, 893.0 ],
        "boxes": [
            {
                "box": {
                    "id": "obj-43",
                    "maxclass": "newobj",
                    "numinlets": 1,
                    "numoutlets": 1,
                    "outlettype": [ "" ],
                    "patching_rect": [ 1139.0, 437.0, 70.0, 22.0 ],
                    "text": "loadmess 0"
                }
            },
            {
                "box": {
                    "attr": "enable",
                    "id": "obj-42",
                    "maxclass": "attrui",
                    "numinlets": 1,
                    "numoutlets": 1,
                    "outlettype": [ "" ],
                    "parameter_enable": 0,
                    "patching_rect": [ 1117.0, 496.0, 150.0, 22.0 ]
                }
            },
            {
                "box": {
                    "id": "obj-63",
                    "maxclass": "newobj",
                    "numinlets": 9,
                    "numoutlets": 2,
                    "outlettype": [ "", "" ],
                    "patching_rect": [ 1073.0, 554.0, 189.0, 22.0 ],
                    "text": "jit.gl.mesh @draw_mode triangles"
                }
            },
            {
                "box": {
                    "fontface": 0,
                    "fontname": "Arial",
                    "fontsize": 12.0,
                    "id": "obj-60",
                    "maxclass": "jit.fpsgui",
                    "numinlets": 1,
                    "numoutlets": 2,
                    "outlettype": [ "", "" ],
                    "patching_rect": [ 865.0, 468.0, 80.0, 35.0 ]
                }
            },
            {
                "box": {
                    "id": "obj-64",
                    "maxclass": "comment",
                    "numinlets": 1,
                    "numoutlets": 0,
                    "patching_rect": [ 818.0, 250.0, 81.0, 20.0 ],
                    "text": "num triangles"
                }
            },
            {
                "box": {
                    "fontsize": 40.734849894291784,
                    "id": "obj-61",
                    "maxclass": "number",
                    "numinlets": 1,
                    "numoutlets": 2,
                    "outlettype": [ "", "bang" ],
                    "parameter_enable": 0,
                    "patching_rect": [ 703.0, 271.0, 202.0, 54.0 ]
                }
            },
            {
                "box": {
                    "id": "obj-36",
                    "maxclass": "newobj",
                    "numinlets": 2,
                    "numoutlets": 1,
                    "outlettype": [ "int" ],
                    "patching_rect": [ 762.5, 236.0, 29.5, 22.0 ],
                    "text": "/ 3"
                }
            },
            {
                "box": {
                    "id": "obj-25",
                    "maxclass": "newobj",
                    "numinlets": 2,
                    "numoutlets": 2,
                    "outlettype": [ "", "" ],
                    "patching_rect": [ 766.0, 203.0, 59.0, 22.0 ],
                    "text": "route dim"
                }
            },
            {
                "box": {
                    "id": "obj-22",
                    "maxclass": "newobj",
                    "numinlets": 1,
                    "numoutlets": 1,
                    "outlettype": [ "" ],
                    "patching_rect": [ 748.0, 164.0, 73.0, 22.0 ],
                    "text": "jit.matrixinfo"
                }
            },
            {
                "box": {
                    "id": "obj-39",
                    "maxclass": "toggle",
                    "numinlets": 1,
                    "numoutlets": 1,
                    "outlettype": [ "int" ],
                    "parameter_enable": 0,
                    "patching_rect": [ 43.0, 357.0, 24.0, 24.0 ]
                }
            },
            {
                "box": {
                    "id": "obj-23",
                    "maxclass": "button",
                    "numinlets": 1,
                    "numoutlets": 1,
                    "outlettype": [ "bang" ],
                    "parameter_enable": 0,
                    "patching_rect": [ 17.0, 357.0, 24.0, 24.0 ]
                }
            },
            {
                "box": {
                    "id": "obj-62",
                    "maxclass": "message",
                    "numinlets": 2,
                    "numoutlets": 1,
                    "outlettype": [ "" ],
                    "patching_rect": [ 904.0, 71.0, 39.0, 22.0 ],
                    "text": "$1 $2"
                }
            },
            {
                "box": {
                    "id": "obj-38",
                    "maxclass": "button",
                    "numinlets": 1,
                    "numoutlets": 1,
                    "outlettype": [ "bang" ],
                    "parameter_enable": 0,
                    "patching_rect": [ 1180.0, 84.0, 24.0, 24.0 ]
                }
            },
            {
                "box": {
                    "id": "obj-59",
                    "maxclass": "message",
                    "numinlets": 2,
                    "numoutlets": 1,
                    "outlettype": [ "" ],
                    "patching_rect": [ 1024.0, -67.0, 96.0, 22.0 ],
                    "text": "file seymour.dae"
                }
            },
            {
                "box": {
                    "id": "obj-58",
                    "maxclass": "newobj",
                    "numinlets": 1,
                    "numoutlets": 1,
                    "outlettype": [ "bang" ],
                    "patching_rect": [ 1223.0, 104.0, 22.0, 22.0 ],
                    "text": "t b"
                }
            },
            {
                "box": {
                    "id": "obj-57",
                    "maxclass": "newobj",
                    "numinlets": 2,
                    "numoutlets": 2,
                    "outlettype": [ "", "" ],
                    "patching_rect": [ 1223.0, 78.0, 63.0, 22.0 ],
                    "text": "route read"
                }
            },
            {
                "box": {
                    "id": "obj-54",
                    "maxclass": "message",
                    "numinlets": 2,
                    "numoutlets": 1,
                    "outlettype": [ "" ],
                    "patching_rect": [ 1186.0, -9.0, 33.0, 22.0 ],
                    "text": "read"
                }
            },
            {
                "box": {
                    "id": "obj-55",
                    "maxclass": "message",
                    "numinlets": 2,
                    "numoutlets": 1,
                    "outlettype": [ "" ],
                    "patching_rect": [ 1004.0, -99.0, 76.0, 22.0 ],
                    "text": "file duck.dae"
                }
            },
            {
                "box": {
                    "id": "obj-47",
                    "maxclass": "newobj",
                    "numinlets": 1,
                    "numoutlets": 2,
                    "outlettype": [ "", "" ],
                    "patching_rect": [ 840.0, -59.0, 132.0, 22.0 ],
                    "text": "jit.gpu.bang @enable 0"
                }
            },
            {
                "box": {
                    "id": "obj-50",
                    "maxclass": "toggle",
                    "numinlets": 1,
                    "numoutlets": 1,
                    "outlettype": [ "int" ],
                    "parameter_enable": 0,
                    "patching_rect": [ 840.0, -174.0, 24.0, 24.0 ]
                }
            },
            {
                "box": {
                    "fontname": "Arial",
                    "fontsize": 13.0,
                    "id": "obj-52",
                    "maxclass": "message",
                    "numinlets": 2,
                    "numoutlets": 1,
                    "outlettype": [ "" ],
                    "patching_rect": [ 866.0, -132.0, 98.0, 23.0 ],
                    "text": "animenable $1"
                }
            },
            {
                "box": {
                    "id": "obj-49",
                    "maxclass": "newobj",
                    "numinlets": 1,
                    "numoutlets": 3,
                    "outlettype": [ "bang", "bang", "bang" ],
                    "patching_rect": [ 840.0, -21.0, 77.0, 22.0 ],
                    "text": "t b b b"
                }
            },
            {
                "box": {
                    "id": "obj-48",
                    "maxclass": "newobj",
                    "numinlets": 2,
                    "numoutlets": 1,
                    "outlettype": [ "jit_matrix" ],
                    "patching_rect": [ 909.5, 152.0, 110.0, 22.0 ],
                    "text": "concat.drawgroups"
                }
            },
            {
                "box": {
                    "id": "obj-41",
                    "maxclass": "newobj",
                    "numinlets": 2,
                    "numoutlets": 2,
                    "outlettype": [ "jit_matrix", "" ],
                    "patching_rect": [ 909.5, 208.0, 117.0, 22.0 ],
                    "text": "jit.pack 2 @jump 3 1"
                }
            },
            {
                "box": {
                    "id": "obj-40",
                    "maxclass": "newobj",
                    "numinlets": 1,
                    "numoutlets": 2,
                    "outlettype": [ "jit_matrix", "" ],
                    "patching_rect": [ 904.0, 104.0, 121.0, 22.0 ],
                    "text": "jit.unpack 1 @jump 3"
                }
            },
            {
                "box": {
                    "id": "obj-35",
                    "maxclass": "newobj",
                    "numinlets": 1,
                    "numoutlets": 2,
                    "outlettype": [ "jit_matrix", "" ],
                    "patching_rect": [ 904.0, 41.0, 338.0, 22.0 ],
                    "text": "jit.gl.model @file seymour.dae @matrixoutput 1 @automatic 0"
                }
            },
            {
                "box": {
                    "id": "obj-81",
                    "maxclass": "newobj",
                    "numinlets": 1,
                    "numoutlets": 1,
                    "outlettype": [ "float" ],
                    "patcher": {
                        "fileversion": 1,
                        "appversion": {
                            "major": 9,
                            "minor": 2,
                            "revision": 0,
                            "architecture": "x64",
                            "modernui": 1
                        },
                        "classnamespace": "box",
                        "rect": [ 391.0, 166.0, 1000.0, 780.0 ],
                        "visible": 1,
                        "boxes": [
                            {
                                "box": {
                                    "id": "obj-77",
                                    "maxclass": "newobj",
                                    "numinlets": 2,
                                    "numoutlets": 1,
                                    "outlettype": [ "float" ],
                                    "patching_rect": [ 50.0, 306.0, 39.0, 22.0 ],
                                    "text": "/ 100."
                                }
                            },
                            {
                                "box": {
                                    "id": "obj-76",
                                    "maxclass": "newobj",
                                    "numinlets": 2,
                                    "numoutlets": 2,
                                    "outlettype": [ "", "" ],
                                    "patching_rect": [ 51.0, 271.0, 43.0, 22.0 ],
                                    "text": "zl.sum"
                                }
                            },
                            {
                                "box": {
                                    "id": "obj-75",
                                    "maxclass": "newobj",
                                    "numinlets": 2,
                                    "numoutlets": 2,
                                    "outlettype": [ "", "" ],
                                    "patching_rect": [ 51.0, 238.0, 81.0, 22.0 ],
                                    "text": "zl.stream 100"
                                }
                            },
                            {
                                "box": {
                                    "id": "obj-74",
                                    "maxclass": "newobj",
                                    "numinlets": 2,
                                    "numoutlets": 1,
                                    "outlettype": [ "float" ],
                                    "patching_rect": [ 51.0, 204.0, 29.5, 22.0 ],
                                    "text": "!/ 1."
                                }
                            },
                            {
                                "box": {
                                    "id": "obj-73",
                                    "maxclass": "newobj",
                                    "numinlets": 2,
                                    "numoutlets": 1,
                                    "outlettype": [ "float" ],
                                    "patching_rect": [ 51.0, 170.0, 45.0, 22.0 ],
                                    "text": "/ 1000."
                                }
                            },
                            {
                                "box": {
                                    "id": "obj-72",
                                    "maxclass": "newobj",
                                    "numinlets": 1,
                                    "numoutlets": 2,
                                    "outlettype": [ "bang", "bang" ],
                                    "patching_rect": [ 51.0, 100.0, 32.0, 22.0 ],
                                    "text": "t b b"
                                }
                            },
                            {
                                "box": {
                                    "id": "obj-65",
                                    "maxclass": "newobj",
                                    "numinlets": 2,
                                    "numoutlets": 2,
                                    "outlettype": [ "float", "" ],
                                    "patching_rect": [ 51.0, 133.0, 35.0, 22.0 ],
                                    "text": "timer"
                                }
                            },
                            {
                                "box": {
                                    "comment": "",
                                    "id": "obj-79",
                                    "index": 1,
                                    "maxclass": "inlet",
                                    "numinlets": 0,
                                    "numoutlets": 1,
                                    "outlettype": [ "bang" ],
                                    "patching_rect": [ 51.0, 40.0, 30.0, 30.0 ]
                                }
                            },
                            {
                                "box": {
                                    "comment": "",
                                    "id": "obj-80",
                                    "index": 1,
                                    "maxclass": "outlet",
                                    "numinlets": 1,
                                    "numoutlets": 0,
                                    "patching_rect": [ 50.0, 388.0, 30.0, 30.0 ]
                                }
                            }
                        ],
                        "lines": [
                            {
                                "patchline": {
                                    "destination": [ "obj-73", 0 ],
                                    "source": [ "obj-65", 0 ]
                                }
                            },
                            {
                                "patchline": {
                                    "destination": [ "obj-65", 1 ],
                                    "source": [ "obj-72", 1 ]
                                }
                            },
                            {
                                "patchline": {
                                    "destination": [ "obj-65", 0 ],
                                    "source": [ "obj-72", 0 ]
                                }
                            },
                            {
                                "patchline": {
                                    "destination": [ "obj-74", 0 ],
                                    "source": [ "obj-73", 0 ]
                                }
                            },
                            {
                                "patchline": {
                                    "destination": [ "obj-75", 0 ],
                                    "source": [ "obj-74", 0 ]
                                }
                            },
                            {
                                "patchline": {
                                    "destination": [ "obj-76", 0 ],
                                    "source": [ "obj-75", 0 ]
                                }
                            },
                            {
                                "patchline": {
                                    "destination": [ "obj-77", 0 ],
                                    "source": [ "obj-76", 0 ]
                                }
                            },
                            {
                                "patchline": {
                                    "destination": [ "obj-80", 0 ],
                                    "source": [ "obj-77", 0 ]
                                }
                            },
                            {
                                "patchline": {
                                    "destination": [ "obj-72", 0 ],
                                    "source": [ "obj-79", 0 ]
                                }
                            }
                        ]
                    },
                    "patching_rect": [ 205.0, 709.0, 72.0, 22.0 ],
                    "text": "p fps_meter"
                }
            },
            {
                "box": {
                    "fontsize": 57.977591535215154,
                    "format": 6,
                    "id": "obj-71",
                    "maxclass": "flonum",
                    "numinlets": 1,
                    "numoutlets": 2,
                    "outlettype": [ "", "bang" ],
                    "parameter_enable": 0,
                    "patching_rect": [ 205.0, 758.0, 323.0, 73.0 ]
                }
            },
            {
                "box": {
                    "id": "obj-37",
                    "maxclass": "toggle",
                    "numinlets": 1,
                    "numoutlets": 1,
                    "outlettype": [ "int" ],
                    "parameter_enable": 0,
                    "patching_rect": [ 464.0, 104.0, 24.0, 24.0 ]
                }
            },
            {
                "box": {
                    "id": "obj-27",
                    "maxclass": "newobj",
                    "numinlets": 1,
                    "numoutlets": 1,
                    "outlettype": [ "" ],
                    "patching_rect": [ 464.0, 142.0, 159.0, 22.0 ],
                    "text": "prepend check_build_speed"
                }
            },
            {
                "box": {
                    "id": "obj-2",
                    "maxclass": "newobj",
                    "numinlets": 1,
                    "numoutlets": 1,
                    "outlettype": [ "" ],
                    "patching_rect": [ 768.0, 427.0, 70.0, 22.0 ],
                    "text": "loadmess 0"
                }
            },
            {
                "box": {
                    "attr": "enable",
                    "id": "obj-30",
                    "maxclass": "attrui",
                    "numinlets": 1,
                    "numoutlets": 1,
                    "outlettype": [ "" ],
                    "parameter_enable": 0,
                    "patching_rect": [ 583.0, 225.0, 150.0, 22.0 ]
                }
            },
            {
                "box": {
                    "id": "obj-29",
                    "maxclass": "toggle",
                    "numinlets": 1,
                    "numoutlets": 1,
                    "outlettype": [ "int" ],
                    "parameter_enable": 0,
                    "patching_rect": [ 729.0, 426.0, 24.0, 24.0 ]
                }
            },
            {
                "box": {
                    "id": "obj-26",
                    "maxclass": "newobj",
                    "numinlets": 2,
                    "numoutlets": 1,
                    "outlettype": [ "int" ],
                    "patching_rect": [ 583.0, 180.0, 29.5, 22.0 ],
                    "text": "!- 1"
                }
            },
            {
                "box": {
                    "id": "obj-34",
                    "linecount": 2,
                    "maxclass": "newobj",
                    "numinlets": 1,
                    "numoutlets": 2,
                    "outlettype": [ "", "" ],
                    "patching_rect": [ 396.0, 696.0, 115.0, 35.0 ],
                    "text": "jit.gl.videoplane @transform_reset 2"
                }
            },
            {
                "box": {
                    "id": "obj-33",
                    "maxclass": "newobj",
                    "numinlets": 1,
                    "numoutlets": 3,
                    "outlettype": [ "jit_gl_texture", "", "" ],
                    "patching_rect": [ 391.0, 643.0, 125.0, 22.0 ],
                    "text": "jit.gl.node @capture 1"
                }
            },
            {
                "box": {
                    "id": "obj-15",
                    "linecount": 2,
                    "maxclass": "newobj",
                    "numinlets": 1,
                    "numoutlets": 2,
                    "outlettype": [ "", "" ],
                    "patching_rect": [ 396.0, 376.0, 115.0, 35.0 ],
                    "text": "jit.gl.videoplane @transform_reset 2"
                }
            },
            {
                "box": {
                    "id": "obj-9",
                    "maxclass": "newobj",
                    "numinlets": 2,
                    "numoutlets": 3,
                    "outlettype": [ "", "jit_gl_texture", "" ],
                    "patching_rect": [ 360.0, 316.0, 91.0, 22.0 ],
                    "text": "jit.gpu.totexture"
                }
            },
            {
                "box": {
                    "id": "obj-32",
                    "maxclass": "newobj",
                    "numinlets": 1,
                    "numoutlets": 2,
                    "outlettype": [ "", "" ],
                    "patching_rect": [ 391.0, 25.0, 71.0, 22.0 ],
                    "text": "jit.gpu.bang"
                }
            },
            {
                "box": {
                    "id": "obj-31",
                    "maxclass": "newobj",
                    "numinlets": 1,
                    "numoutlets": 2,
                    "outlettype": [ "", "" ],
                    "patching_rect": [ 145.0, 171.0, 71.0, 22.0 ],
                    "text": "jit.gpu.bang"
                }
            },
            {
                "box": {
                    "id": "obj-24",
                    "maxclass": "newobj",
                    "numinlets": 2,
                    "numoutlets": 2,
                    "outlettype": [ "", "" ],
                    "patching_rect": [ 271.0, 142.0, 173.0, 22.0 ],
                    "text": "substitute direction set_camDir"
                }
            },
            {
                "box": {
                    "id": "obj-19",
                    "maxclass": "newobj",
                    "numinlets": 2,
                    "numoutlets": 2,
                    "outlettype": [ "", "" ],
                    "patching_rect": [ 252.0, 171.0, 174.0, 22.0 ],
                    "text": "substitute position set_camPos"
                }
            },
            {
                "box": {
                    "id": "obj-21",
                    "maxclass": "message",
                    "numinlets": 2,
                    "numoutlets": 1,
                    "outlettype": [ "" ],
                    "patching_rect": [ 391.0, 63.0, 135.0, 22.0 ],
                    "text": "getposition, getdirection"
                }
            },
            {
                "box": {
                    "id": "obj-16",
                    "maxclass": "newobj",
                    "numinlets": 9,
                    "numoutlets": 2,
                    "outlettype": [ "", "" ],
                    "patching_rect": [ 521.0, 394.0, 715.0, 22.0 ],
                    "text": "jit.gl.mesh @draw_mode points @point_size 10. @blend_enable 1 @depth_enable 0 @gl_color 0 1 1 0.3 @point_mode circle_depth"
                }
            },
            {
                "box": {
                    "id": "obj-14",
                    "maxclass": "newobj",
                    "numinlets": 2,
                    "numoutlets": 3,
                    "outlettype": [ "", "jit_matrix", "" ],
                    "patching_rect": [ 487.0, 249.0, 87.0, 22.0 ],
                    "text": "jit.gpu.tomatrix"
                }
            },
            {
                "box": {
                    "id": "obj-20",
                    "maxclass": "newobj",
                    "numinlets": 1,
                    "numoutlets": 3,
                    "outlettype": [ "jit_matrix", "jit_matrix", "" ],
                    "patcher": {
                        "fileversion": 1,
                        "appversion": {
                            "major": 9,
                            "minor": 2,
                            "revision": 0,
                            "architecture": "x64",
                            "modernui": 1
                        },
                        "classnamespace": "jit.gen",
                        "rect": [ 880.0, 432.0, 600.0, 450.0 ],
                        "boxes": [
                            {
                                "box": {
                                    "id": "obj-20",
                                    "maxclass": "newobj",
                                    "numinlets": 1,
                                    "numoutlets": 1,
                                    "outlettype": [ "" ],
                                    "patching_rect": [ 226.0, 396.0, 23.0, 22.0 ],
                                    "text": "* 2"
                                }
                            },
                            {
                                "box": {
                                    "id": "obj-3",
                                    "maxclass": "newobj",
                                    "numinlets": 1,
                                    "numoutlets": 0,
                                    "patching_rect": [ 390.0, 244.0, 35.0, 22.0 ],
                                    "text": "out 2"
                                }
                            },
                            {
                                "box": {
                                    "id": "obj-2",
                                    "maxclass": "newobj",
                                    "numinlets": 1,
                                    "numoutlets": 1,
                                    "outlettype": [ "" ],
                                    "patching_rect": [ 401.0, 145.0, 33.0, 22.0 ],
                                    "text": "== 2"
                                }
                            },
                            {
                                "box": {
                                    "id": "obj-15",
                                    "maxclass": "newobj",
                                    "numinlets": 1,
                                    "numoutlets": 1,
                                    "outlettype": [ "" ],
                                    "patching_rect": [ 298.0, 186.0, 23.0, 22.0 ],
                                    "text": "* 3"
                                }
                            },
                            {
                                "box": {
                                    "id": "obj-14",
                                    "maxclass": "newobj",
                                    "numinlets": 1,
                                    "numoutlets": 1,
                                    "outlettype": [ "" ],
                                    "patching_rect": [ 241.0, 186.0, 23.0, 22.0 ],
                                    "text": "* 2"
                                }
                            },
                            {
                                "box": {
                                    "id": "obj-13",
                                    "maxclass": "newobj",
                                    "numinlets": 1,
                                    "numoutlets": 1,
                                    "outlettype": [ "" ],
                                    "patching_rect": [ 211.0, 354.0, 36.0, 22.0 ],
                                    "text": "+ 0.5"
                                }
                            },
                            {
                                "box": {
                                    "id": "obj-12",
                                    "maxclass": "newobj",
                                    "numinlets": 1,
                                    "numoutlets": 1,
                                    "outlettype": [ "" ],
                                    "patching_rect": [ 200.0, 315.0, 33.0, 22.0 ],
                                    "text": "* 0.5"
                                }
                            },
                            {
                                "box": {
                                    "id": "obj-11",
                                    "maxclass": "newobj",
                                    "numinlets": 0,
                                    "numoutlets": 1,
                                    "outlettype": [ "" ],
                                    "patching_rect": [ 316.0, 313.0, 25.0, 22.0 ],
                                    "text": "0.2"
                                }
                            },
                            {
                                "box": {
                                    "id": "obj-10",
                                    "maxclass": "newobj",
                                    "numinlets": 2,
                                    "numoutlets": 1,
                                    "outlettype": [ "" ],
                                    "patching_rect": [ 259.0, 437.0, 64.0, 22.0 ],
                                    "text": "concat 3 1"
                                }
                            },
                            {
                                "box": {
                                    "id": "obj-9",
                                    "maxclass": "newobj",
                                    "numinlets": 3,
                                    "numoutlets": 1,
                                    "outlettype": [ "" ],
                                    "patching_rect": [ 194.0, 285.0, 67.0, 22.0 ],
                                    "text": "vec 0. 0. 0."
                                }
                            },
                            {
                                "box": {
                                    "id": "obj-8",
                                    "maxclass": "newobj",
                                    "numinlets": 1,
                                    "numoutlets": 1,
                                    "outlettype": [ "" ],
                                    "patching_rect": [ 296.0, 234.0, 27.0, 22.0 ],
                                    "text": "cos"
                                }
                            },
                            {
                                "box": {
                                    "id": "obj-7",
                                    "maxclass": "newobj",
                                    "numinlets": 1,
                                    "numoutlets": 1,
                                    "outlettype": [ "" ],
                                    "patching_rect": [ 244.0, 234.0, 27.0, 22.0 ],
                                    "text": "cos"
                                }
                            },
                            {
                                "box": {
                                    "id": "obj-6",
                                    "maxclass": "newobj",
                                    "numinlets": 1,
                                    "numoutlets": 1,
                                    "outlettype": [ "" ],
                                    "patching_rect": [ 194.0, 234.0, 27.0, 22.0 ],
                                    "text": "cos"
                                }
                            },
                            {
                                "box": {
                                    "id": "obj-5",
                                    "maxclass": "newobj",
                                    "numinlets": 1,
                                    "numoutlets": 1,
                                    "outlettype": [ "" ],
                                    "patching_rect": [ 269.0, 114.0, 42.0, 22.0 ],
                                    "text": "swiz a"
                                }
                            },
                            {
                                "box": {
                                    "id": "obj-1",
                                    "maxclass": "newobj",
                                    "numinlets": 0,
                                    "numoutlets": 1,
                                    "outlettype": [ "" ],
                                    "patching_rect": [ 50.0, 14.0, 28.0, 22.0 ],
                                    "text": "in 1"
                                }
                            },
                            {
                                "box": {
                                    "id": "obj-4",
                                    "maxclass": "newobj",
                                    "numinlets": 1,
                                    "numoutlets": 0,
                                    "patching_rect": [ 176.0, 418.0, 35.0, 22.0 ],
                                    "text": "out 1"
                                }
                            }
                        ],
                        "lines": [
                            {
                                "patchline": {
                                    "destination": [ "obj-5", 0 ],
                                    "source": [ "obj-1", 0 ]
                                }
                            },
                            {
                                "patchline": {
                                    "destination": [ "obj-4", 0 ],
                                    "source": [ "obj-10", 0 ]
                                }
                            },
                            {
                                "patchline": {
                                    "destination": [ "obj-10", 1 ],
                                    "source": [ "obj-11", 0 ]
                                }
                            },
                            {
                                "patchline": {
                                    "destination": [ "obj-13", 0 ],
                                    "source": [ "obj-12", 0 ]
                                }
                            },
                            {
                                "patchline": {
                                    "destination": [ "obj-20", 0 ],
                                    "source": [ "obj-13", 0 ]
                                }
                            },
                            {
                                "patchline": {
                                    "destination": [ "obj-7", 0 ],
                                    "source": [ "obj-14", 0 ]
                                }
                            },
                            {
                                "patchline": {
                                    "destination": [ "obj-8", 0 ],
                                    "source": [ "obj-15", 0 ]
                                }
                            },
                            {
                                "patchline": {
                                    "destination": [ "obj-3", 0 ],
                                    "source": [ "obj-2", 0 ]
                                }
                            },
                            {
                                "patchline": {
                                    "destination": [ "obj-10", 0 ],
                                    "source": [ "obj-20", 0 ]
                                }
                            },
                            {
                                "patchline": {
                                    "destination": [ "obj-14", 0 ],
                                    "order": 2,
                                    "source": [ "obj-5", 0 ]
                                }
                            },
                            {
                                "patchline": {
                                    "destination": [ "obj-15", 0 ],
                                    "order": 1,
                                    "source": [ "obj-5", 0 ]
                                }
                            },
                            {
                                "patchline": {
                                    "destination": [ "obj-2", 0 ],
                                    "order": 0,
                                    "source": [ "obj-5", 0 ]
                                }
                            },
                            {
                                "patchline": {
                                    "destination": [ "obj-6", 0 ],
                                    "order": 3,
                                    "source": [ "obj-5", 0 ]
                                }
                            },
                            {
                                "patchline": {
                                    "destination": [ "obj-9", 0 ],
                                    "source": [ "obj-6", 0 ]
                                }
                            },
                            {
                                "patchline": {
                                    "destination": [ "obj-9", 1 ],
                                    "source": [ "obj-7", 0 ]
                                }
                            },
                            {
                                "patchline": {
                                    "destination": [ "obj-9", 2 ],
                                    "source": [ "obj-8", 0 ]
                                }
                            },
                            {
                                "patchline": {
                                    "destination": [ "obj-12", 0 ],
                                    "source": [ "obj-9", 0 ]
                                }
                            }
                        ]
                    },
                    "patching_rect": [ 492.0, 487.0, 41.0, 22.0 ],
                    "text": "jit.gen"
                }
            },
            {
                "box": {
                    "id": "obj-11",
                    "maxclass": "newobj",
                    "numinlets": 1,
                    "numoutlets": 2,
                    "outlettype": [ "jit_matrix", "" ],
                    "patching_rect": [ 324.0, 487.0, 161.0, 22.0 ],
                    "text": "jit.matrix @planemap 1 2 3 0"
                }
            },
            {
                "box": {
                    "id": "obj-8",
                    "maxclass": "newobj",
                    "numinlets": 1,
                    "numoutlets": 2,
                    "outlettype": [ "jit_matrix", "" ],
                    "patching_rect": [ 521.0, 347.0, 53.0, 22.0 ],
                    "text": "jit.matrix"
                }
            },
            {
                "box": {
                    "id": "obj-7",
                    "maxclass": "newobj",
                    "numinlets": 1,
                    "numoutlets": 2,
                    "outlettype": [ "jit_matrix", "" ],
                    "patching_rect": [ 521.0, 316.0, 106.0, 22.0 ],
                    "text": "jit.coerce 4 float32"
                }
            },
            {
                "box": {
                    "id": "obj-6",
                    "maxclass": "newobj",
                    "numinlets": 1,
                    "numoutlets": 2,
                    "outlettype": [ "jit_matrix", "" ],
                    "patching_rect": [ 521.0, 281.0, 53.0, 22.0 ],
                    "text": "jit.matrix"
                }
            },
            {
                "box": {
                    "id": "obj-18",
                    "maxclass": "message",
                    "numinlets": 2,
                    "numoutlets": 1,
                    "outlettype": [ "" ],
                    "patching_rect": [ 73.0, 25.0, 68.0, 22.0 ],
                    "text": "anim_reset"
                }
            },
            {
                "box": {
                    "id": "obj-10",
                    "maxclass": "newobj",
                    "numinlets": 1,
                    "numoutlets": 2,
                    "outlettype": [ "", "" ],
                    "patching_rect": [ 89.0, 63.0, 207.0, 22.0 ],
                    "text": "jit.anim.drive @ui_listen 1 @speed 1."
                }
            },
            {
                "box": {
                    "id": "obj-4",
                    "maxclass": "newobj",
                    "numinlets": 1,
                    "numoutlets": 2,
                    "outlettype": [ "jit_gl_texture", "" ],
                    "patching_rect": [ 73.0, 104.0, 129.0, 22.0 ],
                    "text": "jit.gl.camera @tripod 1"
                }
            },
            {
                "box": {
                    "id": "obj-13",
                    "maxclass": "newobj",
                    "numinlets": 1,
                    "numoutlets": 3,
                    "outlettype": [ "jit_matrix", "bang", "" ],
                    "patching_rect": [ 17.0, 446.0, 386.0, 22.0 ],
                    "text": "jit.world @floating 1 @size 960 540 @displaylink 0 @sync 0 @fps 800."
                }
            },
            {
                "box": {
                    "id": "obj-12",
                    "maxclass": "newobj",
                    "numinlets": 9,
                    "numoutlets": 2,
                    "outlettype": [ "", "" ],
                    "patching_rect": [ 324.0, 533.0, 447.0, 22.0 ],
                    "text": "jit.gl.mesh @draw_mode lines @point_size 5. @blend_enable 1 @depth_enable 0"
                }
            },
            {
                "box": {
                    "id": "obj-5",
                    "maxclass": "newobj",
                    "numinlets": 1,
                    "numoutlets": 3,
                    "outlettype": [ "", "", "" ],
                    "patching_rect": [ 252.0, 316.0, 79.0, 22.0 ],
                    "text": "jit.gpu.submit"
                }
            },
            {
                "box": {
                    "id": "obj-3",
                    "maxclass": "newobj",
                    "numinlets": 2,
                    "numoutlets": 3,
                    "outlettype": [ "", "jit_matrix", "" ],
                    "patching_rect": [ 288.0, 281.0, 87.0, 22.0 ],
                    "text": "jit.gpu.tomatrix"
                }
            },
            {
                "box": {
                    "filename": "BVH_of_spheres.js",
                    "id": "obj-1",
                    "maxclass": "newobj",
                    "numinlets": 1,
                    "numoutlets": 5,
                    "outlettype": [ "", "", "", "", "" ],
                    "patching_rect": [ 252.0, 217.0, 127.0, 22.0 ],
                    "saved_object_attributes": {
                        "embed": 0,
                        "parameter_enable": 0
                    },
                    "text": "v8 BVH_of_spheres.js",
                    "textfile": {
                        "filename": "BVH_of_spheres.js",
                        "flags": 0,
                        "embed": 0,
                        "autowatch": 1
                    }
                }
            },
            {
                "box": {
                    "attr": "point_mode",
                    "id": "obj-17",
                    "maxclass": "attrui",
                    "numinlets": 1,
                    "numoutlets": 1,
                    "outlettype": [ "" ],
                    "parameter_enable": 0,
                    "patching_rect": [ 588.0, 347.0, 150.0, 22.0 ]
                }
            },
            {
                "box": {
                    "attr": "enable",
                    "id": "obj-28",
                    "maxclass": "attrui",
                    "numinlets": 1,
                    "numoutlets": 1,
                    "outlettype": [ "" ],
                    "parameter_enable": 0,
                    "patching_rect": [ 628.0, 464.0, 150.0, 22.0 ]
                }
            },
            {
                "box": {
                    "attr": "enable",
                    "id": "obj-56",
                    "maxclass": "attrui",
                    "numinlets": 1,
                    "numoutlets": 1,
                    "outlettype": [ "" ],
                    "parameter_enable": 0,
                    "patching_rect": [ 840.0, -89.0, 150.0, 22.0 ]
                }
            }
        ],
        "lines": [
            {
                "patchline": {
                    "destination": [ "obj-14", 0 ],
                    "source": [ "obj-1", 2 ]
                }
            },
            {
                "patchline": {
                    "destination": [ "obj-3", 0 ],
                    "source": [ "obj-1", 1 ]
                }
            },
            {
                "patchline": {
                    "destination": [ "obj-5", 0 ],
                    "source": [ "obj-1", 0 ]
                }
            },
            {
                "patchline": {
                    "destination": [ "obj-9", 0 ],
                    "source": [ "obj-1", 3 ]
                }
            },
            {
                "patchline": {
                    "destination": [ "obj-4", 0 ],
                    "source": [ "obj-10", 0 ]
                }
            },
            {
                "patchline": {
                    "destination": [ "obj-12", 0 ],
                    "source": [ "obj-11", 0 ]
                }
            },
            {
                "patchline": {
                    "destination": [ "obj-81", 0 ],
                    "source": [ "obj-13", 1 ]
                }
            },
            {
                "patchline": {
                    "destination": [ "obj-6", 0 ],
                    "source": [ "obj-14", 1 ]
                }
            },
            {
                "patchline": {
                    "destination": [ "obj-16", 0 ],
                    "source": [ "obj-17", 0 ]
                }
            },
            {
                "patchline": {
                    "destination": [ "obj-10", 0 ],
                    "order": 0,
                    "source": [ "obj-18", 0 ]
                }
            },
            {
                "patchline": {
                    "destination": [ "obj-4", 0 ],
                    "order": 1,
                    "source": [ "obj-18", 0 ]
                }
            },
            {
                "patchline": {
                    "destination": [ "obj-1", 0 ],
                    "source": [ "obj-19", 0 ]
                }
            },
            {
                "patchline": {
                    "destination": [ "obj-29", 0 ],
                    "source": [ "obj-2", 0 ]
                }
            },
            {
                "patchline": {
                    "destination": [ "obj-12", 3 ],
                    "source": [ "obj-20", 0 ]
                }
            },
            {
                "patchline": {
                    "destination": [ "obj-4", 0 ],
                    "source": [ "obj-21", 0 ]
                }
            },
            {
                "patchline": {
                    "destination": [ "obj-25", 0 ],
                    "source": [ "obj-22", 0 ]
                }
            },
            {
                "patchline": {
                    "destination": [ "obj-13", 0 ],
                    "source": [ "obj-23", 0 ]
                }
            },
            {
                "patchline": {
                    "destination": [ "obj-1", 0 ],
                    "source": [ "obj-24", 0 ]
                }
            },
            {
                "patchline": {
                    "destination": [ "obj-36", 0 ],
                    "source": [ "obj-25", 0 ]
                }
            },
            {
                "patchline": {
                    "destination": [ "obj-30", 0 ],
                    "source": [ "obj-26", 0 ]
                }
            },
            {
                "patchline": {
                    "destination": [ "obj-1", 0 ],
                    "source": [ "obj-27", 0 ]
                }
            },
            {
                "patchline": {
                    "destination": [ "obj-12", 0 ],
                    "order": 2,
                    "source": [ "obj-28", 0 ]
                }
            },
            {
                "patchline": {
                    "destination": [ "obj-16", 0 ],
                    "order": 0,
                    "source": [ "obj-28", 0 ]
                }
            },
            {
                "patchline": {
                    "destination": [ "obj-34", 0 ],
                    "order": 1,
                    "source": [ "obj-28", 0 ]
                }
            },
            {
                "patchline": {
                    "destination": [ "obj-26", 0 ],
                    "order": 1,
                    "source": [ "obj-29", 0 ]
                }
            },
            {
                "patchline": {
                    "destination": [ "obj-28", 0 ],
                    "order": 0,
                    "source": [ "obj-29", 0 ]
                }
            },
            {
                "patchline": {
                    "destination": [ "obj-11", 0 ],
                    "order": 1,
                    "source": [ "obj-3", 1 ]
                }
            },
            {
                "patchline": {
                    "destination": [ "obj-20", 0 ],
                    "order": 0,
                    "source": [ "obj-3", 1 ]
                }
            },
            {
                "patchline": {
                    "destination": [ "obj-15", 0 ],
                    "source": [ "obj-30", 0 ]
                }
            },
            {
                "patchline": {
                    "destination": [ "obj-1", 0 ],
                    "source": [ "obj-31", 0 ]
                }
            },
            {
                "patchline": {
                    "destination": [ "obj-21", 0 ],
                    "source": [ "obj-32", 0 ]
                }
            },
            {
                "patchline": {
                    "destination": [ "obj-12", 0 ],
                    "order": 1,
                    "source": [ "obj-33", 1 ]
                }
            },
            {
                "patchline": {
                    "destination": [ "obj-16", 0 ],
                    "order": 0,
                    "source": [ "obj-33", 1 ]
                }
            },
            {
                "patchline": {
                    "destination": [ "obj-34", 0 ],
                    "source": [ "obj-33", 0 ]
                }
            },
            {
                "patchline": {
                    "destination": [ "obj-57", 0 ],
                    "source": [ "obj-35", 1 ]
                }
            },
            {
                "patchline": {
                    "destination": [ "obj-62", 0 ],
                    "source": [ "obj-35", 0 ]
                }
            },
            {
                "patchline": {
                    "destination": [ "obj-61", 0 ],
                    "source": [ "obj-36", 0 ]
                }
            },
            {
                "patchline": {
                    "destination": [ "obj-27", 0 ],
                    "source": [ "obj-37", 0 ]
                }
            },
            {
                "patchline": {
                    "destination": [ "obj-58", 0 ],
                    "source": [ "obj-38", 0 ]
                }
            },
            {
                "patchline": {
                    "destination": [ "obj-13", 0 ],
                    "source": [ "obj-39", 0 ]
                }
            },
            {
                "patchline": {
                    "destination": [ "obj-19", 0 ],
                    "order": 1,
                    "source": [ "obj-4", 1 ]
                }
            },
            {
                "patchline": {
                    "destination": [ "obj-24", 0 ],
                    "order": 0,
                    "source": [ "obj-4", 1 ]
                }
            },
            {
                "patchline": {
                    "destination": [ "obj-48", 0 ],
                    "source": [ "obj-40", 0 ]
                }
            },
            {
                "patchline": {
                    "destination": [ "obj-1", 0 ],
                    "order": 1,
                    "source": [ "obj-41", 0 ]
                }
            },
            {
                "patchline": {
                    "destination": [ "obj-60", 0 ],
                    "order": 0,
                    "source": [ "obj-41", 0 ]
                }
            },
            {
                "patchline": {
                    "destination": [ "obj-63", 0 ],
                    "source": [ "obj-42", 0 ]
                }
            },
            {
                "patchline": {
                    "destination": [ "obj-42", 0 ],
                    "source": [ "obj-43", 0 ]
                }
            },
            {
                "patchline": {
                    "destination": [ "obj-49", 0 ],
                    "source": [ "obj-47", 0 ]
                }
            },
            {
                "patchline": {
                    "destination": [ "obj-22", 0 ],
                    "order": 2,
                    "source": [ "obj-48", 0 ]
                }
            },
            {
                "patchline": {
                    "destination": [ "obj-41", 0 ],
                    "order": 1,
                    "source": [ "obj-48", 0 ]
                }
            },
            {
                "patchline": {
                    "destination": [ "obj-63", 0 ],
                    "order": 0,
                    "source": [ "obj-48", 0 ]
                }
            },
            {
                "patchline": {
                    "destination": [ "obj-35", 0 ],
                    "source": [ "obj-49", 1 ]
                }
            },
            {
                "patchline": {
                    "destination": [ "obj-48", 1 ],
                    "source": [ "obj-49", 2 ]
                }
            },
            {
                "patchline": {
                    "destination": [ "obj-48", 0 ],
                    "source": [ "obj-49", 0 ]
                }
            },
            {
                "patchline": {
                    "destination": [ "obj-52", 0 ],
                    "order": 0,
                    "source": [ "obj-50", 0 ]
                }
            },
            {
                "patchline": {
                    "destination": [ "obj-56", 0 ],
                    "order": 1,
                    "source": [ "obj-50", 0 ]
                }
            },
            {
                "patchline": {
                    "destination": [ "obj-35", 0 ],
                    "source": [ "obj-52", 0 ]
                }
            },
            {
                "patchline": {
                    "destination": [ "obj-35", 0 ],
                    "source": [ "obj-54", 0 ]
                }
            },
            {
                "patchline": {
                    "destination": [ "obj-35", 0 ],
                    "source": [ "obj-55", 0 ]
                }
            },
            {
                "patchline": {
                    "destination": [ "obj-47", 0 ],
                    "source": [ "obj-56", 0 ]
                }
            },
            {
                "patchline": {
                    "destination": [ "obj-58", 0 ],
                    "source": [ "obj-57", 0 ]
                }
            },
            {
                "patchline": {
                    "destination": [ "obj-49", 0 ],
                    "midpoints": [ 1232.5, 136.0, 1341.8203125, 136.0, 1341.8203125, -22.9296875, 849.5, -22.9296875 ],
                    "source": [ "obj-58", 0 ]
                }
            },
            {
                "patchline": {
                    "destination": [ "obj-35", 0 ],
                    "source": [ "obj-59", 0 ]
                }
            },
            {
                "patchline": {
                    "destination": [ "obj-7", 0 ],
                    "source": [ "obj-6", 0 ]
                }
            },
            {
                "patchline": {
                    "destination": [ "obj-40", 0 ],
                    "source": [ "obj-62", 0 ]
                }
            },
            {
                "patchline": {
                    "destination": [ "obj-8", 0 ],
                    "source": [ "obj-7", 0 ]
                }
            },
            {
                "patchline": {
                    "destination": [ "obj-16", 0 ],
                    "source": [ "obj-8", 0 ]
                }
            },
            {
                "patchline": {
                    "destination": [ "obj-71", 0 ],
                    "source": [ "obj-81", 0 ]
                }
            },
            {
                "patchline": {
                    "destination": [ "obj-15", 0 ],
                    "source": [ "obj-9", 1 ]
                }
            }
        ],
        "autosave": 0
    }
}