{
    "patcher": {
        "fileversion": 1,
        "appversion": {
            "major": 9,
            "minor": 2,
            "revision": 0,
            "architecture": "x64",
            "modernui": 1
        },
        "classnamespace": "box",
        "rect": [ 275.0, 100.0, 1042.0, 896.0 ],
        "boxes": [
            {
                "box": {
                    "id": "obj-29",
                    "maxclass": "newobj",
                    "numinlets": 1,
                    "numoutlets": 2,
                    "outlettype": [ "jit_matrix", "" ],
                    "patching_rect": [ 49.0, 149.0, 175.0, 22.0 ],
                    "text": "jit.unpack 1 @jump 1 @offset 0"
                }
            },
            {
                "box": {
                    "id": "obj-28",
                    "maxclass": "newobj",
                    "numinlets": 1,
                    "numoutlets": 2,
                    "outlettype": [ "", "" ],
                    "patching_rect": [ 920.0, 23.0, 29.5, 22.0 ],
                    "text": "t l l"
                }
            },
            {
                "box": {
                    "id": "obj-27",
                    "maxclass": "newobj",
                    "numinlets": 2,
                    "numoutlets": 2,
                    "outlettype": [ "", "" ],
                    "patching_rect": [ 1009.0, 59.5, 84.0, 22.0 ],
                    "text": "routepass dim"
                }
            },
            {
                "box": {
                    "id": "obj-25",
                    "maxclass": "newobj",
                    "numinlets": 1,
                    "numoutlets": 1,
                    "outlettype": [ "" ],
                    "patching_rect": [ 1009.0, 27.0, 73.0, 22.0 ],
                    "text": "jit.matrixinfo"
                }
            },
            {
                "box": {
                    "fontface": 0,
                    "fontname": "Arial",
                    "fontsize": 12.0,
                    "id": "obj-24",
                    "maxclass": "jit.fpsgui",
                    "mode": 4,
                    "numinlets": 1,
                    "numoutlets": 2,
                    "outlettype": [ "", "" ],
                    "patching_rect": [ 318.0, 90.0, 80.0, 35.0 ]
                }
            },
            {
                "box": {
                    "format": 6,
                    "id": "obj-18",
                    "maxclass": "flonum",
                    "numinlets": 1,
                    "numoutlets": 2,
                    "outlettype": [ "", "bang" ],
                    "parameter_enable": 0,
                    "patching_rect": [ 751.0, 421.0, 110.0, 22.0 ]
                }
            },
            {
                "box": {
                    "id": "obj-19",
                    "maxclass": "newobj",
                    "numinlets": 1,
                    "numoutlets": 1,
                    "outlettype": [ "bang" ],
                    "patching_rect": [ 774.0, 347.0, 22.0, 22.0 ],
                    "text": "t b"
                }
            },
            {
                "box": {
                    "id": "obj-20",
                    "maxclass": "newobj",
                    "numinlets": 2,
                    "numoutlets": 2,
                    "outlettype": [ "float", "" ],
                    "patching_rect": [ 751.0, 385.0, 35.0, 22.0 ],
                    "text": "timer"
                }
            },
            {
                "box": {
                    "fontname": "Arial",
                    "fontsize": 13.0,
                    "id": "obj-17",
                    "maxclass": "newobj",
                    "numinlets": 1,
                    "numoutlets": 3,
                    "outlettype": [ "jit_matrix", "jit_matrix", "" ],
                    "patching_rect": [ 920.0, 145.0, 76.0, 23.0 ],
                    "text": "jit.unpack 2"
                }
            },
            {
                "box": {
                    "fontname": "Arial",
                    "fontsize": 13.0,
                    "id": "obj-26",
                    "maxclass": "newobj",
                    "numinlets": 1,
                    "numoutlets": 2,
                    "outlettype": [ "jit_matrix", "" ],
                    "patching_rect": [ 920.0, 118.0, 202.0, 23.0 ],
                    "text": "jit.fft 2 float32 338648 @inverse 1"
                }
            },
            {
                "box": {
                    "fontname": "Arial",
                    "fontsize": 13.0,
                    "id": "obj-32",
                    "maxclass": "newobj",
                    "numinlets": 2,
                    "numoutlets": 2,
                    "outlettype": [ "jit_matrix", "" ],
                    "patching_rect": [ 920.0, 59.0, 61.0, 23.0 ],
                    "text": "jit.pack 2"
                }
            },
            {
                "box": {
                    "fontname": "Arial",
                    "fontsize": 13.0,
                    "id": "obj-38",
                    "maxclass": "newobj",
                    "numinlets": 1,
                    "numoutlets": 2,
                    "outlettype": [ "jit_matrix", "" ],
                    "patching_rect": [ 920.0, 90.0, 133.0, 23.0 ],
                    "text": "jit.fft 2 float32 338648"
                }
            },
            {
                "box": {
                    "id": "obj-4",
                    "maxclass": "comment",
                    "numinlets": 1,
                    "numoutlets": 0,
                    "patching_rect": [ 501.0, 448.0, 62.0, 34.0 ],
                    "text": "2) enable \n"
                }
            },
            {
                "box": {
                    "id": "obj-16",
                    "linecount": 2,
                    "maxclass": "comment",
                    "numinlets": 1,
                    "numoutlets": 0,
                    "patching_rect": [ 314.0, 261.0, 77.0, 33.0 ],
                    "text": "FFT -> IFFT took (ms)"
                }
            },
            {
                "box": {
                    "format": 6,
                    "id": "obj-9",
                    "maxclass": "flonum",
                    "numinlets": 1,
                    "numoutlets": 2,
                    "outlettype": [ "", "bang" ],
                    "parameter_enable": 0,
                    "patching_rect": [ 277.0, 296.0, 110.0, 22.0 ]
                }
            },
            {
                "box": {
                    "id": "obj-15",
                    "maxclass": "newobj",
                    "numinlets": 1,
                    "numoutlets": 1,
                    "outlettype": [ "bang" ],
                    "patching_rect": [ 300.0, 222.0, 22.0, 22.0 ],
                    "text": "t b"
                }
            },
            {
                "box": {
                    "id": "obj-13",
                    "maxclass": "newobj",
                    "numinlets": 1,
                    "numoutlets": 1,
                    "outlettype": [ "bang" ],
                    "patching_rect": [ 265.0, 222.0, 22.0, 22.0 ],
                    "text": "t b"
                }
            },
            {
                "box": {
                    "id": "obj-7",
                    "maxclass": "newobj",
                    "numinlets": 2,
                    "numoutlets": 2,
                    "outlettype": [ "float", "" ],
                    "patching_rect": [ 277.0, 260.0, 35.0, 22.0 ],
                    "text": "timer"
                }
            },
            {
                "box": {
                    "id": "obj-12",
                    "maxclass": "message",
                    "numinlets": 2,
                    "numoutlets": 1,
                    "outlettype": [ "" ],
                    "patching_rect": [ 73.0, 78.5, 161.0, 22.0 ],
                    "text": "outputfirst 0, outputlength $1"
                }
            },
            {
                "box": {
                    "id": "obj-23",
                    "maxclass": "message",
                    "numinlets": 2,
                    "numoutlets": 1,
                    "outlettype": [ "" ],
                    "patching_rect": [ 48.0, 23.5, 42.0, 22.0 ],
                    "text": "output"
                }
            },
            {
                "box": {
                    "id": "obj-10",
                    "maxclass": "newobj",
                    "numinlets": 1,
                    "numoutlets": 3,
                    "outlettype": [ "jit_matrix", "jit_matrix", "" ],
                    "patching_rect": [ 48.0, 118.5, 81.0, 22.0 ],
                    "text": "jit.buffer~ test"
                }
            },
            {
                "box": {
                    "id": "obj-8",
                    "maxclass": "comment",
                    "numinlets": 1,
                    "numoutlets": 0,
                    "patching_rect": [ 92.0, 24.5, 85.0, 20.0 ],
                    "text": "1) run the FFT"
                }
            },
            {
                "box": {
                    "bgcolor": [ 0.115, 0.115, 0.115, 0.0 ],
                    "buffername": "test",
                    "id": "obj-6",
                    "maxclass": "waveform~",
                    "numinlets": 5,
                    "numoutlets": 6,
                    "outlettype": [ "float", "float", "float", "float", "list", "" ],
                    "patching_rect": [ 137.0, 608.0, 929.25, 235.0 ],
                    "vzoom": 4.401000022888184,
                    "waveformcolor": [ 0.12156862745098039, 0.27450980392156865, 0.5568627450980392, 0.63 ]
                }
            },
            {
                "box": {
                    "id": "obj-5",
                    "maxclass": "newobj",
                    "numinlets": 1,
                    "numoutlets": 1,
                    "outlettype": [ "bang" ],
                    "patching_rect": [ 467.0, 105.0, 58.0, 22.0 ],
                    "text": "loadbang"
                }
            },
            {
                "box": {
                    "id": "obj-3",
                    "maxclass": "newobj",
                    "numinlets": 2,
                    "numoutlets": 1,
                    "outlettype": [ "float" ],
                    "patching_rect": [ 517.0, 292.0, 39.0, 22.0 ],
                    "text": "* 1."
                }
            },
            {
                "box": {
                    "id": "obj-2",
                    "maxclass": "newobj",
                    "numinlets": 2,
                    "numoutlets": 1,
                    "outlettype": [ "float" ],
                    "patching_rect": [ 537.0, 247.0, 47.0, 22.0 ],
                    "text": "* 0.001"
                }
            },
            {
                "box": {
                    "id": "obj-114",
                    "maxclass": "message",
                    "numinlets": 2,
                    "numoutlets": 1,
                    "outlettype": [ "" ],
                    "patching_rect": [ 169.0, 382.0, 95.0, 22.0 ],
                    "text": "matrix_name $2"
                }
            },
            {
                "box": {
                    "id": "obj-116",
                    "maxclass": "newobj",
                    "numinlets": 2,
                    "numoutlets": 1,
                    "outlettype": [ "signal" ],
                    "patching_rect": [ 452.0, 333.0, 29.5, 22.0 ],
                    "text": "*~"
                }
            },
            {
                "box": {
                    "id": "obj-117",
                    "maxclass": "newobj",
                    "numinlets": 2,
                    "numoutlets": 1,
                    "outlettype": [ "signal" ],
                    "patching_rect": [ 452.0, 292.0, 62.0, 22.0 ],
                    "text": "phasor~ 1"
                }
            },
            {
                "box": {
                    "id": "obj-118",
                    "maxclass": "ezdac~",
                    "numinlets": 2,
                    "numoutlets": 0,
                    "patching_rect": [ 452.0, 437.0, 45.0, 45.0 ]
                }
            },
            {
                "box": {
                    "id": "obj-119",
                    "maxclass": "newobj",
                    "numinlets": 1,
                    "numoutlets": 2,
                    "outlettype": [ "signal", "" ],
                    "patching_rect": [ 452.0, 402.0, 149.0, 22.0 ],
                    "text": "jit.peek~ foo 1 0 @interp 1"
                }
            },
            {
                "box": {
                    "id": "obj-120",
                    "maxclass": "newobj",
                    "numinlets": 1,
                    "numoutlets": 2,
                    "outlettype": [ "jit_matrix", "" ],
                    "patching_rect": [ 156.0, 349.0, 53.0, 22.0 ],
                    "text": "jit.matrix"
                }
            },
            {
                "box": {
                    "id": "obj-121",
                    "maxclass": "newobj",
                    "numinlets": 1,
                    "numoutlets": 2,
                    "outlettype": [ "jit_matrix", "" ],
                    "patching_rect": [ 156.0, 320.0, 114.0, 22.0 ],
                    "text": "jit.coerce 1 float32"
                }
            },
            {
                "box": {
                    "id": "obj-124",
                    "maxclass": "newobj",
                    "numinlets": 1,
                    "numoutlets": 2,
                    "outlettype": [ "jit_matrix", "" ],
                    "patching_rect": [ 156.0, 291.0, 57.0, 22.0 ],
                    "text": "jit.matrix"
                }
            },
            {
                "box": {
                    "depthbuffer": 1,
                    "doublebuffer": 1,
                    "fsaa": 0,
                    "id": "obj-89",
                    "maxclass": "jit.pwindow",
                    "numinlets": 1,
                    "numoutlets": 2,
                    "outlettype": [ "jit_matrix", "" ],
                    "patching_rect": [ 137.0, 505.0, 929.5, 101.0 ],
                    "stereo": 0,
                    "sync": 1
                }
            },
            {
                "box": {
                    "id": "obj-78",
                    "maxclass": "newobj",
                    "numinlets": 2,
                    "numoutlets": 3,
                    "outlettype": [ "", "jit_matrix", "" ],
                    "patching_rect": [ 48.0, 256.0, 87.0, 22.0 ],
                    "text": "jit.gpu.tomatrix"
                }
            },
            {
                "box": {
                    "id": "obj-76",
                    "maxclass": "newobj",
                    "numinlets": 1,
                    "numoutlets": 3,
                    "outlettype": [ "", "", "" ],
                    "patching_rect": [ 48.0, 301.0, 79.0, 22.0 ],
                    "text": "jit.gpu.submit"
                }
            },
            {
                "box": {
                    "depthbuffer": 1,
                    "doublebuffer": 1,
                    "fsaa": 0,
                    "id": "obj-60",
                    "maxclass": "jit.pwindow",
                    "numinlets": 1,
                    "numoutlets": 2,
                    "outlettype": [ "jit_matrix", "" ],
                    "patching_rect": [ 137.0, 608.0, 929.25, 235.0 ],
                    "stereo": 0,
                    "sync": 1
                }
            },
            {
                "box": {
                    "id": "obj-52",
                    "maxclass": "newobj",
                    "numinlets": 2,
                    "numoutlets": 3,
                    "outlettype": [ "", "jit_matrix", "" ],
                    "patching_rect": [ 48.0, 216.0, 196.0, 22.0 ],
                    "text": "jit.gpu.tomatrix"
                }
            },
            {
                "box": {
                    "filename": "compute-FFT.js",
                    "id": "obj-81",
                    "maxclass": "newobj",
                    "numinlets": 1,
                    "numoutlets": 3,
                    "outlettype": [ "", "", "" ],
                    "patching_rect": [ 48.0, 177.0, 155.0, 22.0 ],
                    "saved_object_attributes": {
                        "parameter_enable": 0
                    },
                    "text": "v8 compute-FFT.js",
                    "textfile": {
                        "filename": "compute-FFT.js",
                        "flags": 0,
                        "embed": 0,
                        "autowatch": 1
                    }
                }
            },
            {
                "box": {
                    "id": "obj-93",
                    "maxclass": "newobj",
                    "numinlets": 2,
                    "numoutlets": 1,
                    "outlettype": [ "float" ],
                    "patching_rect": [ 452.0, 247.0, 49.0, 22.0 ],
                    "text": "!/ 1000."
                }
            },
            {
                "box": {
                    "id": "obj-94",
                    "maxclass": "newobj",
                    "numinlets": 1,
                    "numoutlets": 10,
                    "outlettype": [ "float", "list", "float", "float", "float", "float", "float", "", "int", "" ],
                    "patching_rect": [ 517.0, 199.0, 113.5, 22.0 ],
                    "text": "info~ test"
                }
            },
            {
                "box": {
                    "id": "obj-14",
                    "maxclass": "message",
                    "numinlets": 2,
                    "numoutlets": 1,
                    "outlettype": [ "" ],
                    "patching_rect": [ 467.0, 133.0, 117.0, 22.0 ],
                    "text": "replace prim.loop.aif"
                }
            },
            {
                "box": {
                    "id": "obj-1",
                    "maxclass": "newobj",
                    "numinlets": 1,
                    "numoutlets": 2,
                    "outlettype": [ "float", "bang" ],
                    "patching_rect": [ 467.0, 165.0, 69.0, 22.0 ],
                    "text": "buffer~ test"
                }
            },
            {
                "box": {
                    "background": 1,
                    "depthbuffer": 1,
                    "doublebuffer": 1,
                    "fsaa": 0,
                    "id": "obj-22",
                    "maxclass": "jit.pwindow",
                    "numinlets": 1,
                    "numoutlets": 2,
                    "outlettype": [ "jit_matrix", "" ],
                    "patching_rect": [ 137.0, 375.0, 929.5, 128.0 ],
                    "stereo": 0,
                    "sync": 1
                }
            }
        ],
        "lines": [
            {
                "patchline": {
                    "destination": [ "obj-94", 0 ],
                    "source": [ "obj-1", 1 ]
                }
            },
            {
                "patchline": {
                    "destination": [ "obj-29", 0 ],
                    "source": [ "obj-10", 0 ]
                }
            },
            {
                "patchline": {
                    "destination": [ "obj-119", 0 ],
                    "source": [ "obj-114", 0 ]
                }
            },
            {
                "patchline": {
                    "destination": [ "obj-119", 0 ],
                    "source": [ "obj-116", 0 ]
                }
            },
            {
                "patchline": {
                    "destination": [ "obj-116", 0 ],
                    "source": [ "obj-117", 0 ]
                }
            },
            {
                "patchline": {
                    "destination": [ "obj-118", 1 ],
                    "order": 0,
                    "source": [ "obj-119", 0 ]
                }
            },
            {
                "patchline": {
                    "destination": [ "obj-118", 0 ],
                    "order": 1,
                    "source": [ "obj-119", 0 ]
                }
            },
            {
                "patchline": {
                    "destination": [ "obj-10", 0 ],
                    "source": [ "obj-12", 0 ]
                }
            },
            {
                "patchline": {
                    "destination": [ "obj-114", 0 ],
                    "order": 0,
                    "source": [ "obj-120", 0 ]
                }
            },
            {
                "patchline": {
                    "destination": [ "obj-89", 0 ],
                    "order": 1,
                    "source": [ "obj-120", 0 ]
                }
            },
            {
                "patchline": {
                    "destination": [ "obj-120", 0 ],
                    "source": [ "obj-121", 0 ]
                }
            },
            {
                "patchline": {
                    "destination": [ "obj-121", 0 ],
                    "source": [ "obj-124", 0 ]
                }
            },
            {
                "patchline": {
                    "destination": [ "obj-20", 0 ],
                    "order": 0,
                    "source": [ "obj-13", 0 ]
                }
            },
            {
                "patchline": {
                    "destination": [ "obj-7", 0 ],
                    "order": 1,
                    "source": [ "obj-13", 0 ]
                }
            },
            {
                "patchline": {
                    "destination": [ "obj-1", 0 ],
                    "source": [ "obj-14", 0 ]
                }
            },
            {
                "patchline": {
                    "destination": [ "obj-7", 1 ],
                    "source": [ "obj-15", 0 ]
                }
            },
            {
                "patchline": {
                    "destination": [ "obj-19", 0 ],
                    "order": 0,
                    "source": [ "obj-17", 0 ]
                }
            },
            {
                "patchline": {
                    "destination": [ "obj-22", 0 ],
                    "order": 1,
                    "source": [ "obj-17", 0 ]
                }
            },
            {
                "patchline": {
                    "destination": [ "obj-20", 1 ],
                    "source": [ "obj-19", 0 ]
                }
            },
            {
                "patchline": {
                    "destination": [ "obj-3", 1 ],
                    "source": [ "obj-2", 0 ]
                }
            },
            {
                "patchline": {
                    "destination": [ "obj-18", 0 ],
                    "source": [ "obj-20", 0 ]
                }
            },
            {
                "patchline": {
                    "destination": [ "obj-10", 0 ],
                    "order": 1,
                    "source": [ "obj-23", 0 ]
                }
            },
            {
                "patchline": {
                    "destination": [ "obj-13", 0 ],
                    "order": 0,
                    "source": [ "obj-23", 0 ]
                }
            },
            {
                "patchline": {
                    "destination": [ "obj-27", 0 ],
                    "source": [ "obj-25", 0 ]
                }
            },
            {
                "patchline": {
                    "destination": [ "obj-17", 0 ],
                    "source": [ "obj-26", 0 ]
                }
            },
            {
                "patchline": {
                    "destination": [ "obj-26", 0 ],
                    "order": 0,
                    "source": [ "obj-27", 0 ]
                }
            },
            {
                "patchline": {
                    "destination": [ "obj-38", 0 ],
                    "order": 1,
                    "source": [ "obj-27", 0 ]
                }
            },
            {
                "patchline": {
                    "destination": [ "obj-25", 0 ],
                    "source": [ "obj-28", 1 ]
                }
            },
            {
                "patchline": {
                    "destination": [ "obj-32", 0 ],
                    "source": [ "obj-28", 0 ]
                }
            },
            {
                "patchline": {
                    "destination": [ "obj-24", 0 ],
                    "order": 0,
                    "source": [ "obj-29", 0 ]
                }
            },
            {
                "patchline": {
                    "destination": [ "obj-81", 0 ],
                    "order": 1,
                    "source": [ "obj-29", 0 ]
                }
            },
            {
                "patchline": {
                    "destination": [ "obj-116", 1 ],
                    "source": [ "obj-3", 0 ]
                }
            },
            {
                "patchline": {
                    "destination": [ "obj-38", 0 ],
                    "midpoints": [ 929.5, 85.0, 929.5, 85.0 ],
                    "source": [ "obj-32", 0 ]
                }
            },
            {
                "patchline": {
                    "destination": [ "obj-26", 0 ],
                    "source": [ "obj-38", 0 ]
                }
            },
            {
                "patchline": {
                    "destination": [ "obj-14", 0 ],
                    "source": [ "obj-5", 0 ]
                }
            },
            {
                "patchline": {
                    "destination": [ "obj-60", 0 ],
                    "source": [ "obj-52", 1 ]
                }
            },
            {
                "patchline": {
                    "destination": [ "obj-78", 0 ],
                    "source": [ "obj-52", 0 ]
                }
            },
            {
                "patchline": {
                    "destination": [ "obj-9", 0 ],
                    "source": [ "obj-7", 0 ]
                }
            },
            {
                "patchline": {
                    "destination": [ "obj-124", 0 ],
                    "order": 1,
                    "source": [ "obj-78", 1 ]
                }
            },
            {
                "patchline": {
                    "destination": [ "obj-15", 0 ],
                    "order": 0,
                    "source": [ "obj-78", 1 ]
                }
            },
            {
                "patchline": {
                    "destination": [ "obj-76", 0 ],
                    "source": [ "obj-78", 0 ]
                }
            },
            {
                "patchline": {
                    "destination": [ "obj-52", 1 ],
                    "source": [ "obj-81", 2 ]
                }
            },
            {
                "patchline": {
                    "destination": [ "obj-52", 0 ],
                    "source": [ "obj-81", 0 ]
                }
            },
            {
                "patchline": {
                    "destination": [ "obj-78", 1 ],
                    "source": [ "obj-81", 1 ]
                }
            },
            {
                "patchline": {
                    "destination": [ "obj-117", 0 ],
                    "source": [ "obj-93", 0 ]
                }
            },
            {
                "patchline": {
                    "destination": [ "obj-12", 0 ],
                    "order": 2,
                    "source": [ "obj-94", 6 ]
                }
            },
            {
                "patchline": {
                    "destination": [ "obj-2", 0 ],
                    "order": 0,
                    "source": [ "obj-94", 6 ]
                }
            },
            {
                "patchline": {
                    "destination": [ "obj-3", 0 ],
                    "source": [ "obj-94", 0 ]
                }
            },
            {
                "patchline": {
                    "destination": [ "obj-93", 0 ],
                    "order": 1,
                    "source": [ "obj-94", 6 ]
                }
            }
        ],
        "autosave": 0
    }
}