{
    "patcher": {
        "fileversion": 1,
        "appversion": {
            "major": 9,
            "minor": 2,
            "revision": 0,
            "architecture": "x64",
            "modernui": 1
        },
        "classnamespace": "box",
        "rect": [ 34.0, 100.0, 1340.0, 893.0 ],
        "boxes": [
            {
                "box": {
                    "fontface": 0,
                    "fontname": "Arial",
                    "fontsize": 12.0,
                    "id": "obj-8",
                    "maxclass": "jit.fpsgui",
                    "numinlets": 1,
                    "numoutlets": 2,
                    "outlettype": [ "", "" ],
                    "patching_rect": [ 125.0, 841.0, 80.0, 35.0 ]
                }
            },
            {
                "box": {
                    "id": "obj-6",
                    "maxclass": "newobj",
                    "numinlets": 1,
                    "numoutlets": 1,
                    "outlettype": [ "" ],
                    "patching_rect": [ 91.0, 594.0, 70.0, 22.0 ],
                    "text": "loadmess 1"
                }
            },
            {
                "box": {
                    "id": "obj-36",
                    "maxclass": "newobj",
                    "numinlets": 1,
                    "numoutlets": 2,
                    "outlettype": [ "", "" ],
                    "patching_rect": [ 56.0, 841.0, 59.0, 22.0 ],
                    "text": "jit.gl.layer"
                }
            },
            {
                "box": {
                    "id": "obj-35",
                    "maxclass": "newobj",
                    "numinlets": 1,
                    "numoutlets": 2,
                    "outlettype": [ "", "" ],
                    "patching_rect": [ 56.0, 794.0, 382.0, 22.0 ],
                    "text": "jit.gpu.totexture @source canvasImg @depends_on transformPosition"
                }
            },
            {
                "box": {
                    "id": "obj-34",
                    "maxclass": "toggle",
                    "numinlets": 1,
                    "numoutlets": 1,
                    "outlettype": [ "int" ],
                    "parameter_enable": 0,
                    "patching_rect": [ 91.0, 632.0, 24.0, 24.0 ]
                }
            },
            {
                "box": {
                    "filename": "transformPosition.jxs",
                    "id": "obj-32",
                    "maxclass": "newobj",
                    "numinlets": 3,
                    "numoutlets": 3,
                    "outlettype": [ "", "", "" ],
                    "patching_rect": [ 56.0, 750.0, 938.0, 22.0 ],
                    "text": "jit.gpu.compute @name transformPosition @file transformPosition.jxs @automatic 0 @threads 32 32 1 @canvasImg canvasImg @posImg posImg @depends_on clearCanvas",
                    "textfile": {
                        "filename": "transformPosition.jxs",
                        "flags": 0,
                        "embed": 0,
                        "autowatch": 1
                    }
                }
            },
            {
                "box": {
                    "id": "obj-27",
                    "maxclass": "newobj",
                    "numinlets": 1,
                    "numoutlets": 1,
                    "outlettype": [ "bang" ],
                    "patching_rect": [ 684.0, 296.0, 58.0, 22.0 ],
                    "text": "loadbang"
                }
            },
            {
                "box": {
                    "id": "obj-26",
                    "maxclass": "newobj",
                    "numinlets": 1,
                    "numoutlets": 2,
                    "outlettype": [ "jit_matrix", "" ],
                    "patching_rect": [ 684.0, 323.0, 163.0, 22.0 ],
                    "text": "jit.matrix 4 float32 1920 1080"
                }
            },
            {
                "box": {
                    "id": "obj-25",
                    "maxclass": "newobj",
                    "numinlets": 1,
                    "numoutlets": 2,
                    "outlettype": [ "", "" ],
                    "patching_rect": [ 92.0, 672.0, 47.0, 22.0 ],
                    "text": "jit.bang"
                }
            },
            {
                "box": {
                    "filename": "clearCanvas.jxs",
                    "id": "obj-24",
                    "maxclass": "newobj",
                    "numinlets": 1,
                    "numoutlets": 2,
                    "outlettype": [ "", "" ],
                    "patching_rect": [ 92.0, 703.0, 642.0, 22.0 ],
                    "text": "jit.gpu.compute @name clearCanvas @file clearCanvas.jxs @automatic 0 @threads 120 68 1 @canvasImg canvasImg",
                    "textfile": {
                        "filename": "clearCanvas.jxs",
                        "flags": 0,
                        "embed": 0,
                        "autowatch": 1
                    }
                }
            },
            {
                "box": {
                    "id": "obj-23",
                    "maxclass": "newobj",
                    "numinlets": 1,
                    "numoutlets": 2,
                    "outlettype": [ "", "" ],
                    "patching_rect": [ 684.0, 363.0, 423.0, 22.0 ],
                    "text": "jit.gpu.image @dim 1920 1080 @format RGBA32_FLOAT @name canvasImg"
                }
            },
            {
                "box": {
                    "id": "obj-21",
                    "maxclass": "newobj",
                    "numinlets": 0,
                    "numoutlets": 1,
                    "outlettype": [ "jit_gl_texture" ],
                    "patcher": {
                        "fileversion": 1,
                        "appversion": {
                            "major": 9,
                            "minor": 2,
                            "revision": 0,
                            "architecture": "x64",
                            "modernui": 1
                        },
                        "classnamespace": "box",
                        "rect": [ 59.0, 119.0, 1000.0, 780.0 ],
                        "boxes": [
                            {
                                "box": {
                                    "comment": "",
                                    "id": "obj-1",
                                    "index": 1,
                                    "maxclass": "outlet",
                                    "numinlets": 1,
                                    "numoutlets": 0,
                                    "patching_rect": [ 50.0, 465.0, 30.0, 30.0 ]
                                }
                            },
                            {
                                "box": {
                                    "id": "obj-109",
                                    "maxclass": "newobj",
                                    "numinlets": 1,
                                    "numoutlets": 2,
                                    "outlettype": [ "", "" ],
                                    "patching_rect": [ 254.0, 100.0, 47.0, 22.0 ],
                                    "text": "jit.bang"
                                }
                            },
                            {
                                "box": {
                                    "id": "obj-110",
                                    "maxclass": "newobj",
                                    "numinlets": 1,
                                    "numoutlets": 1,
                                    "outlettype": [ "" ],
                                    "patching_rect": [ 319.0, 100.0, 87.0, 22.0 ],
                                    "text": "loadmess 0.01"
                                }
                            },
                            {
                                "box": {
                                    "format": 6,
                                    "id": "obj-111",
                                    "maxclass": "flonum",
                                    "numinlets": 1,
                                    "numoutlets": 2,
                                    "outlettype": [ "", "bang" ],
                                    "parameter_enable": 0,
                                    "patching_rect": [ 319.0, 145.0, 50.0, 22.0 ]
                                }
                            },
                            {
                                "box": {
                                    "id": "obj-112",
                                    "maxclass": "newobj",
                                    "numinlets": 1,
                                    "numoutlets": 2,
                                    "outlettype": [ "float", "float" ],
                                    "patching_rect": [ 254.0, 218.0, 29.5, 22.0 ],
                                    "text": "t f f"
                                }
                            },
                            {
                                "box": {
                                    "id": "obj-113",
                                    "maxclass": "newobj",
                                    "numinlets": 2,
                                    "numoutlets": 1,
                                    "outlettype": [ "float" ],
                                    "patching_rect": [ 254.0, 183.0, 29.5, 22.0 ],
                                    "text": "+ 0."
                                }
                            },
                            {
                                "box": {
                                    "id": "obj-114",
                                    "maxclass": "newobj",
                                    "numinlets": 2,
                                    "numoutlets": 1,
                                    "outlettype": [ "float" ],
                                    "patching_rect": [ 254.0, 145.0, 29.5, 22.0 ],
                                    "text": "f 0."
                                }
                            },
                            {
                                "box": {
                                    "id": "obj-59",
                                    "maxclass": "newobj",
                                    "numinlets": 3,
                                    "numoutlets": 2,
                                    "outlettype": [ "jit_gl_texture", "" ],
                                    "patcher": {
                                        "fileversion": 1,
                                        "appversion": {
                                            "major": 9,
                                            "minor": 2,
                                            "revision": 0,
                                            "architecture": "x64",
                                            "modernui": 1
                                        },
                                        "classnamespace": "jit.gen",
                                        "rect": [ 84.0, 144.0, 600.0, 450.0 ],
                                        "boxes": [
                                            {
                                                "box": {
                                                    "id": "obj-12",
                                                    "maxclass": "newobj",
                                                    "numinlets": 0,
                                                    "numoutlets": 1,
                                                    "outlettype": [ "" ],
                                                    "patching_rect": [ 354.0, 270.0, 19.0, 22.0 ],
                                                    "text": "1"
                                                }
                                            },
                                            {
                                                "box": {
                                                    "id": "obj-11",
                                                    "maxclass": "newobj",
                                                    "numinlets": 2,
                                                    "numoutlets": 1,
                                                    "outlettype": [ "" ],
                                                    "patching_rect": [ 269.0, 319.0, 64.0, 22.0 ],
                                                    "text": "concat 3 1"
                                                }
                                            },
                                            {
                                                "box": {
                                                    "id": "obj-10",
                                                    "maxclass": "newobj",
                                                    "numinlets": 1,
                                                    "numoutlets": 1,
                                                    "outlettype": [ "" ],
                                                    "patching_rect": [ 277.0, 283.0, 23.0, 22.0 ],
                                                    "text": "- 1"
                                                }
                                            },
                                            {
                                                "box": {
                                                    "id": "obj-3",
                                                    "maxclass": "newobj",
                                                    "numinlets": 1,
                                                    "numoutlets": 1,
                                                    "outlettype": [ "" ],
                                                    "patching_rect": [ 277.0, 251.0, 23.0, 22.0 ],
                                                    "text": "* 2"
                                                }
                                            },
                                            {
                                                "box": {
                                                    "id": "obj-9",
                                                    "maxclass": "newobj",
                                                    "numinlets": 3,
                                                    "numoutlets": 1,
                                                    "outlettype": [ "" ],
                                                    "patching_rect": [ 282.0, 208.0, 67.0, 22.0 ],
                                                    "text": "vec 0. 0. 0."
                                                }
                                            },
                                            {
                                                "box": {
                                                    "id": "obj-8",
                                                    "maxclass": "newobj",
                                                    "numinlets": 1,
                                                    "numoutlets": 1,
                                                    "outlettype": [ "" ],
                                                    "patching_rect": [ 369.0, 67.0, 39.0, 22.0 ],
                                                    "text": "swiz r"
                                                }
                                            },
                                            {
                                                "box": {
                                                    "id": "obj-7",
                                                    "maxclass": "newobj",
                                                    "numinlets": 1,
                                                    "numoutlets": 1,
                                                    "outlettype": [ "" ],
                                                    "patching_rect": [ 209.5, 67.0, 39.0, 22.0 ],
                                                    "text": "swiz r"
                                                }
                                            },
                                            {
                                                "box": {
                                                    "id": "obj-6",
                                                    "maxclass": "newobj",
                                                    "numinlets": 1,
                                                    "numoutlets": 1,
                                                    "outlettype": [ "" ],
                                                    "patching_rect": [ 50.0, 67.0, 39.0, 22.0 ],
                                                    "text": "swiz r"
                                                }
                                            },
                                            {
                                                "box": {
                                                    "id": "obj-5",
                                                    "maxclass": "newobj",
                                                    "numinlets": 0,
                                                    "numoutlets": 1,
                                                    "outlettype": [ "" ],
                                                    "patching_rect": [ 365.0, 14.0, 28.0, 22.0 ],
                                                    "text": "in 3"
                                                }
                                            },
                                            {
                                                "box": {
                                                    "id": "obj-1",
                                                    "maxclass": "newobj",
                                                    "numinlets": 0,
                                                    "numoutlets": 1,
                                                    "outlettype": [ "" ],
                                                    "patching_rect": [ 50.0, 14.0, 28.0, 22.0 ],
                                                    "text": "in 1"
                                                }
                                            },
                                            {
                                                "box": {
                                                    "id": "obj-2",
                                                    "maxclass": "newobj",
                                                    "numinlets": 0,
                                                    "numoutlets": 1,
                                                    "outlettype": [ "" ],
                                                    "patching_rect": [ 215.0, 14.0, 28.0, 22.0 ],
                                                    "text": "in 2"
                                                }
                                            },
                                            {
                                                "box": {
                                                    "id": "obj-4",
                                                    "maxclass": "newobj",
                                                    "numinlets": 1,
                                                    "numoutlets": 0,
                                                    "patching_rect": [ 176.0, 418.0, 35.0, 22.0 ],
                                                    "text": "out 1"
                                                }
                                            }
                                        ],
                                        "lines": [
                                            {
                                                "patchline": {
                                                    "destination": [ "obj-6", 0 ],
                                                    "source": [ "obj-1", 0 ]
                                                }
                                            },
                                            {
                                                "patchline": {
                                                    "destination": [ "obj-11", 0 ],
                                                    "source": [ "obj-10", 0 ]
                                                }
                                            },
                                            {
                                                "patchline": {
                                                    "destination": [ "obj-4", 0 ],
                                                    "source": [ "obj-11", 0 ]
                                                }
                                            },
                                            {
                                                "patchline": {
                                                    "destination": [ "obj-11", 1 ],
                                                    "source": [ "obj-12", 0 ]
                                                }
                                            },
                                            {
                                                "patchline": {
                                                    "destination": [ "obj-7", 0 ],
                                                    "source": [ "obj-2", 0 ]
                                                }
                                            },
                                            {
                                                "patchline": {
                                                    "destination": [ "obj-10", 0 ],
                                                    "source": [ "obj-3", 0 ]
                                                }
                                            },
                                            {
                                                "patchline": {
                                                    "destination": [ "obj-8", 0 ],
                                                    "source": [ "obj-5", 0 ]
                                                }
                                            },
                                            {
                                                "patchline": {
                                                    "destination": [ "obj-9", 0 ],
                                                    "source": [ "obj-6", 0 ]
                                                }
                                            },
                                            {
                                                "patchline": {
                                                    "destination": [ "obj-9", 1 ],
                                                    "source": [ "obj-7", 0 ]
                                                }
                                            },
                                            {
                                                "patchline": {
                                                    "destination": [ "obj-9", 2 ],
                                                    "source": [ "obj-8", 0 ]
                                                }
                                            },
                                            {
                                                "patchline": {
                                                    "destination": [ "obj-3", 0 ],
                                                    "source": [ "obj-9", 0 ]
                                                }
                                            }
                                        ]
                                    },
                                    "patching_rect": [ 50.0, 392.0, 301.0, 22.0 ],
                                    "text": "jit.gl.pix"
                                }
                            },
                            {
                                "box": {
                                    "id": "obj-58",
                                    "maxclass": "newobj",
                                    "numinlets": 2,
                                    "numoutlets": 1,
                                    "outlettype": [ "float" ],
                                    "patching_rect": [ 332.0, 281.0, 36.0, 22.0 ],
                                    "text": "+ 20."
                                }
                            },
                            {
                                "box": {
                                    "id": "obj-57",
                                    "maxclass": "message",
                                    "numinlets": 2,
                                    "numoutlets": 1,
                                    "outlettype": [ "" ],
                                    "patching_rect": [ 332.0, 314.0, 48.0, 22.0 ],
                                    "text": "time $1"
                                }
                            },
                            {
                                "box": {
                                    "id": "obj-56",
                                    "maxclass": "message",
                                    "numinlets": 2,
                                    "numoutlets": 1,
                                    "outlettype": [ "" ],
                                    "patching_rect": [ 191.0, 314.0, 48.0, 22.0 ],
                                    "text": "time $1"
                                }
                            },
                            {
                                "box": {
                                    "id": "obj-55",
                                    "maxclass": "message",
                                    "numinlets": 2,
                                    "numoutlets": 1,
                                    "outlettype": [ "" ],
                                    "patching_rect": [ 79.0, 314.0, 48.0, 22.0 ],
                                    "text": "time $1"
                                }
                            },
                            {
                                "box": {
                                    "id": "obj-52",
                                    "maxclass": "newobj",
                                    "numinlets": 2,
                                    "numoutlets": 1,
                                    "outlettype": [ "float" ],
                                    "patching_rect": [ 191.0, 281.0, 36.0, 22.0 ],
                                    "text": "+ 10."
                                }
                            },
                            {
                                "box": {
                                    "id": "obj-51",
                                    "maxclass": "newobj",
                                    "numinlets": 1,
                                    "numoutlets": 2,
                                    "outlettype": [ "jit_gl_texture", "" ],
                                    "patching_rect": [ 332.0, 351.0, 111.0, 22.0 ],
                                    "text": "jit.gl.bfg @zoom 10"
                                }
                            },
                            {
                                "box": {
                                    "id": "obj-50",
                                    "maxclass": "newobj",
                                    "numinlets": 1,
                                    "numoutlets": 2,
                                    "outlettype": [ "jit_gl_texture", "" ],
                                    "patching_rect": [ 191.0, 351.0, 111.0, 22.0 ],
                                    "text": "jit.gl.bfg @zoom 10"
                                }
                            },
                            {
                                "box": {
                                    "id": "obj-92",
                                    "maxclass": "newobj",
                                    "numinlets": 1,
                                    "numoutlets": 2,
                                    "outlettype": [ "", "" ],
                                    "patching_rect": [ 50.0, 100.0, 47.0, 22.0 ],
                                    "text": "jit.bang"
                                }
                            },
                            {
                                "box": {
                                    "attr": "basis",
                                    "id": "obj-93",
                                    "maxclass": "attrui",
                                    "numinlets": 1,
                                    "numoutlets": 1,
                                    "outlettype": [ "" ],
                                    "parameter_enable": 0,
                                    "patching_rect": [ 73.0, 218.0, 165.0, 22.0 ],
                                    "style": "default",
                                    "text_width": 55.333343505859375
                                }
                            },
                            {
                                "box": {
                                    "id": "obj-94",
                                    "linecount": 3,
                                    "maxclass": "newobj",
                                    "numinlets": 1,
                                    "numoutlets": 2,
                                    "outlettype": [ "jit_gl_texture", "" ],
                                    "patching_rect": [ 50.0, 134.0, 119.0, 49.0 ],
                                    "text": "jit.gl.texture @type float32 @adapt 0 @dim 512 512"
                                }
                            },
                            {
                                "box": {
                                    "id": "obj-95",
                                    "maxclass": "newobj",
                                    "numinlets": 1,
                                    "numoutlets": 2,
                                    "outlettype": [ "jit_gl_texture", "" ],
                                    "patching_rect": [ 50.0, 351.0, 111.0, 22.0 ],
                                    "text": "jit.gl.bfg @zoom 10"
                                }
                            },
                            {
                                "box": {
                                    "attr": "zoom",
                                    "id": "obj-96",
                                    "maxclass": "attrui",
                                    "numinlets": 1,
                                    "numoutlets": 1,
                                    "outlettype": [ "" ],
                                    "parameter_enable": 0,
                                    "patching_rect": [ 73.0, 242.0, 117.0, 22.0 ],
                                    "text_width": 56.0
                                }
                            }
                        ],
                        "lines": [
                            {
                                "patchline": {
                                    "destination": [ "obj-114", 0 ],
                                    "source": [ "obj-109", 0 ]
                                }
                            },
                            {
                                "patchline": {
                                    "destination": [ "obj-111", 0 ],
                                    "source": [ "obj-110", 0 ]
                                }
                            },
                            {
                                "patchline": {
                                    "destination": [ "obj-113", 1 ],
                                    "source": [ "obj-111", 0 ]
                                }
                            },
                            {
                                "patchline": {
                                    "destination": [ "obj-114", 1 ],
                                    "midpoints": [ 274.0, 250.0, 303.625, 250.0, 303.625, 134.02734375, 274.0, 134.02734375 ],
                                    "source": [ "obj-112", 1 ]
                                }
                            },
                            {
                                "patchline": {
                                    "destination": [ "obj-52", 0 ],
                                    "order": 1,
                                    "source": [ "obj-112", 0 ]
                                }
                            },
                            {
                                "patchline": {
                                    "destination": [ "obj-55", 0 ],
                                    "order": 2,
                                    "source": [ "obj-112", 0 ]
                                }
                            },
                            {
                                "patchline": {
                                    "destination": [ "obj-58", 0 ],
                                    "order": 0,
                                    "source": [ "obj-112", 0 ]
                                }
                            },
                            {
                                "patchline": {
                                    "destination": [ "obj-112", 0 ],
                                    "source": [ "obj-113", 0 ]
                                }
                            },
                            {
                                "patchline": {
                                    "destination": [ "obj-113", 0 ],
                                    "source": [ "obj-114", 0 ]
                                }
                            },
                            {
                                "patchline": {
                                    "destination": [ "obj-59", 1 ],
                                    "source": [ "obj-50", 0 ]
                                }
                            },
                            {
                                "patchline": {
                                    "destination": [ "obj-59", 2 ],
                                    "source": [ "obj-51", 0 ]
                                }
                            },
                            {
                                "patchline": {
                                    "destination": [ "obj-56", 0 ],
                                    "source": [ "obj-52", 0 ]
                                }
                            },
                            {
                                "patchline": {
                                    "destination": [ "obj-95", 0 ],
                                    "source": [ "obj-55", 0 ]
                                }
                            },
                            {
                                "patchline": {
                                    "destination": [ "obj-50", 0 ],
                                    "source": [ "obj-56", 0 ]
                                }
                            },
                            {
                                "patchline": {
                                    "destination": [ "obj-51", 0 ],
                                    "source": [ "obj-57", 0 ]
                                }
                            },
                            {
                                "patchline": {
                                    "destination": [ "obj-57", 0 ],
                                    "source": [ "obj-58", 0 ]
                                }
                            },
                            {
                                "patchline": {
                                    "destination": [ "obj-1", 0 ],
                                    "source": [ "obj-59", 0 ]
                                }
                            },
                            {
                                "patchline": {
                                    "destination": [ "obj-94", 0 ],
                                    "source": [ "obj-92", 0 ]
                                }
                            },
                            {
                                "patchline": {
                                    "destination": [ "obj-50", 0 ],
                                    "order": 1,
                                    "source": [ "obj-93", 0 ]
                                }
                            },
                            {
                                "patchline": {
                                    "destination": [ "obj-51", 0 ],
                                    "order": 0,
                                    "source": [ "obj-93", 0 ]
                                }
                            },
                            {
                                "patchline": {
                                    "destination": [ "obj-95", 0 ],
                                    "order": 2,
                                    "source": [ "obj-93", 0 ]
                                }
                            },
                            {
                                "patchline": {
                                    "destination": [ "obj-50", 0 ],
                                    "order": 1,
                                    "source": [ "obj-94", 0 ]
                                }
                            },
                            {
                                "patchline": {
                                    "destination": [ "obj-51", 0 ],
                                    "order": 0,
                                    "source": [ "obj-94", 0 ]
                                }
                            },
                            {
                                "patchline": {
                                    "destination": [ "obj-95", 0 ],
                                    "order": 2,
                                    "source": [ "obj-94", 0 ]
                                }
                            },
                            {
                                "patchline": {
                                    "destination": [ "obj-59", 0 ],
                                    "source": [ "obj-95", 0 ]
                                }
                            },
                            {
                                "patchline": {
                                    "destination": [ "obj-50", 0 ],
                                    "order": 1,
                                    "source": [ "obj-96", 0 ]
                                }
                            },
                            {
                                "patchline": {
                                    "destination": [ "obj-51", 0 ],
                                    "order": 0,
                                    "source": [ "obj-96", 0 ]
                                }
                            },
                            {
                                "patchline": {
                                    "destination": [ "obj-95", 0 ],
                                    "order": 2,
                                    "source": [ "obj-96", 0 ]
                                }
                            }
                        ]
                    },
                    "patching_rect": [ 684.0, 25.0, 111.0, 22.0 ],
                    "text": "p procedural_noise"
                }
            },
            {
                "box": {
                    "id": "obj-20",
                    "maxclass": "newobj",
                    "numinlets": 1,
                    "numoutlets": 2,
                    "outlettype": [ "", "" ],
                    "patching_rect": [ 684.0, 117.0, 391.0, 22.0 ],
                    "text": "jit.gpu.image @dim 512 512 @format RGBA32_FLOAT @name posImg"
                }
            },
            {
                "box": {
                    "id": "obj-18",
                    "maxclass": "newobj",
                    "numinlets": 0,
                    "numoutlets": 1,
                    "outlettype": [ "" ],
                    "patching_rect": [ 56.0, 239.0, 50.0, 22.0 ],
                    "text": "r param"
                }
            },
            {
                "box": {
                    "id": "obj-17",
                    "maxclass": "newobj",
                    "numinlets": 1,
                    "numoutlets": 0,
                    "patching_rect": [ 550.0, 152.0, 52.0, 22.0 ],
                    "text": "s param"
                }
            },
            {
                "box": {
                    "id": "obj-16",
                    "maxclass": "newobj",
                    "numinlets": 1,
                    "numoutlets": 0,
                    "patching_rect": [ 216.0, 154.0, 52.0, 22.0 ],
                    "text": "s param"
                }
            },
            {
                "box": {
                    "code": "//Break transformation matrices into vec4\r\nfunction view_matrix(){\r\n    let m = arrayfromargs(arguments);\r\n    for(let i = 0; i < 16; i+=4){\r\n        outlet(0, \"param\", \"v\"+i/4, m.slice(i, i+4));\r\n    }\r\n}\r\n\r\nfunction proj_matrix(){\r\n    let m = arrayfromargs(arguments);\r\n    for(let i = 0; i < 16; i+=4){\r\n        outlet(0, \"param\", \"p\"+i/4, m.slice(i, i+4));\r\n    }\r\n}\r\n\r\nfunction dim(){ \r\n    outlet(0, \"param\", \"viewPort\", arrayfromargs(arguments));\r\n}",
                    "filename": "none",
                    "fontface": 0,
                    "fontname": "<Monospaced>",
                    "fontsize": 12.0,
                    "id": "obj-11",
                    "maxclass": "v8.codebox",
                    "numinlets": 1,
                    "numoutlets": 1,
                    "outlettype": [ "" ],
                    "patching_rect": [ 56.0, 275.0, 509.0, 301.0 ],
                    "saved_object_attributes": {
                        "parameter_enable": 0
                    }
                }
            },
            {
                "box": {
                    "id": "obj-10",
                    "maxclass": "newobj",
                    "numinlets": 1,
                    "numoutlets": 2,
                    "outlettype": [ "", "" ],
                    "patching_rect": [ 398.0, 56.0, 47.0, 22.0 ],
                    "text": "jit.bang"
                }
            },
            {
                "box": {
                    "id": "obj-9",
                    "maxclass": "message",
                    "numinlets": 2,
                    "numoutlets": 1,
                    "outlettype": [ "" ],
                    "patching_rect": [ 398.0, 86.0, 171.0, 22.0 ],
                    "text": "getview_matrix, getproj_matrix"
                }
            },
            {
                "box": {
                    "id": "obj-7",
                    "maxclass": "message",
                    "numinlets": 2,
                    "numoutlets": 1,
                    "outlettype": [ "" ],
                    "patching_rect": [ 61.0, 86.0, 45.0, 22.0 ],
                    "text": "getdim"
                }
            },
            {
                "box": {
                    "id": "obj-5",
                    "maxclass": "newobj",
                    "numinlets": 1,
                    "numoutlets": 2,
                    "outlettype": [ "", "" ],
                    "patching_rect": [ 61.0, 55.0, 47.0, 22.0 ],
                    "text": "jit.bang"
                }
            },
            {
                "box": {
                    "id": "obj-3",
                    "maxclass": "newobj",
                    "numinlets": 1,
                    "numoutlets": 2,
                    "outlettype": [ "", "" ],
                    "patching_rect": [ 371.0, 25.0, 145.0, 22.0 ],
                    "text": "jit.anim.drive @ui_listen 1"
                }
            },
            {
                "box": {
                    "id": "obj-2",
                    "maxclass": "newobj",
                    "numinlets": 1,
                    "numoutlets": 2,
                    "outlettype": [ "jit_gl_texture", "" ],
                    "patching_rect": [ 371.0, 117.0, 198.0, 22.0 ],
                    "text": "jit.gl.camera @locklook 1 @tripod 1"
                }
            },
            {
                "box": {
                    "id": "obj-1",
                    "maxclass": "newobj",
                    "numinlets": 1,
                    "numoutlets": 3,
                    "outlettype": [ "jit_matrix", "bang", "" ],
                    "patching_rect": [ 38.0, 117.0, 197.0, 22.0 ],
                    "text": "jit.world @floating 1 @size 960 540"
                }
            },
            {
                "box": {
                    "attr": "enable",
                    "id": "obj-4",
                    "maxclass": "attrui",
                    "numinlets": 1,
                    "numoutlets": 1,
                    "outlettype": [ "" ],
                    "parameter_enable": 0,
                    "patching_rect": [ 38.0, 25.0, 150.0, 22.0 ]
                }
            },
            {
                "box": {
                    "attr": "format",
                    "id": "obj-14",
                    "maxclass": "attrui",
                    "numinlets": 1,
                    "numoutlets": 1,
                    "outlettype": [ "" ],
                    "parameter_enable": 0,
                    "patching_rect": [ 710.0, 75.0, 211.0, 22.0 ],
                    "text_width": 68.0
                }
            }
        ],
        "lines": [
            {
                "patchline": {
                    "destination": [ "obj-16", 0 ],
                    "source": [ "obj-1", 2 ]
                }
            },
            {
                "patchline": {
                    "destination": [ "obj-9", 0 ],
                    "source": [ "obj-10", 0 ]
                }
            },
            {
                "patchline": {
                    "destination": [ "obj-32", 0 ],
                    "source": [ "obj-11", 0 ]
                }
            },
            {
                "patchline": {
                    "destination": [ "obj-20", 0 ],
                    "source": [ "obj-14", 0 ]
                }
            },
            {
                "patchline": {
                    "destination": [ "obj-11", 0 ],
                    "source": [ "obj-18", 0 ]
                }
            },
            {
                "patchline": {
                    "destination": [ "obj-17", 0 ],
                    "source": [ "obj-2", 1 ]
                }
            },
            {
                "patchline": {
                    "destination": [ "obj-20", 0 ],
                    "source": [ "obj-21", 0 ]
                }
            },
            {
                "patchline": {
                    "destination": [ "obj-24", 0 ],
                    "source": [ "obj-25", 0 ]
                }
            },
            {
                "patchline": {
                    "destination": [ "obj-23", 0 ],
                    "source": [ "obj-26", 0 ]
                }
            },
            {
                "patchline": {
                    "destination": [ "obj-26", 0 ],
                    "source": [ "obj-27", 0 ]
                }
            },
            {
                "patchline": {
                    "destination": [ "obj-2", 0 ],
                    "source": [ "obj-3", 0 ]
                }
            },
            {
                "patchline": {
                    "destination": [ "obj-25", 0 ],
                    "source": [ "obj-34", 0 ]
                }
            },
            {
                "patchline": {
                    "destination": [ "obj-36", 0 ],
                    "order": 1,
                    "source": [ "obj-35", 0 ]
                }
            },
            {
                "patchline": {
                    "destination": [ "obj-8", 0 ],
                    "order": 0,
                    "source": [ "obj-35", 0 ]
                }
            },
            {
                "patchline": {
                    "destination": [ "obj-1", 0 ],
                    "source": [ "obj-4", 0 ]
                }
            },
            {
                "patchline": {
                    "destination": [ "obj-7", 0 ],
                    "source": [ "obj-5", 0 ]
                }
            },
            {
                "patchline": {
                    "destination": [ "obj-34", 0 ],
                    "source": [ "obj-6", 0 ]
                }
            },
            {
                "patchline": {
                    "destination": [ "obj-1", 0 ],
                    "source": [ "obj-7", 0 ]
                }
            },
            {
                "patchline": {
                    "destination": [ "obj-2", 0 ],
                    "source": [ "obj-9", 0 ]
                }
            }
        ],
        "autosave": 0
    }
}