{
    "patcher": {
        "fileversion": 1,
        "appversion": {
            "major": 9,
            "minor": 2,
            "revision": 0,
            "architecture": "x64",
            "modernui": 1
        },
        "classnamespace": "box",
        "rect": [ 34.0, 100.0, 1660.0, 893.0 ],
        "boxes": [
            {
                "box": {
                    "fontface": 0,
                    "fontname": "Arial",
                    "fontsize": 12.0,
                    "id": "obj-55",
                    "maxclass": "jit.fpsgui",
                    "mode": 3,
                    "numinlets": 1,
                    "numoutlets": 2,
                    "outlettype": [ "", "" ],
                    "patching_rect": [ 1543.0, 374.0, 80.0, 35.0 ]
                }
            },
            {
                "box": {
                    "id": "obj-54",
                    "maxclass": "newobj",
                    "numinlets": 1,
                    "numoutlets": 2,
                    "outlettype": [ "bang", "" ],
                    "patching_rect": [ 1443.0, 125.0, 29.5, 22.0 ],
                    "text": "t b l"
                }
            },
            {
                "box": {
                    "id": "obj-53",
                    "maxclass": "button",
                    "numinlets": 1,
                    "numoutlets": 1,
                    "outlettype": [ "bang" ],
                    "parameter_enable": 0,
                    "patching_rect": [ 1443.0, -34.0, 24.0, 24.0 ]
                }
            },
            {
                "box": {
                    "id": "obj-51",
                    "maxclass": "newobj",
                    "numinlets": 1,
                    "numoutlets": 2,
                    "outlettype": [ "jit_matrix", "" ],
                    "patching_rect": [ 1443.0, 88.0, 296.0, 22.0 ],
                    "text": "jit.matrix 1 float32 1920 1080 @planemap 1 @adapt 0"
                }
            },
            {
                "box": {
                    "autofit": 1,
                    "forceaspect": 1,
                    "id": "obj-48",
                    "maxclass": "fpic",
                    "numinlets": 1,
                    "numoutlets": 1,
                    "outlettype": [ "jit_matrix" ],
                    "patching_rect": [ 1443.0, 2.0, 100.0, 75.0 ],
                    "pic": "chilis.jpg"
                }
            },
            {
                "box": {
                    "depthbuffer": 1,
                    "doublebuffer": 1,
                    "fsaa": 0,
                    "id": "obj-37",
                    "maxclass": "jit.pwindow",
                    "numinlets": 1,
                    "numoutlets": 2,
                    "outlettype": [ "jit_matrix", "" ],
                    "patching_rect": [ 1484.0, 125.0, 178.0, 133.0 ],
                    "stereo": 0,
                    "sync": 1
                }
            },
            {
                "box": {
                    "depthbuffer": 1,
                    "doublebuffer": 1,
                    "fsaa": 0,
                    "id": "obj-24",
                    "maxclass": "jit.pwindow",
                    "numinlets": 1,
                    "numoutlets": 2,
                    "outlettype": [ "jit_matrix", "" ],
                    "patching_rect": [ 934.0, 935.0, 400.0, 502.0 ],
                    "stereo": 0,
                    "sync": 1
                }
            },
            {
                "box": {
                    "id": "obj-23",
                    "maxclass": "newobj",
                    "numinlets": 1,
                    "numoutlets": 3,
                    "outlettype": [ "", "", "" ],
                    "patching_rect": [ 731.0, 1066.0, 79.0, 22.0 ],
                    "text": "jit.gpu.submit"
                }
            },
            {
                "box": {
                    "id": "obj-22",
                    "maxclass": "newobj",
                    "numinlets": 2,
                    "numoutlets": 3,
                    "outlettype": [ "", "jit_matrix", "" ],
                    "patching_rect": [ 731.0, 859.0, 193.0, 22.0 ],
                    "text": "jit.gpu.tomatrix @source img_atlas"
                }
            },
            {
                "box": {
                    "id": "obj-21",
                    "maxclass": "newobj",
                    "numinlets": 1,
                    "numoutlets": 2,
                    "outlettype": [ "", "" ],
                    "patching_rect": [ 786.0, 684.0, 284.0, 22.0 ],
                    "text": "jit.gpu.image @name img_height @format r32_float"
                }
            },
            {
                "box": {
                    "id": "obj-20",
                    "maxclass": "newobj",
                    "numinlets": 1,
                    "numoutlets": 0,
                    "patching_rect": [ 823.0, 583.0, 32.0, 22.0 ],
                    "text": "print"
                }
            },
            {
                "box": {
                    "id": "obj-17",
                    "maxclass": "number",
                    "numinlets": 1,
                    "numoutlets": 2,
                    "outlettype": [ "", "bang" ],
                    "parameter_enable": 0,
                    "patching_rect": [ 1426.5, 987.0, 50.0, 22.0 ]
                }
            },
            {
                "box": {
                    "id": "obj-15",
                    "maxclass": "message",
                    "numinlets": 2,
                    "numoutlets": 1,
                    "outlettype": [ "" ],
                    "patching_rect": [ 1426.5, 1016.0, 99.0, 22.0 ],
                    "text": "get_level_info $1"
                }
            },
            {
                "box": {
                    "id": "obj-11",
                    "linecount": 3,
                    "maxclass": "message",
                    "numinlets": 2,
                    "numoutlets": 1,
                    "outlettype": [ "" ],
                    "patching_rect": [ 1310.0, 729.0, 50.0, 49.0 ],
                    "text": "dim 1920 2163"
                }
            },
            {
                "box": {
                    "filename": "fillAtlas.comp",
                    "id": "obj-49",
                    "maxclass": "newobj",
                    "numinlets": 4,
                    "numoutlets": 1,
                    "outlettype": [ "" ],
                    "patching_rect": [ 731.0, 778.0, 216.0, 22.0 ],
                    "text": "jit.gpu.compute @shader fillAtlas.comp",
                    "textfile": {
                        "filename": "fillAtlas.comp",
                        "flags": 0,
                        "embed": 0,
                        "autowatch": 1
                    }
                }
            },
            {
                "box": {
                    "id": "obj-45",
                    "maxclass": "newobj",
                    "numinlets": 1,
                    "numoutlets": 2,
                    "outlettype": [ "", "" ],
                    "patching_rect": [ 1075.0, 677.0, 276.0, 22.0 ],
                    "text": "jit.gpu.image @name img_atlas @format r32_float"
                }
            },
            {
                "box": {
                    "id": "obj-44",
                    "maxclass": "button",
                    "numinlets": 1,
                    "numoutlets": 1,
                    "outlettype": [ "bang" ],
                    "parameter_enable": 0,
                    "patching_rect": [ 731.0, -9.0, 24.0, 24.0 ]
                }
            },
            {
                "box": {
                    "code": "outlets = 2;\r\nconst w = 1920;\r\nconst h = 1080;\r\n\r\nvar level = [];\r\nvar count = 0;\r\n\r\nfunction bang(){\r\n    let lw = w;\r\n    let lh = h; \r\n    let thisOffset = 0;\r\n    let thisLevel;\r\n    count = 0;\r\n    level = [];\r\n    \r\n    while(!(lw == 1 && lh ==1)){\r\n        thisLevel = {};\r\n        thisLevel.workgroups = [Math.ceil(lw/16), Math.ceil(lh/16), 1]; \r\n        thisLevel.size = [lw, lh];\r\n        thisLevel.offset = [0, thisOffset];\r\n        level.push(thisLevel);\r\n        thisOffset += lh;\r\n        lw = Math.max(1, Math.ceil(lw/2));\r\n        lh = Math.max(1, Math.ceil(lh/2));\r\n        count++;\r\n    }\r\n    \r\n    let ob = {};\r\n    ob.count = count;\r\n    ob.level = level;\r\n    let d = new Dict();\r\n\td.parse(JSON.stringify(ob));\r\n\toutlet(0, \"dictionary\", d.name);\r\n    \r\n    outlet(1, \"dim\", 1920, thisOffset);\r\n}\r\n\r\nfunction get_level_info(l){\r\n\r\n    outlet(0, \"workgroups\", level[l].workgroups);\r\n    outlet(0, \"pc.iteration\", l);\r\n    outlet(0, \"pc.size\", level[l].size);\r\n    outlet(0, \"pc.readOffset\", level[Math.max(0, l-1)].offset);\r\n    outlet(0, \"pc.writeOffset\", level[l].offset);\r\n    outlet(0, \"bang\");\r\n}\r\n\r\n",
                    "filename": "none",
                    "fontface": 0,
                    "fontname": "<Monospaced>",
                    "fontsize": 12.0,
                    "id": "obj-40",
                    "maxclass": "v8.codebox",
                    "numinlets": 1,
                    "numoutlets": 2,
                    "outlettype": [ "", "" ],
                    "patching_rect": [ 731.0, 28.0, 629.0, 615.0 ],
                    "saved_object_attributes": {
                        "parameter_enable": 0
                    }
                }
            },
            {
                "box": {
                    "id": "obj-9",
                    "maxclass": "newobj",
                    "numinlets": 1,
                    "numoutlets": 3,
                    "outlettype": [ "", "", "" ],
                    "patching_rect": [ 134.0, 484.0, 79.0, 22.0 ],
                    "text": "jit.gpu.submit"
                }
            },
            {
                "box": {
                    "depthbuffer": 1,
                    "doublebuffer": 1,
                    "fsaa": 0,
                    "id": "obj-8",
                    "maxclass": "jit.pwindow",
                    "numinlets": 1,
                    "numoutlets": 2,
                    "outlettype": [ "jit_matrix", "" ],
                    "patching_rect": [ 340.0, 545.0, 185.0, 159.0 ],
                    "stereo": 0,
                    "sync": 1
                }
            },
            {
                "box": {
                    "filename": "traversal.comp",
                    "id": "obj-2",
                    "maxclass": "newobj",
                    "numinlets": 3,
                    "numoutlets": 1,
                    "outlettype": [ "" ],
                    "patching_rect": [ 134.0, 356.0, 467.0, 22.0 ],
                    "text": "jit.gpu.compute @shader traversal.comp @workgroups 1 1 1 @pc.pos 2 5 @pc.dir 1 1",
                    "textfile": {
                        "filename": "traversal.comp",
                        "flags": 0,
                        "embed": 0,
                        "autowatch": 1
                    }
                }
            },
            {
                "box": {
                    "id": "obj-1",
                    "maxclass": "newobj",
                    "numinlets": 1,
                    "numoutlets": 2,
                    "outlettype": [ "", "" ],
                    "patching_rect": [ 349.0, 212.0, 338.0, 22.0 ],
                    "text": "jit.gpu.image @name grid @dim 40 40 @format rgba8_unorm"
                }
            },
            {
                "box": {
                    "id": "obj-10",
                    "maxclass": "newobj",
                    "numinlets": 2,
                    "numoutlets": 1,
                    "outlettype": [ "bang" ],
                    "patching_rect": [ 298.0, 173.0, 63.0, 22.0 ],
                    "text": "qmetro 33"
                }
            },
            {
                "box": {
                    "id": "obj-7",
                    "maxclass": "newobj",
                    "numinlets": 2,
                    "numoutlets": 3,
                    "outlettype": [ "", "jit_matrix", "" ],
                    "patching_rect": [ 134.0, 405.0, 87.0, 22.0 ],
                    "text": "jit.gpu.tomatrix"
                }
            },
            {
                "box": {
                    "filename": "clearCanvas.comp",
                    "id": "obj-3",
                    "maxclass": "newobj",
                    "numinlets": 2,
                    "numoutlets": 1,
                    "outlettype": [ "" ],
                    "patching_rect": [ 134.0, 268.0, 369.0, 22.0 ],
                    "text": "jit.gpu.compute @shader clearCanvas.comp @autoworkgroups grid",
                    "textfile": {
                        "filename": "clearCanvas.comp",
                        "flags": 0,
                        "embed": 0,
                        "autowatch": 1
                    }
                }
            },
            {
                "box": {
                    "attr": "pc.pos",
                    "id": "obj-5",
                    "maxclass": "attrui",
                    "numinlets": 1,
                    "numoutlets": 1,
                    "outlettype": [ "" ],
                    "parameter_enable": 0,
                    "patching_rect": [ 51.0, 149.0, 214.0, 22.0 ]
                }
            },
            {
                "box": {
                    "attr": "pc.dir",
                    "id": "obj-6",
                    "maxclass": "attrui",
                    "numinlets": 1,
                    "numoutlets": 1,
                    "outlettype": [ "" ],
                    "parameter_enable": 0,
                    "patching_rect": [ 51.0, 173.0, 214.0, 22.0 ]
                }
            },
            {
                "box": {
                    "attr": "active",
                    "id": "obj-13",
                    "maxclass": "attrui",
                    "numinlets": 1,
                    "numoutlets": 1,
                    "outlettype": [ "" ],
                    "parameter_enable": 0,
                    "patching_rect": [ 298.0, 122.0, 150.0, 22.0 ]
                }
            }
        ],
        "lines": [
            {
                "patchline": {
                    "destination": [ "obj-2", 1 ],
                    "order": 1,
                    "source": [ "obj-1", 0 ]
                }
            },
            {
                "patchline": {
                    "destination": [ "obj-3", 1 ],
                    "order": 0,
                    "source": [ "obj-1", 0 ]
                }
            },
            {
                "patchline": {
                    "destination": [ "obj-7", 1 ],
                    "order": 2,
                    "source": [ "obj-1", 0 ]
                }
            },
            {
                "patchline": {
                    "destination": [ "obj-3", 0 ],
                    "source": [ "obj-10", 0 ]
                }
            },
            {
                "patchline": {
                    "destination": [ "obj-10", 0 ],
                    "source": [ "obj-13", 0 ]
                }
            },
            {
                "patchline": {
                    "destination": [ "obj-40", 0 ],
                    "source": [ "obj-15", 0 ]
                }
            },
            {
                "patchline": {
                    "destination": [ "obj-15", 0 ],
                    "source": [ "obj-17", 0 ]
                }
            },
            {
                "patchline": {
                    "destination": [ "obj-7", 0 ],
                    "source": [ "obj-2", 0 ]
                }
            },
            {
                "patchline": {
                    "destination": [ "obj-49", 1 ],
                    "source": [ "obj-21", 0 ]
                }
            },
            {
                "patchline": {
                    "destination": [ "obj-23", 0 ],
                    "source": [ "obj-22", 0 ]
                }
            },
            {
                "patchline": {
                    "destination": [ "obj-24", 0 ],
                    "source": [ "obj-22", 1 ]
                }
            },
            {
                "patchline": {
                    "destination": [ "obj-2", 0 ],
                    "source": [ "obj-3", 0 ]
                }
            },
            {
                "patchline": {
                    "destination": [ "obj-11", 1 ],
                    "order": 0,
                    "source": [ "obj-40", 1 ]
                }
            },
            {
                "patchline": {
                    "destination": [ "obj-20", 0 ],
                    "order": 0,
                    "source": [ "obj-40", 0 ]
                }
            },
            {
                "patchline": {
                    "destination": [ "obj-45", 0 ],
                    "order": 1,
                    "source": [ "obj-40", 1 ]
                }
            },
            {
                "patchline": {
                    "destination": [ "obj-49", 0 ],
                    "order": 1,
                    "source": [ "obj-40", 0 ]
                }
            },
            {
                "patchline": {
                    "destination": [ "obj-40", 0 ],
                    "source": [ "obj-44", 0 ]
                }
            },
            {
                "patchline": {
                    "destination": [ "obj-22", 1 ],
                    "order": 0,
                    "source": [ "obj-45", 0 ]
                }
            },
            {
                "patchline": {
                    "destination": [ "obj-49", 2 ],
                    "order": 1,
                    "source": [ "obj-45", 0 ]
                }
            },
            {
                "patchline": {
                    "destination": [ "obj-51", 0 ],
                    "source": [ "obj-48", 0 ]
                }
            },
            {
                "patchline": {
                    "destination": [ "obj-22", 0 ],
                    "source": [ "obj-49", 0 ]
                }
            },
            {
                "patchline": {
                    "destination": [ "obj-2", 0 ],
                    "source": [ "obj-5", 0 ]
                }
            },
            {
                "patchline": {
                    "destination": [ "obj-37", 0 ],
                    "order": 1,
                    "source": [ "obj-51", 0 ]
                }
            },
            {
                "patchline": {
                    "destination": [ "obj-54", 0 ],
                    "order": 2,
                    "source": [ "obj-51", 0 ]
                }
            },
            {
                "patchline": {
                    "destination": [ "obj-55", 0 ],
                    "order": 0,
                    "source": [ "obj-51", 0 ]
                }
            },
            {
                "patchline": {
                    "destination": [ "obj-48", 0 ],
                    "source": [ "obj-53", 0 ]
                }
            },
            {
                "patchline": {
                    "destination": [ "obj-21", 0 ],
                    "source": [ "obj-54", 1 ]
                }
            },
            {
                "patchline": {
                    "destination": [ "obj-44", 0 ],
                    "source": [ "obj-54", 0 ]
                }
            },
            {
                "patchline": {
                    "destination": [ "obj-2", 0 ],
                    "source": [ "obj-6", 0 ]
                }
            },
            {
                "patchline": {
                    "destination": [ "obj-8", 0 ],
                    "source": [ "obj-7", 1 ]
                }
            },
            {
                "patchline": {
                    "destination": [ "obj-9", 0 ],
                    "source": [ "obj-7", 0 ]
                }
            }
        ],
        "autosave": 0
    }
}